<svg width="18" height="12" viewBox="0 0 18 12" fill="none" xmlns="http://www.w3.org/2000/svg">
  <path
    d="M9.58601 11.2C3.57277 11.2 0.142911 6.9958 0 0H3.01212C3.11106 5.13473 5.33167 7.30971 7.09057 7.75816V0H9.9268V4.42843C11.6637 4.23784 13.4886 2.21982 14.1042 0H16.9404C16.7084 1.15126 16.246 2.24132 15.5821 3.202C14.9181 4.16268 14.067 4.97331 13.0818 5.58318C14.1815 6.14044 15.1528 6.9292 15.9316 7.8974C16.7104 8.86559 17.2791 9.99122 17.6 11.2H14.4779C14.1899 10.1501 13.6043 9.21025 12.7947 8.49826C11.9851 7.78628 10.9875 7.33382 9.9268 7.1976V11.2H9.58601V11.2Z"
    fill="currentColor" />
</svg>
