<svg width="32" height="32" viewBox="0 0 32 32" fill="none" xmlns="http://www.w3.org/2000/svg">
  <path
    d="M10.3438 8.92888C9.9533 8.53836 9.32014 8.53836 8.92961 8.92888C8.53909 9.3194 8.53909 9.95257 8.92961 10.3431L14.5865 16L8.92969 21.6568C8.53916 22.0473 8.53916 22.6805 8.92969 23.071C9.32021 23.4615 9.95338 23.4615 10.3439 23.071L16.0007 17.4142L21.6575 23.071C22.0481 23.4615 22.6812 23.4615 23.0717 23.071C23.4623 22.6805 23.4623 22.0473 23.0717 21.6568L17.4149 16L23.0718 10.3431C23.4623 9.95257 23.4623 9.31941 23.0718 8.92888C22.6813 8.53836 22.0481 8.53836 21.6576 8.92888L16.0007 14.5858L10.3438 8.92888Z"
    fill="currentColor" />
</svg>
