<svg width="18" height="12" viewBox="0 0 18 12" fill="none" xmlns="http://www.w3.org/2000/svg">
  <path fill-rule="evenodd" clip-rule="evenodd"
    d="M1.80999 11.6455C1.49618 11.5526 1.20985 11.3874 0.975166 11.1639C0.740479 10.9403 0.564322 10.665 0.461558 10.361C-0.125663 8.78989 -0.299655 2.22954 0.831289 0.934459C1.20769 0.513159 1.73911 0.253775 2.31022 0.212607C5.34419 -0.105856 14.718 -0.0633941 15.7946 0.318762C16.0974 0.414658 16.374 0.576205 16.6038 0.791298C16.8335 1.00639 17.0104 1.26945 17.1212 1.56077C17.7628 3.18494 17.7846 9.08713 17.0342 10.6476C16.8352 11.0538 16.502 11.3828 16.0882 11.5818C14.9572 12.1338 3.31067 12.1231 1.80999 11.6455V11.6455ZM6.62738 8.56697L12.0646 5.80695L6.62738 3.0257V8.56697Z"
    fill="currentColor" />
</svg>
