<svg width="32" height="32" viewBox="0 0 32 32" fill="none" xmlns="http://www.w3.org/2000/svg">
  <path
    d="M22.666 2.66667C23.4024 2.66667 23.9993 3.26363 23.9993 4.00001V9.33334H27.9993C28.7357 9.33334 29.3327 9.9303 29.3327 10.6667V24C29.3327 24.7364 28.7357 25.3333 27.9993 25.3333H23.9993V28C23.9993 28.7364 23.4024 29.3333 22.666 29.3333H9.33268C8.59631 29.3333 7.99935 28.7364 7.99935 28V25.3333H3.99935C3.26298 25.3333 2.66602 24.7364 2.66602 24V10.6667C2.66602 9.9303 3.26298 9.33334 3.99935 9.33334H7.99935V4.00001C7.99935 3.26363 8.59631 2.66667 9.33268 2.66667H22.666ZM21.3327 22.6667H10.666V26.6667H21.3327V22.6667ZM26.666 12H5.33268V22.6667H7.99935V21.3333C7.99935 20.5969 8.59631 20 9.33268 20H22.666C23.4024 20 23.9993 20.5969 23.9993 21.3333V22.6667H26.666V12ZM10.666 13.3333V16H6.66602V13.3333H10.666ZM21.3327 5.33334H10.666V9.33334H21.3327V5.33334Z"
    fill="currentColor" />
</svg>
