<svg width="80" height="80" fill="none" xmlns="http://www.w3.org/2000/svg"><g clip-path="url(#a)" fill="#009CD7"><path d="M0 77.031V67.97l.873-1.719L0 64.531V55.47c.298-.588.596-1.175.87-1.719-.297-.587-.585-1.152-.87-1.719V42.97c.298-.588.596-1.175.87-1.719-.297-.587-.585-1.152-.87-1.719V30.47c.298-.588.596-1.175.87-1.719-.297-.587-.585-1.152-.87-1.719V17.97c.78-2.232 2.37-3.036 4.694-2.996 5.231.087 10.466.044 15.698.017 1.229-.007 2.385.118 3.166.804.971-.298 1.76-.638 2.584-.763.814-.123 1.662-.041 2.495-.025.809.017 1.336.506 1.357 1.21.02.732-.53 1.259-1.369 1.28-.702.019-1.406-.002-2.108.006-1.07.013-1.51.45-1.515 1.527-.006 2.317-.008 4.634 0 6.952.004 1.069.452 1.513 1.525 1.517 2.292.008 4.581.002 6.873.002.938 0 1.875-.019 2.813.008.752.021 1.26.527 1.28 1.204.022.707-.503 1.234-1.287 1.282-.233.014-.469.004-.702.004-6.716 0-13.433-.002-20.15.002-1.175 0-1.598.425-1.6 1.598-.008 2.162-.004 4.325-.004 6.485 0 1.596.319 1.917 1.91 1.917 12.315 0 24.63.006 36.944-.008 1.319-.002 2.608.008 3.5.848.821-.309 1.477-.638 2.171-.796.904-.206 1.6.275 1.708 1.04.105.733-.373 1.26-1.306 1.416-.752.125-1.169.556-1.173 1.317-.012 2.448-.014 4.893.002 7.341.007.834.486 1.33 1.31 1.33 5.78.012 11.561.012 17.34.002.83-.003 1.113-.407 1.377-1.298.13-.434.527-.984.909-1.088.38-.102.896.284 1.348.469.083.035.14.135.208.206v1.25c-.298.588-.596 1.173-.87 1.719.297.587.582 1.154.87 1.719v9.062c-.298.588-.596 1.173-.87 1.719.297.587.582 1.154.87 1.719v9.062c-.498 1.481-1.488 2.471-2.969 2.969H57.967l-1.72-.873-1.718.873H25.467l-1.72-.873-1.718.873H2.967C1.487 79.502.496 78.515 0 77.03ZM40.002 42.5c-4.48 0-8.958-.002-13.435.002-1.125.002-1.56.435-1.565 1.556-.006 2.265-.004 4.532 0 6.796.002 1.227.415 1.642 1.636 1.644 1.51.004 3.02-.002 4.53.004.688.002 1.155.344 1.297 1.013.127.6-.123 1.097-.694 1.335-.298.125-.656.142-.988.144-5.156.008-10.312.004-15.466.008-1.125 0-1.56.438-1.563 1.558-.008 2.213-.004 4.425-.004 6.64 0 1.438.363 1.8 1.794 1.8H35.62c2.212 0 4.427.006 6.64-.002.958-.004 1.472-.444 1.48-1.323.022-2.448.02-4.896 0-7.344-.006-.831-.489-1.285-1.318-1.327-.233-.012-.469-.004-.702-.004-1.796 0-3.594.013-5.39-.008-.8-.009-1.323-.532-1.325-1.24-.002-.71.521-1.208 1.319-1.248.208-.01.417-.002.625-.004 5.494 0 10.99.002 16.483-.002 1.123 0 1.56-.44 1.565-1.558.006-2.24.004-4.48.002-6.72-.002-1.33-.39-1.72-1.717-1.72h-13.28Zm-.081 35c4.504 0 9.01.002 13.514-.002 1.121-.002 1.559-.442 1.563-1.563.006-2.291.006-4.583 0-6.875-.002-1.12-.44-1.56-1.563-1.56-8.958-.002-17.914-.002-26.873 0-1.122 0-1.558.438-1.56 1.56-.006 2.24-.004 4.48-.002 6.72.002 1.328.39 1.718 1.719 1.718 4.4.002 8.802.002 13.202.002ZM12.5 27.5c2.813 0 5.625.004 8.438-.002 1.118-.002 1.558-.442 1.56-1.563.006-2.291.006-4.583 0-6.875-.002-1.12-.442-1.558-1.563-1.558-5.625-.004-11.25-.004-16.872 0-1.123 0-1.557.438-1.56 1.56-.007 2.265-.005 4.532 0 6.796.001 1.225.414 1.638 1.639 1.64 2.785.004 5.573.002 8.358.002Zm-.002 25c2.812 0 5.625.004 8.437-.002 1.121-.002 1.56-.442 1.563-1.56.006-2.292.006-4.584 0-6.876-.002-1.12-.44-1.56-1.56-1.56-5.625-.004-11.25-.004-16.873 0-1.123 0-1.559.438-1.56 1.56-.007 2.265-.005 4.532 0 6.796.001 1.225.414 1.64 1.639 1.642 2.783.002 5.569 0 8.354 0ZM56.225 65c2.813 0 5.625.004 8.437-.002 1.136-.002 1.582-.433 1.586-1.538.006-2.316.008-4.635 0-6.952-.004-1.06-.458-1.504-1.538-1.506-5.65-.004-11.302-.004-16.952 0-1.062 0-1.502.456-1.506 1.535-.006 2.292-.006 4.584 0 6.876.002 1.162.433 1.583 1.615 1.585 2.785.004 5.573.002 8.358.002ZM12.498 77.5c2.812 0 5.625.004 8.437-.002 1.121-.002 1.56-.44 1.565-1.56.006-2.292.006-4.584 0-6.876-.002-1.122-.44-1.562-1.56-1.562-5.625-.004-11.25-.004-16.873 0-1.125 0-1.56.438-1.563 1.558-.006 2.265-.004 4.532 0 6.796.002 1.227.415 1.642 1.638 1.642 2.783.006 5.568.004 8.356.004Zm55-10c-2.813 0-5.625-.004-8.438.002-1.123.002-1.556.438-1.56 1.56-.006 2.292-.006 4.584 0 6.876.002 1.12.44 1.56 1.56 1.56 5.625.004 11.25.004 16.873 0 1.12 0 1.559-.442 1.56-1.563.007-2.264.005-4.53 0-6.795-.001-1.223-.416-1.638-1.64-1.638-2.782-.004-5.568-.002-8.355-.002ZM11.25 35.069c0-1.198.008-2.396-.002-3.594-.01-1.017-.465-1.469-1.49-1.473-1.927-.008-3.854-.01-5.78 0-1.02.006-1.47.46-1.474 1.49a987.968 987.968 0 0 0 0 7.03c.004 1.018.463 1.47 1.488 1.476 1.927.01 3.854.01 5.78 0 1.015-.006 1.468-.465 1.476-1.49.01-1.148.002-2.293.002-3.44Zm0 24.979c0-1.198.01-2.396-.002-3.594-.01-.977-.467-1.444-1.433-1.45a457.605 457.605 0 0 0-5.859 0c-.979.006-1.446.463-1.45 1.431a734.87 734.87 0 0 0 0 7.109c.004.977.465 1.446 1.432 1.452 1.952.012 3.906.012 5.858 0 .977-.006 1.44-.467 1.452-1.433.012-1.171.002-2.344.002-3.515Zm66.25.004c0-1.198.01-2.396-.002-3.594-.01-.979-.465-1.448-1.43-1.454a457.6 457.6 0 0 0-5.858 0c-.98.006-1.45.46-1.454 1.427-.012 2.369-.01 4.74 0 7.109.004.979.465 1.45 1.427 1.456 1.952.012 3.907.012 5.859 0 1.004-.006 1.45-.473 1.458-1.506.006-1.146 0-2.292 0-3.438Z"/><path d="M80 44.531c-.333 1.209-.75 2.367-1.612 3.331-2.32 2.594-6.373 2.948-8.9.56-3.198-3.018-6.257-6.184-9.36-9.303-.599-.6-.576-1.236.024-1.856.267-.276.617-.471.869-.657-1.352-1.356-2.54-2.546-3.78-3.787-1.516 1.518-3.076 3.079-4.635 4.643-1.294 1.298-2.84 2.01-4.685 1.953-2.669-.084-4.592-1.363-5.736-3.765-2.827-5.938-5.633-11.885-8.448-17.83-.979-2.066-1.964-4.13-2.94-6.2-1.405-2.982-.955-5.587 1.361-7.912.184-.185.377-.36.55-.554C34.031 1.684 35.5.44 37.5 0h2.031c3.61 1.648 7.225 3.288 10.83 4.948.847.39 1.118 1.077.772 1.764-.343.682-1.03.867-1.883.465-2.87-1.35-5.735-2.712-8.6-4.073-2.125-1.008-3.57-.764-5.223.883L34.046 5.37c-1.709 1.708-1.96 3.119-.938 5.279 2.88 6.087 5.76 12.173 8.644 18.26.869 1.834 1.733 3.667 2.61 5.496 1.365 2.844 4.363 3.383 6.592 1.18 1.533-1.515 3.05-3.044 4.65-4.647-.958-.941-1.89-1.806-2.764-2.727-1.1-1.158-1.421-2.525-.844-4.035.569-1.49 1.725-2.254 3.273-2.396 1.173-.106 2.204.308 3.041 1.146.863.863 1.713 1.738 2.677 2.72.832-.864 1.596-1.67 2.373-2.462.748-.762 1.515-1.506 2.263-2.266 2.127-2.167 1.619-5.188-1.125-6.513-3.09-1.492-6.202-2.941-9.302-4.41-.213-.1-.427-.194-.633-.304-.738-.39-1.009-1.017-.728-1.67.294-.68 1.007-.945 1.775-.585 3.484 1.636 6.994 3.217 10.423 4.963 3.775 1.92 4.53 6.91 1.588 10.033-1.392 1.477-2.863 2.881-4.296 4.321-.18.181-.35.373-.47.502 1.216 1.221 2.403 2.413 3.758 3.771.185-.252.379-.602.654-.87.616-.6 1.256-.624 1.856-.024 3.119 3.104 6.277 6.173 9.29 9.377.772.821 1.072 2.088 1.59 3.148-.003.625-.003 1.25-.003 1.875ZM62.79 38.28c2.706 2.698 5.41 5.4 8.122 8.096 1.678 1.669 4.073 1.717 5.64.13 1.542-1.563 1.483-3.943-.154-5.586-2.57-2.581-5.15-5.152-7.73-7.727-.14-.142-.301-.267-.426-.375l-5.452 5.462Zm1.78-5.502c-.085-.11-.126-.177-.18-.233-2.594-2.598-5.186-5.198-7.79-7.786-.86-.854-2.148-.61-2.296.473-.06.448.21 1.08.544 1.423 2.485 2.558 5.025 5.063 7.55 7.583.12.121.262.22.381.317l1.792-1.777Z"/></g><defs><clipPath id="a"><path fill="#fff" d="M0 0h80v80H0z"/></clipPath></defs></svg>