<svg width="32" height="32" fill="none" xmlns="http://www.w3.org/2000/svg"><path d="M9.5 4v5a1 1 0 0 0 2 0V4a1 1 0 1 0-2 0ZM9.5 14.5V28a1 1 0 1 0 2 0V14.5a1 1 0 1 0-2 0Z" fill="#009CD7"/><path d="m7 10.078.986-5.914A1 1 0 0 0 8 4v-.03A1 1 0 0 0 7 3h-.03a1 1 0 0 0-.956.836l-1 6A1 1 0 0 0 5 10c0 2.278 1.61 3.89 1.61 3.89 1.612 1.61 3.89 1.61 3.89 1.61 2.278 0 3.89-1.61 3.89-1.61C16 12.277 16 10 16 10c0-.055-.005-.11-.014-.164l-1-6A1 1 0 0 0 14 3h-.006A.999.999 0 0 0 13 4v.008c0 .052.005.105.014.156l.985 5.914c-.027 1.4-1.024 2.397-1.024 2.397C11.95 13.5 10.5 13.5 10.5 13.5c-1.45 0-2.475-1.025-2.475-1.025-.997-.998-1.024-2.397-1.024-2.397Z" fill="#009CD7"/><path fill-rule="evenodd" clip-rule="evenodd" d="M24.5 28v-7h-6a.997.997 0 0 1-.778-.372 1 1 0 0 1-.216-.735s.097-.905.328-2.278c0 0 .462-2.741 1.141-5.138 0 0 2.265-7.992 6.183-9.417A1 1 0 0 1 26.5 4v24a1 1 0 1 1-2 0Zm0-22.202V19h-4.861s.071-.482.167-1.052c0 0 .444-2.634 1.094-4.925 0 0 .896-3.163 2.053-5.182 0 0 .742-1.293 1.547-2.043Z" fill="#009CD7"/></svg>