<svg width="80" height="80" fill="none" xmlns="http://www.w3.org/2000/svg"><g clip-path="url(#a)" fill="#009CD7"><path d="M66.875 80h-2.969c-.123-.04-.242-.102-.367-.119-4.104-.535-7.393-2.477-9.952-5.713-.183-.233-.598-.397-.906-.402-3.41-.027-6.823-.016-10.233-.018-1.275 0-2.552.004-3.827-.005-.652-.004-1.259-.262-1.415-.891-.123-.496-.104-1.206.175-1.573.285-.375.965-.623 1.475-.63 3.956-.05 7.915-.026 11.873-.028.269 0 .54-.025.756-.036l-.946-4.337H9.7c-1.75 0-2.2-.457-2.2-2.232v-35.62c0-1.665.477-2.146 2.127-2.148h57.025c1.608 0 2.098.49 2.098 2.098v22.546c1.508.63 2.927 1.224 4.312 1.801V21.872H14.807c-.313 0-.63.018-.936-.021a1.561 1.561 0 0 1-1.365-1.559 1.561 1.561 0 0 1 1.396-1.529c.283-.033.573-.016.858-.016h58.365c0-2.55.004-4.994-.002-7.438-.004-1.333-.621-1.935-1.98-1.935-3.437-.004-6.874-.002-10.31-.002h-.677c0 .562.006 1.052-.002 1.54-.044 2.662-2.115 4.724-4.723 4.707-2.566-.016-4.606-2.079-4.648-4.704-.008-.506-.002-1.014-.002-1.5H25.462c0 .586.015 1.127-.002 1.667-.085 2.515-2.152 4.523-4.656 4.536a4.695 4.695 0 0 1-4.706-4.565c-.015-.54-.002-1.08-.002-1.683H5.406c-1.785.006-2.281.495-2.281 2.266v56.713c0 1.779.494 2.275 2.269 2.277 6.822 0 13.643-.002 20.466.004 1.05 0 1.775.664 1.767 1.569-.008.879-.715 1.546-1.71 1.548-7.084.006-14.165.014-21.248-.007-2.032-.006-3.757-1.323-4.42-3.254-.074-.216-.164-.427-.247-.64V10.159c.042-.062.102-.12.125-.19.762-2.5 2.394-3.714 4.998-3.718 3.094-.004 6.187 0 9.281 0h1.688c0-.46.012-.844-.003-1.227-.045-1.304.336-2.454 1.188-3.45C18.004.729 18.981.33 19.999 0h1.563c.094.044.182.102.28.129 2.316.66 3.608 2.348 3.627 4.742.004.435 0 .868 0 1.34H50.78c0-.472.006-.907-.002-1.342-.023-1.37.377-2.623 1.425-3.494.717-.594 1.648-.927 2.481-1.38h1.563c.094.044.181.103.279.13 2.317.662 3.608 2.348 3.627 4.746.004.435 0 .87 0 1.375h.919c3.331 0 6.662-.002 9.994.002.39 0 .785-.002 1.166.064 2.459.432 4.015 2.365 4.015 4.994.002 14.469.004 28.938-.008 43.406 0 .552.137.973.495 1.402 1.438 1.728 2.373 3.715 2.892 5.898.138.575.25 1.157.373 1.734v3.125c-.048.141-.119.28-.142.427-.987 5.862-4.277 9.835-9.84 11.9-1.008.379-2.093.541-3.143.802ZM53.75 65.317c.002 6.377 5.204 11.566 11.585 11.556 6.342-.009 11.525-5.188 11.538-11.53.012-6.385-5.171-11.589-11.548-11.593-6.381-.004-11.577 5.185-11.575 11.567ZM22.306 29.396v9.148h8.392v-9.148h-8.392Zm23.223 9.141h8.438V29.43h-8.438v9.108ZM30.725 53.952H22.3v9.127h8.425v-9.127ZM30.7 50.76v-8.993h-8.398v8.993H30.7Zm23.246 0v-8.993h-8.398v8.993h8.398ZM19.052 38.57v-9.146h-8.373v9.146h8.373Zm14.864-.026h8.39v-9.118h-8.39v9.119Zm23.259-.006h8.387V29.43h-8.387v9.108Zm-38.1 15.425h-8.388v9.109h8.388v-9.109Zm23.235 9.136v-9.146h-8.37v9.146h8.37ZM19.05 50.756v-8.987H10.68v8.987h8.369Zm23.256.002v-8.99h-8.362v8.99h8.362Zm14.873-.119h8.402v-8.883H57.18v8.883Zm-11.633 3.307v9.152h5.204c.058-.219.125-.415.164-.617.388-2.075 1.16-4.013 2.467-5.658.731-.921.646-1.84.584-2.877h-8.42ZM19.22 7.746c0 1.037-.017 2.077.004 3.114.019.95.665 1.619 1.529 1.634.892.016 1.575-.671 1.583-1.659.02-2.025.02-4.05 0-6.073-.008-.95-.666-1.616-1.529-1.633-.892-.017-1.564.67-1.583 1.656-.021.988-.004 1.975-.004 2.96Zm37.81.112c0-1.012.013-2.025-.004-3.037-.017-1-.66-1.686-1.552-1.69-.892-.004-1.556.681-1.565 1.675a410.396 410.396 0 0 0 0 5.996c.009 1.002.659 1.687 1.55 1.692.892.004 1.548-.682 1.565-1.678.019-.985.006-1.972.006-2.958Z"/><path d="M7.827 21.869a1.575 1.575 0 0 1-1.571-1.581 1.575 1.575 0 0 1 1.542-1.534c.86-.008 1.585.721 1.57 1.58a1.577 1.577 0 0 1-1.541 1.535ZM33.875 72.22c-.023.832-.746 1.532-1.577 1.524a1.55 1.55 0 0 1-1.53-1.63 1.546 1.546 0 0 1 1.596-1.483c.836.031 1.534.767 1.51 1.59ZM64.91 66.446c1.667-1.667 3.148-3.165 4.652-4.642.271-.267.596-.546.946-.654.68-.212 1.294 0 1.708.61.41.607.44 1.288-.062 1.805a320.036 320.036 0 0 1-6.177 6.187c-.604.588-1.409.531-2.044-.075a97.363 97.363 0 0 1-3.31-3.312c-.617-.648-.582-1.496-.002-2.11.591-.632 1.502-.711 2.166-.082.727.692 1.38 1.47 2.123 2.273Z"/></g><defs><clipPath id="a"><path fill="#fff" d="M0 0h80v80H0z"/></clipPath></defs></svg>