<svg width="80" height="80" fill="none" xmlns="http://www.w3.org/2000/svg"><path d="M67.325 70.674c-1.765-.663-2.438-1.975-2.288-3.796.033-.415-.015-.833.017-1.248.06-.808.57-1.296 1.29-1.27.689.022 1.152.501 1.187 1.285.029.623.01 1.248.014 1.873.002.441.196.662.667.66 2.004-.01 4.008-.015 6.013.002.633.006.718-.358.716-.856-.006-1.536.004-3.071-.004-4.606-.002-.6.192-1.071.771-1.32.77-.328 1.673.163 1.698 1.049.054 1.896.07 3.8-.038 5.694-.077 1.341-1.052 2.072-2.233 2.533h-7.81ZM4.348 70.674c-1.723-.709-2.367-2.002-2.232-3.834.1-1.345.013-2.704.023-4.058.006-.937.467-1.479 1.231-1.479.757-.002 1.253.554 1.263 1.473.015 1.508.025 3.019-.004 4.527-.013.62.164.896.837.883 1.9-.033 3.8-.03 5.7-.002.656.01.89-.243.85-.877-.035-.57-.027-1.146.002-1.716.038-.74.56-1.236 1.246-1.232.686.004 1.204.498 1.234 1.246.029.78.052 1.565-.009 2.342-.114 1.448-1.029 2.26-2.323 2.729-2.61-.002-5.214-.002-7.818-.002Z" fill="#009CD7"/><path d="M6.241 29.497c-1.35-.304-2.566-.575-3.783-.857-1.733-.4-2.535-1.59-2.452-3.625.067-1.612 1.035-2.672 2.679-2.95 1.102-.185 2.2-.402 3.304-.587 1.994-.335 2.784.042 3.83 1.877.124-.24.235-.42.316-.614.838-1.96 1.673-3.921 2.502-5.884 1.621-3.833 4.49-5.946 8.621-6.537a131.232 131.232 0 0 1 20.473-1.307c5.941.084 11.864.463 17.719 1.505 3.379.602 5.808 2.587 7.25 5.697.95 2.05 1.783 4.157 2.67 6.236.12.28.252.554.425.93.173-.297.288-.515.423-.72.646-.983 1.557-1.456 2.725-1.285 1.415.206 2.825.458 4.232.719 1.433.264 2.36 1.352 2.454 2.83.12 1.897-.556 3.153-2.067 3.593-1.319.385-2.675.652-4.114.995.254.409.477.8.73 1.173 1.25 1.836 2.447 3.707 2.868 5.927.23 1.22.4 2.471.412 3.709.048 4.477.023 8.956.019 13.435-.007 5.544-3.359 9.021-8.904 9.24a27.46 27.46 0 0 1-1.015.016c-18.49 0-36.977-.002-55.467.005-1.816 0-3.59-.22-5.237-1.02-3.009-1.455-4.569-3.953-4.642-7.216-.114-5.204-.087-10.414-.004-15.62.042-2.6.952-4.988 2.398-7.159.531-.8 1.048-1.606 1.635-2.506Zm5.681-4.46h52.371c.286 0 .575-.02.859.012.694.073 1.1.481 1.137 1.166.038.694-.348 1.134-1.017 1.282-.3.066-.62.037-.933.037-17.685.002-35.368.004-53.054-.01-.554 0-.887.144-1.192.629-1.108 1.763-2.26 3.496-3.412 5.231-1.194 1.798-1.956 3.769-1.983 5.919a615.05 615.05 0 0 0-.007 15.313c.036 2.868 1.767 4.925 4.56 5.58a12.24 12.24 0 0 0 2.784.305c18.519.017 37.035.015 55.554.006.7 0 1.409-.044 2.1-.152 3.432-.537 5.809-3.04 5.177-7.56h-1.075c-21.72 0-43.444 0-65.164-.002-.363 0-.736.004-1.088-.067-.62-.125-.941-.581-.94-1.18.005-.63.338-1.097 1.007-1.201.356-.057.727-.048 1.09-.048 21.72-.002 43.443-.002 65.164-.002h1.117c0-3.13-.069-6.15.019-9.167.093-3.167-.721-6.004-2.578-8.57-2.862-3.96-5.241-8.182-6.91-12.788a28.18 28.18 0 0 0-1.033-2.442c-1.171-2.487-3.117-4.08-5.838-4.423-4.129-.52-8.273-1.002-12.427-1.235-8.052-.452-16.077-.03-24.08 1.025-3.637.479-6.118 2.198-7.426 5.654-.746 1.969-1.63 3.883-2.448 5.823-.106.25-.196.51-.334.864Zm65.2.324c.073-.51-.12-.779-.643-.86-1.202-.186-2.398-.423-3.602-.598-.19-.027-.515.113-.6.273a15.03 15.03 0 0 0-.832 1.837c-.222.588.371 1.27.967 1.138 1.34-.294 2.677-.606 4.019-.892.514-.108.796-.352.692-.898Zm-69.92-1.798c-.098.103-.198.203-.296.305-1.225.21-2.45.429-3.68.625-.472.075-.73.25-.737.793-.004.557.152.865.73.98 1.243.25 2.474.564 3.718.808.304.06.733.054.948-.117.373-.298.496-.74.202-1.242-.273-.466-.456-.985-.667-1.487-.09-.215-.145-.442-.218-.665Z" fill="#009CD7"/><path d="M44.408 46.4c-3.71.5-7.992.05-12.277-.178-1.61-.086-3.221-.198-4.831-.252-.88-.03-1.442-.375-1.81-1.196-.928-2.06-1.917-4.094-2.874-6.142-.683-1.46-.131-2.27 1.492-2.16 3.814.26 7.63.529 11.444.81 4.402.323 8.79.027 13.177-.281 2.283-.16 4.562-.367 6.848-.527 1.596-.113 2.137.723 1.448 2.194-.959 2.047-1.946 4.08-2.875 6.141-.359.794-.909 1.121-1.752 1.16-2.471.109-4.94.263-7.99.432Zm-18.833-7.355c.71 1.514 1.323 2.856 1.983 4.175.08.158.42.241.648.258 1.219.09 2.446.096 3.66.225 6.581.702 13.148.23 19.715-.22.162-.011.408-.072.462-.184.671-1.356 1.313-2.727 2.044-4.271-9.579 1.142-18.97 1.108-28.512.017ZM68.079 35.155c.104-.008.208-.019.31-.027 2.431-.208 3.604.777 3.76 3.223.038.592 0 1.202-.106 1.783-.36 1.956-1.462 3.03-3.416 3.315-3.398.496-6.8.96-10.2 1.435a5.68 5.68 0 0 1-.621.065c-1.035.031-1.725-.886-1.221-1.777 1.23-2.169 2.544-4.29 3.848-6.415.44-.714 1.138-1.002 1.973-1.077 1.892-.169 3.779-.385 5.667-.583l.006.058Zm-8.073 6.77c.054.063.11.124.164.186 2.8-.398 5.603-.78 8.398-1.218.309-.048.763-.357.817-.615.156-.742.17-1.52.17-2.283 0-.136-.35-.396-.522-.384-2.023.142-4.044.315-6.063.507-.233.023-.54.137-.66.312-.792 1.15-1.542 2.327-2.304 3.496ZM10.518 35.011c2.33.238 4.663.436 6.982.744.537.07 1.223.388 1.5.813 1.42 2.17 2.779 4.385 4.058 6.643.519.915-.25 1.84-1.356 1.707-2.144-.259-4.277-.58-6.417-.875-1.34-.186-2.675-.394-4.019-.56-2.137-.265-3.402-1.34-3.69-3.478-.135-.998-.014-2.083.236-3.067.346-1.352 1.306-1.91 2.706-1.927Zm9.217 7.127c-.738-1.175-1.38-2.118-1.938-3.108-.406-.719-.987-.97-1.768-1.014-1.584-.09-3.165-.228-4.746-.35-1.233-.098-1.335-.005-1.32 1.272.001.157.003.313.02.467.114 1.07.49 1.442 1.567 1.583.952.125 1.904.271 2.856.405 1.691.24 3.385.475 5.329.745Z" fill="#009CD7"/></svg>