<svg width="60" height="60" fill="none" xmlns="http://www.w3.org/2000/svg"><path d="M20.983 29.582a1.875 1.875 0 0 0-1.296-.52l-.042.001a1.875 1.875 0 0 0-1.832 1.875v.042c.011.497.22.97.58 1.313l6.866 6.563a1.875 1.875 0 0 0 2.59 0l13.757-13.124a1.877 1.877 0 0 0-1.294-3.232h-.052a1.875 1.875 0 0 0-1.242.518l-12.462 11.89-5.573-5.326Z" fill="#009CD7"/><path fill-rule="evenodd" clip-rule="evenodd" d="M30 5.625s4.958 0 9.488 1.916c0 0 4.375 1.85 7.748 5.223 0 0 3.372 3.373 5.223 7.748 0 0 1.916 4.53 1.916 9.488 0 0 0 4.958-1.916 9.488 0 0-1.85 4.375-5.223 7.748 0 0-3.373 3.372-7.748 5.223 0 0-4.53 1.916-9.488 1.916 0 0-4.958 0-9.488-1.916 0 0-4.375-1.85-7.748-5.223 0 0-3.372-3.373-5.223-7.748 0 0-1.916-4.53-1.916-9.488 0 0 0-4.958 1.916-9.488 0 0 1.85-4.375 5.223-7.748 0 0 3.373-3.372 7.748-5.223 0 0 4.53-1.916 9.488-1.916Zm0 3.75s-4.197 0-8.028 1.62c0 0-3.7 1.565-6.556 4.42 0 0-2.856 2.856-4.421 6.557 0 0-1.62 3.83-1.62 8.028 0 0 0 4.197 1.62 8.028 0 0 1.565 3.7 4.42 6.556 0 0 2.856 2.856 6.557 4.421 0 0 3.83 1.62 8.028 1.62 0 0 4.197 0 8.028-1.62 0 0 3.7-1.565 6.556-4.42 0 0 2.856-2.856 4.421-6.557 0 0 1.62-3.83 1.62-8.028 0 0 0-4.197-1.62-8.028 0 0-1.565-3.7-4.42-6.556 0 0-2.856-2.856-6.557-4.421 0 0-3.83-1.62-8.028-1.62Z" fill="#009CD7"/></svg>