<svg width="80" height="80" fill="none" xmlns="http://www.w3.org/2000/svg"><path d="M0 37.813c.385-.873 1.058-1.165 2-1.159 5.258.027 10.519.002 15.777.027.585.002.842-.17 1.069-.72.646-1.559 1.39-3.076 2.096-4.609.093-.204.198-.404.352-.715h-3.502c-1.72 0-3.438.003-5.155 0-1.26-.002-2.004-.595-1.987-1.577.017-.973.765-1.545 2.033-1.547 3.359-.003 6.717-.013 10.075.01.517.004.842-.156 1.173-.558 4.471-5.442 10.107-9.059 16.957-10.755.197-.047.387-.127.627-.208 0-1.183.033-2.354-.03-3.519-.01-.216-.366-.5-.623-.604-3.8-1.55-4.58-6.469-1.425-9.073 1.028-.848 2.228-1.212 3.544-1.212 3.619-.002 7.238-.013 10.856.004 2.81.012 4.938 1.773 5.421 4.44.465 2.572-.962 4.929-3.593 5.935-.098.037-.194.077-.321.127v3.813c1.825.633 3.669 1.118 5.383 1.891 10.84 4.873 17.15 13.23 18.988 24.967.1.64.187 1.279.279 1.92v4.376c-.259 1.558-.46 3.129-.788 4.673-.762 3.595-2.173 6.937-4.144 10.04-.583.918-1.462 1.187-2.252.707-.806-.49-.977-1.429-.377-2.379 2.344-3.714 3.821-7.75 4.23-12.116.845-9.052-1.788-16.98-8.29-23.377C54.375 12.829 31.14 16.93 22.75 34.692c-7.91 16.743 1.883 36.368 20.18 39.99 7.272 1.439 14.12.193 20.472-3.667 1.281-.78 2.167-.728 2.715.185.523.869.168 1.706-1.038 2.458-16.483 10.277-38.477 3.167-45.81-14.825-.242-.596-.517-.82-1.177-.814-3.202.037-6.404.019-9.609.014-.337 0-.68 0-1.01-.06-.72-.133-1.225-.781-1.219-1.51.004-.698.48-1.325 1.167-1.476.327-.07.67-.075 1.008-.075 2.838-.006 5.677-.004 8.515-.004h.887l-.966-6.006h-.757c-1.952 0-3.906.004-5.858-.002-1.085-.004-1.783-.602-1.806-1.52-.025-.947.696-1.595 1.808-1.599 2.183-.008 4.369-.002 6.563-.002l.768-5.99h-.887c-4.817 0-9.634-.016-14.45.013C1.292 39.81.52 39.587 0 38.75v-.938ZM48.44 9.091c1.741 0 3.483.006 5.227-.007.36-.002.735-.018 1.075-.125.98-.306 1.608-1.323 1.468-2.304-.164-1.168-1.052-1.929-2.358-1.933-3.614-.017-7.23-.017-10.842 0-1.437.006-2.402.93-2.391 2.217.01 1.293.962 2.141 2.44 2.15 1.793.008 3.587 0 5.38.002Zm3.708 3.179H44.69v3.114h7.458v-3.114ZM0 55.938c.108-.136.217-.271.327-.405.613-.74 1.667-.812 2.325-.16.65.642.619 1.67-.069 2.27-.691.605-1.754.467-2.304-.306-.104-.145-.185-.308-.277-.462C0 56.562 0 56.25 0 55.937Z" fill="#009CD7"/><path d="M48.438 22.608c13.387 0 24.237 10.86 24.229 24.246-.009 13.367-10.92 24.258-24.267 24.227-13.337-.031-24.183-10.894-24.19-24.227-.006-13.387 10.844-24.246 24.227-24.246Zm-.038 3.125c-11.675.04-21.081 9.48-21.065 21.14.017 11.63 9.525 21.11 21.144 21.083 11.638-.029 21.092-9.527 21.065-21.16-.03-11.663-9.506-21.102-21.144-21.063ZM68.11 68.013a1.52 1.52 0 0 1 1.56-1.505c.85.009 1.549.702 1.549 1.538.002.866-.742 1.575-1.621 1.546a1.526 1.526 0 0 1-1.488-1.58Z" fill="#009CD7"/><path d="M43.563 46.608c.075-.341.12-.873.314-1.343.196-.475.073-.744-.269-1.07a115.79 115.79 0 0 1-2.82-2.812c-.771-.785-.825-1.677-.17-2.348.64-.654 1.597-.618 2.355.123.987.965 1.937 1.967 2.944 2.91.187.176.598.274.841.199 1.109-.344 2.213-.402 3.292.012.456.175.698.052 1-.254 2.33-2.348 4.663-4.69 7.02-7.008.318-.31.753-.584 1.178-.682.67-.154 1.23.175 1.546.792.329.644.246 1.277-.259 1.802-.793.827-1.61 1.63-2.42 2.44-1.582 1.583-3.153 3.183-4.76 4.74-.41.393-.492.7-.317 1.262.614 1.975.137 3.731-1.415 5.094-1.525 1.337-3.306 1.62-5.167.777-1.885-.852-2.794-2.402-2.894-4.634Zm4.852-1.48a1.7 1.7 0 0 0-1.696 1.751 1.743 1.743 0 0 0 1.702 1.688c.941.01 1.735-.784 1.735-1.734a1.7 1.7 0 0 0-1.741-1.706ZM50.006 30.877c-.002.258.015.519-.004.777-.062.821-.65 1.417-1.435 1.469-.81.054-1.544-.496-1.642-1.33a8.423 8.423 0 0 1-.004-1.86c.09-.84.798-1.387 1.62-1.35.822.038 1.411.644 1.463 1.517.017.258.002.519.002.777ZM64.448 45.302c.233 0 .467-.01.7.002.887.046 1.54.686 1.558 1.517a1.56 1.56 0 0 1-1.419 1.579 9.663 9.663 0 0 1-1.629.01c-.935-.064-1.537-.747-1.498-1.641.038-.852.66-1.43 1.59-1.467.231-.008.465 0 .698 0ZM46.867 62.8c0-.233-.01-.467.002-.698.046-.894.673-1.54 1.508-1.564.833-.023 1.525.595 1.596 1.48.042.515.037 1.038.004 1.553-.06.89-.73 1.529-1.556 1.529-.856.002-1.513-.673-1.554-1.602-.009-.231 0-.465 0-.698ZM32.52 45.25c.286.013.576.006.857.042.756.096 1.283.658 1.333 1.395.055.794-.39 1.488-1.164 1.607a8.183 8.183 0 0 1-2.019.04c-.819-.08-1.375-.776-1.36-1.55.016-.813.625-1.436 1.493-1.507.284-.023.573-.004.859-.004.002-.006.002-.015.002-.023Z" fill="#009CD7"/></svg>