<svg width="60" height="73" fill="none" xmlns="http://www.w3.org/2000/svg"><path d="M34.314 67.21c0 .83-.135 1.54-.406 2.127-.27.579-.653 1.022-1.148 1.33-.494.299-1.082.448-1.764.448-.634 0-1.19-.13-1.666-.392a2.932 2.932 0 0 1-1.134-1.176c-.28-.522-.443-1.162-.49-1.918h-1.904v3.346H24.57v-7.504h1.232v3.122h1.918c.066-.71.238-1.302.518-1.778a2.93 2.93 0 0 1 1.134-1.106c.476-.252 1.027-.378 1.652-.378.644 0 1.214.154 1.708.462.495.299.882.738 1.162 1.316.28.57.42 1.27.42 2.1Zm-5.348 0c0 .625.07 1.152.21 1.581.15.43.374.756.672.98.299.215.686.322 1.162.322.476 0 .864-.107 1.162-.322.299-.224.518-.55.658-.98.14-.43.21-.956.21-1.582 0-.625-.07-1.148-.21-1.568-.14-.42-.359-.737-.658-.952-.298-.214-.686-.322-1.162-.322-.476 0-.863.108-1.162.322-.298.215-.522.532-.672.952-.14.42-.21.943-.21 1.568ZM2.914 34.492c.57 0 1.064.08 1.484.238.42.15.747.373.98.672.234.29.35.644.35 1.064 0 .457-.126.821-.378 1.092-.252.261-.597.453-1.036.574v.056c.299.084.574.2.826.35.252.15.453.345.602.588.159.242.238.555.238.938 0 .41-.116.784-.35 1.12-.224.336-.574.602-1.05.798-.466.196-1.068.294-1.806.294a9.01 9.01 0 0 1-1.022-.056 5.501 5.501 0 0 1-.868-.168 3.734 3.734 0 0 1-.672-.266V40.68c.318.15.69.285 1.12.406.439.121.915.182 1.428.182.374 0 .71-.042 1.008-.126.308-.084.55-.215.728-.392.178-.187.266-.439.266-.756 0-.29-.08-.523-.238-.7-.158-.187-.396-.327-.714-.42-.308-.093-.704-.14-1.19-.14H1.612v-1.008h.812c.644 0 1.158-.084 1.54-.252.392-.177.588-.476.588-.896 0-.355-.15-.62-.448-.798-.29-.178-.71-.266-1.26-.266-.41 0-.774.042-1.092.126a6.658 6.658 0 0 0-1.022.35l-.434-.98a5.812 5.812 0 0 1 1.26-.392 7.206 7.206 0 0 1 1.358-.126ZM59.1 36.522c0 .467-.14.83-.42 1.092-.28.261-.64.439-1.078.532v.056c.467.065.873.233 1.218.504.345.261.518.672.518 1.232 0 .317-.06.611-.182.882-.112.27-.29.504-.532.7-.243.196-.555.35-.938.462-.383.102-.845.154-1.386.154h-3.234v-7.504h3.22c.532 0 1.008.06 1.428.182.43.112.765.308 1.008.588.252.27.378.644.378 1.12Zm-1.036 3.416c0-.43-.163-.738-.49-.924-.327-.187-.807-.28-1.442-.28h-1.834v2.408h1.862c.616 0 1.087-.089 1.414-.266.327-.187.49-.5.49-.938Zm-.21-3.262c0-.355-.13-.611-.392-.77-.252-.168-.667-.252-1.246-.252h-1.918v2.058h1.694c.607 0 1.069-.084 1.386-.252.317-.168.476-.43.476-.784Z" fill="#8C94B0"/><path d="M46.914 38.753c0 9.675-7.912 17.525-17.681 17.525-9.77 0-17.682-7.85-17.682-17.525 0-9.675 7.912-17.525 17.682-17.525s17.681 7.85 17.681 17.525Z" stroke="#BEC2CF"/><path d="M31.487 15.412c-.56.448-1.26.672-2.1.672-.7 0-1.302-.154-1.82-.462a3.007 3.007 0 0 1-1.218-1.288c-.294-.56-.434-1.19-.434-1.918 0-.714.14-1.344.434-1.904a3.208 3.208 0 0 1 1.246-1.274c.532-.308 1.134-.462 1.834-.462.84 0 1.526.224 2.072.672.546.448.896 1.064 1.036 1.848h-1.162a1.981 1.981 0 0 0-.7-1.092 2.109 2.109 0 0 0-1.288-.406c-.686 0-1.246.252-1.666.728-.42.49-.63 1.12-.63 1.89 0 .784.21 1.428.63 1.918.42.49.98.728 1.666.728.518 0 .952-.126 1.316-.406.35-.266.574-.644.686-1.12h1.148c-.154.798-.504 1.428-1.05 1.876Z" fill="#008AA3"/><path d="M25.595 38.753h7.273l-3.636 10.815-3.637-10.815Z" stroke="#BEC2CF" stroke-linecap="round" stroke-linejoin="round"/><path d="M32.868 38.753h-7.272l3.636-10.815 3.636 10.815Z" stroke="#008AA3" stroke-linecap="round" stroke-linejoin="round"/></svg>