<svg width="90" height="90" fill="none" xmlns="http://www.w3.org/2000/svg"><g clip-path="url(#a)"><path d="M90 64.21c-.325.58-.624 1.174-.978 1.737-1.015 1.612-2.472 2.065-4.223 1.34-.103-.042-.206-.077-.406-.152v1.009c0 4.445.004 8.888.002 13.333 0 1.859-.866 2.718-2.736 2.72-8.128.004-16.257.007-24.385.007-2.026 0-2.865-.842-2.867-2.879-.005-4.357-.005-8.714-.005-13.07v-1.019c-.15.016-.26.005-.35.04-1.509.593-2.845.455-3.704-.58-1.468-1.771-1.916-2.927-1.18-4.614.191-.438.563-.818.916-1.158 1.242-1.198 2.536-2.343 3.749-3.567.303-.305.523-.83.538-1.263.062-1.723.024-3.45.024-5.175 0-2.764.631-3.53 3.367-4.003l-.572-1.03c-1.49.336-2.917.738-4.374.97-3.78.605-7.456.152-10.978-1.355-.582-.248-.92-.154-1.353.283-4.45 4.483-8.937 8.928-13.373 13.424-.885.896-1.835 1.494-3.094 1.619-.696.068-1.382.226-2.072.352-1.496.272-1.496.274-1.749 1.777-.125.75-.248 1.499-.378 2.246-.246 1.426-.896 2.096-2.316 2.357-1.035.192-2.067.383-3.109.53-.54.077-.808.296-.88.866-.148 1.129-.363 2.247-.552 3.37-.339 2.02-2.21 3.637-4.263 3.683-1.93.044-3.858.105-5.788.127-1.801.022-2.757-.947-2.73-2.764.028-2.076.026-4.155.173-6.225.046-.665.367-1.45.826-1.929 2.468-2.575 5.014-5.073 7.543-7.59.75-.744 1.5-.8 2.066-.197.53.562.452 1.298-.255 2.01-2.371 2.385-4.768 4.744-7.117 7.15a2.097 2.097 0 0 0-.545 1.281c-.06 1.84-.026 3.68-.026 5.62.204.014.452.047.7.045 1.55-.016 3.099-.037 4.65-.064 1.336-.022 2.076-.668 2.3-1.988.19-1.123.378-2.246.565-3.371.257-1.538.954-2.226 2.512-2.487.98-.165 1.953-.376 2.937-.49.565-.066.804-.275.873-.85.125-1.042.345-2.075.516-3.112.209-1.263.9-2.061 2.186-2.294 1.15-.209 2.294-.453 3.452-.598.712-.087 1.235-.377 1.736-.88a3464.54 3464.54 0 0 1 12.713-12.718c.227-.227.506-.398.877-.688-2.692-1.732-4.772-3.788-6.434-6.392-.283.261-.514.46-.729.672L17.06 52.912c-.227.227-.453.462-.706.657-.571.442-1.166.411-1.665-.083-.497-.494-.517-1.097-.108-1.672.185-.26.426-.48.653-.708 5.086-5.087 10.166-10.18 15.27-15.244.469-.464.537-.816.29-1.426-4.284-10.629.451-22.224 10.932-26.836 9.694-4.267 21.659.112 26.334 9.605 2.114 4.29 2.75 8.756 1.833 13.454-.081.421-.011.947.173 1.338 2.061 4.396 3.292 8.975 3.266 13.864-.003.345.237.772.496 1.022 2.002 1.927 4.037 3.817 6.056 5.724.233.22.589.45.622.71.061.498.079 1.107-.156 1.511-.301.514-.928.585-1.48.249-.294-.18-.56-.422-.812-.66-2.584-2.416-5.16-4.842-7.741-7.26-.872-.817-.96-.812-1.855.025-1.296 1.215-2.59 2.432-3.959 3.715.422.255.758.46.958.583.795-.662 1.441-1.406 2.252-1.835 1.945-1.028 4.294-.187 5.296 1.764a4.054 4.054 0 0 1-1.6 5.395c-1.9 1.074-4.39.505-5.42-1.409-.469-.868-1.04-1.382-1.908-1.738-.527-.215-.984-.604-1.485-.925-.257.224-.446.497-.701.587-.464.167-1.077.446-1.424.272-.391-.195-.688-.813-.787-1.296-.131-.646-.052-1.338-.026-2.01.02-.486-.165-.658-.655-.686-2.008-.117-2.008-.13-2.008 1.865 0 1.813-.015 3.626.01 5.439.012.727-.236 1.283-.77 1.773a327.079 327.079 0 0 0-4.41 4.146c-.539.514-.13 2.054.602 2.206.204.042.5-.119.683-.272.492-.411.95-.866 1.417-1.31.464-.44.947-.804 1.637-.514.712.299.84.899.84 1.584-.005 5.293 0 10.584.002 15.878v1.162h7.132V80.54c0-3.654-.004-7.31.002-10.965.005-2.298 1.026-3.32 3.31-3.33 1.667-.007 3.333-.014 5 .002 2.119.02 3.178 1.083 3.18 3.194.007 4.004.002 8.007.002 12.083h6.194v-1.063l-.013-15.438c0-.264-.084-.567.02-.78.226-.466.457-1.08.855-1.266.349-.163 1.008.06 1.395.316.602.398 1.094.963 1.621 1.47.453.438.794.348 1.136-.149.754-1.092.747-1.241-.252-2.184-.66-.622-1.334-1.228-1.973-1.87-.602-.604-.646-1.347-.16-1.879.502-.549 1.227-.582 1.876-.002.958.857 1.911 1.727 2.794 2.659.383.402.59.973.877 1.468-.002.468-.002.936-.002 1.404ZM53.848 27.39c-.193-.086-.37-.171-.553-.246-3.33-1.373-5.256-4.97-4.452-8.319.89-3.705 4.065-6.014 7.827-5.689 3.667.317 6.42 3.283 6.578 7.089.143 3.438-2.533 6.732-5.974 7.27-.602.095-.927.308-.947.884-.073 1.975-.283 3.961-.14 5.921.202 2.771 1.058 5.414 2.166 7.974 7.301-3.634 11.949-13.495 7.95-22.753C62.087 9.765 50.987 5.814 41.5 10.558c-8.8 4.401-12.336 15.829-7.63 24.453 5.116 9.376 15.903 11.125 22.083 8.313-1.977-5.127-3.263-10.352-2.105-15.935Zm19.198 54.176c0-4.131.009-8.187-.03-12.241-.003-.178-.438-.497-.678-.506-1.575-.046-3.155.011-4.73-.04-.739-.023-.94.231-.936.95.03 3.68.013 7.36.017 11.041 0 .253.031.508.05.793 2.097.003 4.132.003 6.307.003ZM62.576 49.17c1.34-1.256 2.67-2.44 3.922-3.698 1.169-1.173 2.441-1.867 4.217-1.241-.185-3.245-.94-6.23-2.171-9.294-2.015 4.346-5.05 7.519-9.092 9.81.775 1.174 1.472 2.252 2.195 3.31.261.375.588.707.929 1.113Zm-2.345-26.88c.928-2.18.346-4.428-1.513-5.747-1.591-1.13-3.316-1.25-5.028-.294-1.705.953-2.55 2.478-2.415 4.42.137 1.939 1.172 3.323 2.986 4.059.229.092.701.057.81-.097 1.25-1.797 2.952-2.573 5.16-2.342Zm8.473 32.22c1.127.551 2.033.024 2.118-1.24-.705.414-1.413.827-2.118 1.24Z" fill="#009CD7"/></g><defs><clipPath id="a"><path fill="#fff" d="M0 0h90v90H0z"/></clipPath></defs></svg>