<svg width="100" height="100" fill="none" xmlns="http://www.w3.org/2000/svg"><g clip-path="url(#a)"><path d="M100 71.096c-.758 1.615-2.058 2.097-3.792 2.086-9.503-.05-19.008-.023-28.51-.026-.423 0-.852.003-1.264-.07-.734-.128-1.15-.623-1.18-1.349-.03-.776.378-1.31 1.152-1.471.408-.086.838-.081 1.26-.081 9.372-.005 18.747-.003 28.12-.003h1.213v-2.385H57.078v2.385c1.145 0 2.278-.06 3.398.026.505.04 1.12.243 1.458.591.776.8.255 2.196-.885 2.271a30.03 30.03 0 0 1-4.865-.057c-1.195-.115-2.028-1.234-2.096-2.482-.05-.909-.037-1.823-.023-2.734.028-1.893 1.041-2.94 2.934-3.057.354-.021.711-.003 1.222-.003 0-.99-.005-1.914 0-2.841.015-2.068 1.075-3.26 3.125-3.084 1.914.165 3.185-.539 4.463-1.887 3.224-3.399 6.604-6.652 9.904-9.98.224-.226.437-.588.437-.888.021-5.11.01-10.221.003-15.33 0-.06-.04-.118-.083-.24H60.929c0 2.245.003 4.45 0 6.656-.003 2.953-1.49 4.443-4.435 4.443-3.385 0-6.77.003-10.154 0-2.885-.003-4.356-1.49-4.359-4.401-.003-2.208 0-4.414 0-6.69H33.82c.58 19.34 1.164 38.68 1.75 58.17.9 0 1.763-.004 2.627 0 3.344.012 5.547 2.215 5.563 5.57.005 1.137.018 2.278-.005 3.416-.024 1.02-.558 1.578-1.579 1.58-5.825.016-11.65.014-17.476 0-.971-.002-1.615-.632-1.607-1.468.008-.86.682-1.46 1.727-1.464 4.948-.01 9.893-.005 14.84-.005h1.136c0-.948.073-1.825-.018-2.682-.13-1.221-1.128-2.003-2.48-2.008-3.35-.013-6.705-.005-10.057-.005-2.7 0-5.403-.008-8.104.003-1.703.007-2.58.872-2.622 2.572-.018.675-.003 1.35-.003 2.125.456 0 .808-.023 1.154.006.901.073 1.482.682 1.461 1.507-.018.787-.586 1.376-1.443 1.412-.877.036-1.758.029-2.635.005-.883-.023-1.445-.513-1.461-1.383-.034-1.625-.089-3.265.091-4.872.263-2.341 2.474-4.208 4.857-4.302.515-.021 1.034-.003 1.638-.003.583-19.435 1.164-38.778 1.745-58.185h-9.287c-.073.365-.12.716-.216 1.052-.406 1.41-1.625 2.435-3.161 2.48-2.308.065-4.62.047-6.93.007C1.6 33.995.7 32.825.002 31.437V19.13c.656-1.526 1.672-2.646 3.456-2.685 2.21-.05 4.427-.047 6.638 0 1.575.034 2.942 1.006 3.252 2.474.196.927.623 1.024 1.388.99 1.138-.05 2.279-.013 3.417-.013h5.341c.18-2.018.354-3.959.524-5.896.338-3.89.669-7.779 1.007-11.67.066-.741.373-1.473 1.141-1.497 1.768-.054 3.56-.388 5.3.305C46.17 6.979 60.885 12.797 75.576 18.667c1.954.78 3.868 1.455 6.021 1.265.459-.039 1.12.269 1.417.636a212.979 212.979 0 0 1 5.753 7.395c.289.391.395 1.188.19 1.6-.206.414-.878.74-1.394.83-.789.136-1.622.04-2.434.04h-5.951c-.031.226-.065.348-.065.473-.003 5.078-.016 10.157.018 15.232.003.36.247.797.513 1.065 3.274 3.31 6.623 6.544 9.834 9.912 1.164 1.218 2.315 1.838 4.046 1.703 2.068-.16 3.125 1.002 3.141 3.067.008.928.003 1.857.003 2.852 1.69-.086 2.672.75 3.333 2.065-.003 1.43-.003 2.862-.003 4.294ZM13.626 27.41h71.018c-1.05-1.354-2.031-2.563-2.945-3.823-.404-.557-.839-.763-1.534-.76-9.992.023-19.984.018-29.976.015-.357 0-.727.034-1.07-.039-.798-.17-1.282-.69-1.233-1.515.047-.813.537-1.305 1.375-1.378.323-.029.651-.016.977-.016H70.192c.01-.067.02-.135.034-.203C57.484 14.63 44.739 9.57 31.874 4.46c.461 5.238.907 10.308 1.354 15.433h1.185c2.961 0 5.925-.008 8.886.008.976.005 1.614.612 1.617 1.45.003.84-.635 1.433-1.604 1.485-.292.016-.586.005-.878.005H13.632c-.005 1.591-.005 3.07-.005 4.568Zm31.297 3.073c0 2.448-.013 4.843.008 7.24.005.7.484.932 1.12.932 3.575 0 7.15-.006 10.729.005.875.002 1.229-.427 1.21-1.268-.018-.844-.002-1.69-.002-2.537v-4.372H44.924Zm16.294 34.161h32.435v-2.867H61.218v2.867Zm-50.62-39.362c0-1.627-.023-3.255.01-4.883.016-.768-.301-1.036-1.044-1.026-1.854.026-3.71.029-5.565 0-.81-.013-1.078.323-1.073 1.112.03 3.19.026 6.38.003 9.568-.005.735.227 1.07 1.008 1.057 1.888-.03 3.776-.034 5.661.003.782.016 1.026-.307 1.01-1.047-.03-1.594-.01-3.187-.01-4.784Zm15.175 47.597c2.172 1.573 4.252 3.08 6.508 4.71-.125-4.192-.245-8.124-.362-12.06-.076-.015-.149-.028-.224-.044-1.946 2.43-3.888 4.857-5.922 7.394Zm4.484-53.026c-.474-5.425-.943-10.758-1.414-16.146l-.969.047-1.393 16.099h3.776Zm.211 60.07c-1.984-1.435-3.883-2.81-5.966-4.315l-.336 11.862.211.06c2.005-2.506 4.008-5.008 6.091-7.607ZM76.093 58.74v-7.506c-2.474 2.435-5.068 4.993-7.622 7.506h7.622Zm3.068-.053h7.375c-2.427-2.445-4.925-4.958-7.375-7.424v7.425Zm-54.133-.333c-.11 3.771-.208 7.294-.31 10.815.068.019.136.037.203.052l5.547-6.932c-1.83-1.32-3.555-2.568-5.44-3.935Zm1.206-2.776c1.815 1.318 3.56 2.58 5.494 3.987-.109-3.776-.213-7.289-.315-10.8a6.233 6.233 0 0 0-.203-.06l-4.976 6.873Zm-.813-3.914c1.505-2.078 3.003-4.143 4.544-6.276l-4.544-3.289v9.565Zm5.636-17.68-.316-.062c-1.354 1.794-2.705 3.591-4.093 5.43l4.409 3.182v-8.55Zm1.372 54.664v-6.466l-5.154 6.466h5.154Zm-6.57-53.145 3.77-5.021h-3.77v5.02Z" fill="#009CD7"/></g><defs><clipPath id="a"><path fill="#fff" d="M0 0h100v100H0z"/></clipPath></defs></svg>