<svg width="80" height="80" fill="none" xmlns="http://www.w3.org/2000/svg"><g clip-path="url(#a)" fill="#009CD7"><path d="M0 74.375c.8-2.083 1.592-4.167 2.402-6.245.364-.935 1.062-1.377 1.842-1.213 1.015.214 1.501 1.174 1.097 2.25-.641 1.703-1.316 3.392-1.97 5.09-.608 1.576.107 2.615 1.806 2.616 3.618.004 7.237.011 10.856-.015.347-.003.786-.138 1.023-.374 4.475-4.434 8.927-8.893 13.381-13.348.074-.074.135-.156.257-.299-.146-.198-.288-.404-.44-.603-3.682-4.72-7.37-9.436-11.038-14.167-.322-.415-.66-.583-1.18-.56-.91.04-1.822.009-2.733.013-1.169.005-1.61.308-2.048 1.422-.94 2.395-1.864 4.797-2.82 7.186-.15.375-.365.769-.66 1.03-.545.483-1.197.48-1.803.076-.647-.43-.81-1.072-.603-1.786.151-.521.386-1.02.583-1.53.784-2.009 1.565-4.02 2.351-6.027.96-2.455 2.486-3.493 5.133-3.497h.906c-.148-.272-.239-.464-.353-.644C5.995 27.881 13.555 7.047 31.425 1.352 33.341.74 35.385.532 37.37.136c.2-.04.399-.09.599-.136h4.062c1.152.177 2.313.308 3.453.537 19.672 3.943 29.22 26.218 18.529 43.205-.116.183-.211.378-.35.628.262.011.415.024.57.025 3.181.036 4.456.93 5.622 3.922C73.235 57.002 76.617 65.69 80 74.375v1.563c-.547 2.16-1.886 3.53-4.063 4.062H4.064c-.525-.203-1.074-.358-1.57-.617C1.1 78.655.394 77.403 0 75.938v-1.563Zm39.984-4.75c.218-.263.368-.438.508-.617 6.469-8.29 12.949-16.57 19.399-24.874 4.178-5.38 5.965-11.486 5.29-18.267C63.684 10.797 49.148.37 34.395 3.755 16.298 7.906 8.633 29.427 20.04 44.059c4.528 5.81 9.058 11.618 13.588 17.425 2.096 2.686 4.193 5.37 6.357 8.141Zm-7.19-4.127L21.438 76.875h.426c17.681 0 35.364.002 53.045-.002 1.58 0 2.314-1.08 1.74-2.559-1.847-4.748-3.715-9.489-5.543-14.245-.214-.558-.492-.716-1.075-.714-5.65.023-11.301.034-16.953-.008-.822-.006-1.31.253-1.8.892-3.189 4.149-6.422 8.263-9.639 12.39-.064.082-.13.162-.195.243-.952 1.176-1.958 1.186-2.886.005-1.942-2.477-3.877-4.961-5.764-7.379Zm36.79-9.296c-1.03-2.625-2.012-5.163-3.028-7.688-.281-.702-.892-.986-1.628-.99-.989-.008-1.978.024-2.964-.015-.519-.02-.858.141-1.175.56-1.336 1.76-2.708 3.493-4.067 5.236l-2.261 2.897h15.123Z"/><path d="M6.372 60.64c.822-.018 1.55.663 1.589 1.49.042.86-.66 1.604-1.525 1.622a1.563 1.563 0 0 1-1.588-1.48c-.039-.855.668-1.611 1.524-1.631ZM39.964 43.737h-13.82c-1.56 0-2.081-.51-2.081-2.039-.002-8.198-.002-16.396 0-24.595 0-1.539.52-2.06 2.064-2.062 2.993-.004 5.985.003 8.98-.002 1.629-.003 3.13.39 4.493 1.319.186.126.605.133.788.008 1.384-.946 2.91-1.335 4.568-1.329 2.967.011 5.935 0 8.902.005 1.547.002 2.08.53 2.08 2.053v24.596c0 1.53-.527 2.05-2.074 2.05-4.634-.002-9.267-.004-13.9-.004Zm-12.736-8.912c1.43 0 2.805-.04 4.178.01 2.325.08 4.69-.362 7.03.587v-14.66c0-1.48-.327-1.957-1.761-2.376-.516-.15-1.075-.206-1.616-.211-2.343-.022-4.687-.01-7.03-.008-.254 0-.507.022-.8.036v16.622Zm25.54-16.598c-2.962 0-5.871-.036-8.779.03-.581.012-1.169.38-1.726.641-.544.254-.722.697-.718 1.33.03 4.79.016 9.583.016 14.374v.867c1.856-.888 3.725-.613 5.56-.64 1.868-.026 3.737-.006 5.646-.006.002-5.562.002-11.046.002-16.596ZM38.367 40.569c.178-1.364.072-1.67-1.096-2.177a5.27 5.27 0 0 0-1.95-.423c-2.47-.049-4.943-.02-7.414-.017-.223 0-.447.03-.653.045v2.572h11.113Zm3.236-.014h11.17v-2.568c-2.997 0-5.958-.087-8.911.035-1.653.069-2.37 1.026-2.26 2.533Z"/></g><defs><clipPath id="a"><path fill="#fff" d="M0 0h80v80H0z"/></clipPath></defs></svg>