<svg width="32" height="32" fill="none" xmlns="http://www.w3.org/2000/svg"><path d="m18.136 8.504 7 12a1 1 0 0 0 1.728-1.008L20.74 9H24c.414 0 .707.293.707.293C25 9.586 25 10 25 10a1 1 0 1 0 2 0c0-1.243-.879-2.121-.879-2.121C25.243 7 24 7 24 7h-5a1 1 0 0 0-.864 1.504Z" fill="#009CD7"/><path fill-rule="evenodd" clip-rule="evenodd" d="M26 14s2.485 0 4.243 1.757c0 0 1.757 1.758 1.757 4.243 0 0 0 2.485-1.757 4.243 0 0-1.758 1.757-4.243 1.757 0 0-2.485 0-4.243-1.757 0 0-1.757-1.758-1.757-4.243 0 0 0-2.485 1.757-4.243 0 0 1.758-1.757 4.243-1.757Zm0 2s-1.657 0-2.828 1.172c0 0-1.172 1.171-1.172 2.828 0 0 0 1.657 1.172 2.828 0 0 1.171 1.172 2.828 1.172 0 0 1.657 0 2.828-1.172 0 0 1.172-1.171 1.172-2.828 0 0 0-1.657-1.172-2.828 0 0-1.171-1.172-2.828-1.172ZM6 14s2.485 0 4.243 1.757c0 0 1.757 1.758 1.757 4.243 0 0 0 2.485-1.757 4.243 0 0-1.758 1.757-4.243 1.757 0 0-2.485 0-4.243-1.757C1.757 24.243 0 22.485 0 20c0 0 0-2.485 1.757-4.243C1.757 15.757 3.515 14 6 14Zm0 2s-1.657 0-2.828 1.172C3.172 17.172 2 18.343 2 20c0 0 0 1.657 1.172 2.828C3.172 22.828 4.343 24 6 24c0 0 1.657 0 2.828-1.172 0 0 1.172-1.171 1.172-2.828 0 0 0-1.657-1.172-2.828C8.828 17.172 7.657 16 6 16Z" fill="#009CD7"/><path d="m8.926 9 6.71 11.504a1 1 0 0 0 1.728-1.008l-7-12A1 1 0 0 0 9.5 7H6a1 1 0 0 0 0 2h2.926Z" fill="#009CD7"/><path d="m11.03 11.41-5.838 8A1 1 0 0 0 6 21h.01a1.002 1.002 0 0 0 .798-.41L12.346 13h8.916a1 1 0 1 0 0-2h-9.425a1 1 0 0 0-.807.41Z" fill="#009CD7"/></svg>