<svg width="64" height="64" fill="none" xmlns="http://www.w3.org/2000/svg"><circle cx="32" cy="32" r="32" fill="url(#a)"/><g clip-path="url(#b)"><path d="M18.934 17 32 24.017 45.066 17 59 24.483v15.034L45.066 47 32 39.983 18.934 47 5 39.517V24.483L18.934 17Zm11.27 7.982-11.27-6.053-11.27 6.053 11.27 6.053 11.27-6.053Zm27.06.498-11.331-6.085v12.106l11.33 6.085V25.481ZM45.065 45.07l11.27-6.052-11.27-6.053-11.27 6.053 11.27 6.053Zm-25.263-.465 18.597-9.99 5.797-3.114V19.395L19.803 32.5v12.106ZM6.736 38.518l11.33 6.087V32.499l-11.33-6.085v12.104Z" fill="#fff"/></g><defs><linearGradient id="a" x1="32" y1="0" x2="32" y2="64" gradientUnits="userSpaceOnUse"><stop stop-color="#14B58A"/><stop offset="1" stop-color="#009CD7"/></linearGradient><clipPath id="b"><path fill="#fff" transform="translate(5 17)" d="M0 0h54v30H0z"/></clipPath></defs></svg>