<svg width="100" height="100" fill="none" xmlns="http://www.w3.org/2000/svg"><g clip-path="url(#a)" fill="#009CD7"><path d="M100 55.474c-.641 1.956-2.066 3.128-3.863 3.984-1.171.558-2.278 1.25-3.419 1.873-2.95 1.614-5.575.885-7.294-2.019-.097-.164-.203-.325-.453-.718-1.078.854-2.12 1.65-3.115 2.497-.148.128-.213.55-.12.737 2.56 5.2 1.026 8.912-4.442 10.537.018 1.692-.334 3.315-1.446 4.695-1.112 1.383-2.575 2.15-4.286 2.445-.602 5.625-2.852 7.43-8.76 7.021-.862 2.849-2.67 4.672-5.72 5.102-3.038.427-5.044-1.485-7.083-3.175-1.82 1.453-3.523 2.92-5.336 4.234-3.765 2.735-9.054.805-10.187-3.677-.18-.713-.195-1.468-.29-2.216-4.41-1.734-5.543-3.148-5.707-7.229-3.771-.854-5.745-3.227-5.782-7.2-.263-.081-.534-.172-.807-.245-4.404-1.196-6.313-6.125-3.818-9.95.354-.545.41-.912-.11-1.305-.965-.735-1.937-1.467-2.957-2.237-.342.557-.553.919-.78 1.268-1.38 2.12-3.994 2.92-6.246 1.786-1.946-.976-3.826-2.08-5.722-3.153C1.06 57.852.505 56.674.002 55.474v-1.953c1.242-2.315 2.443-4.651 3.73-6.94 3.869-6.888 7.77-13.758 11.66-20.633 1.766-3.122 4.331-3.852 7.47-2.13 1.367.75 2.731 1.508 4.096 2.268 2.823 1.573 3.62 3.52 2.653 6.737 1.573.453 3.146.911 4.724 1.344.117.03.313-.078.422-.175 2.073-1.838 4.659-2.224 7.253-2.497 3.234-.341 6.482-.56 9.718-.86 1.756-.161 3.435.13 5.079.709 2.421.851 4.825 1.758 7.268 2.536.698.224 1.536.237 2.26.094 1.357-.268 2.68-.721 3.94-1.076-.114-.942-.343-1.778-.289-2.593.11-1.698.953-3.021 2.45-3.87 1.699-.961 3.404-1.906 5.12-2.83 2.597-1.394 5.329-.631 6.805 1.905.966 1.657 1.901 3.331 2.831 5.008.662 1.19.427 2.313-.565 2.896-1.023.602-2.135.219-2.844-1.008-.893-1.55-1.763-3.112-2.648-4.664-.597-1.047-.92-1.146-1.946-.586a563.851 563.851 0 0 0-4.434 2.459c-1.008.565-1.118.89-.57 1.859 4.89 8.664 9.786 17.323 14.684 25.982.513.906.92 1.023 1.83.528a383.256 383.256 0 0 0 4.522-2.505c.979-.552 1.08-.9.539-1.872-1.032-1.844-2.081-3.677-3.112-5.524-.414-.74-.44-1.497.065-2.205.458-.641 1.135-.967 1.872-.74.516.159 1.12.508 1.373.95 1.4 2.448 2.708 4.951 4.047 7.433-.006.65-.006 1.302-.006 1.953ZM47.785 78.193c1.854 1.015 3.31 2.458 3.466 4.5.138 1.776 1.02 2.734 2.3 3.617.346.24.658.531.994.786 1.302.98 2.91.855 3.844-.289.953-1.166.77-2.742-.477-3.812-.838-.719-1.757-1.352-2.565-2.102-.38-.354-.71-.862-.836-1.36-.2-.79.151-1.484.857-1.913.818-.498 1.623-.375 2.354.208 1.782 1.417 3.55 2.854 5.339 4.263 1.349 1.063 2.948.961 3.916-.216 1-1.213.764-2.833-.601-3.94-1.591-1.292-3.198-2.565-4.802-3.841-1.469-1.17-1.771-2.237-.914-3.268.823-.993 1.911-.93 3.328.195 1.68 1.336 3.354 2.682 5.042 4.01.838.66 1.778.784 2.752.357.945-.411 1.472-1.172 1.558-2.193.09-1.067-.417-1.862-1.237-2.507-1.66-1.31-3.32-2.62-4.948-3.97-.787-.65-.946-1.544-.534-2.369.393-.792 1.252-1.258 2.11-1.034.421.11.83.367 1.181.64 1.641 1.282 3.248 2.608 4.894 3.883.937.727 1.979.782 3.018.209.937-.518 1.541-1.596 1.229-2.635-.216-.725-.706-1.485-1.289-1.962-3.5-2.861-7.023-5.7-10.617-8.442-3.31-2.524-6.693-4.95-10.094-7.352-2.607-1.84-5.52-2.536-8.703-1.979-1.151.2-2.31.383-3.474.498-5.461.53-10.466-1.987-11.518-7.774-.037-.2-.26-.464-.453-.52-1.76-.542-3.532-1.048-5.328-1.571-3.602 6.372-7.16 12.672-10.633 18.82 1.645 1.287 3.171 2.48 4.75 3.711 1.62-1.294 3.325-2.7 5.078-4.041 3.643-2.787 8.664-1.32 10.265 2.966.079.208.154.414.23.622 6.18-2.185 11.474 4.219 8.039 9.971 4.166 2.63 4.351 6.615 2.479 9.834Zm24.656-41.847c-1.797.506-3.484.974-5.167 1.459-1.52.437-2.997.356-4.492-.198-2.372-.886-4.758-1.748-7.172-2.516-1.036-.33-2.166-.612-3.234-.55-3.44.196-6.878.506-10.302.889-1.341.15-2.662.562-3.959.958-.786.24-1.054.865-.833 1.714.524 2 1.766 3.291 3.73 3.882 1.692.51 3.421.466 5.117.086 5.174-1.161 9.867-.164 14.111 3.005 4.066 3.037 8.146 6.05 12.193 9.112 2.037 1.542 4.013 3.167 5.87 4.641l4.76-3.687c-3.497-6.188-7.041-12.461-10.622-18.795ZM10.25 58.367c.292-.3.67-.557.873-.914 4.924-8.677 9.823-17.364 14.742-26.044.458-.807.27-1.328-.51-1.75-1.542-.836-3.068-1.703-4.61-2.54-.937-.507-1.291-.408-1.818.519-4.916 8.68-9.82 17.367-14.742 26.044-.453.8-.281 1.331.503 1.758 1.542.836 3.07 1.7 4.61 2.542.25.135.53.216.952.385Zm32.222 6.67c-.029-1.537-.503-2.35-1.456-2.829-.992-.5-1.971-.395-2.839.292-3.515 2.79-7.03 5.576-10.515 8.401-1.214.984-1.35 2.61-.427 3.742.924 1.138 2.51 1.344 3.747.37 3.503-2.753 6.992-5.52 10.427-8.354.57-.469.852-1.29 1.063-1.623Zm2.552 9.778c-.032-1.502-.48-2.323-1.433-2.815-1.028-.531-2.026-.396-2.919.313-2.419 1.914-4.838 3.828-7.229 5.78-1.219.998-1.377 2.571-.464 3.733.91 1.153 2.495 1.382 3.735.421 2.463-1.911 4.906-3.849 7.292-5.856.546-.461.815-1.25 1.018-1.576ZM33.684 60.112c-.221-1.198-.669-2.013-1.62-2.51-.99-.516-1.974-.435-2.835.244a402.12 402.12 0 0 0-7.375 5.904c-1.172.963-1.297 2.531-.415 3.664.886 1.135 2.532 1.373 3.743.43 2.46-1.914 4.903-3.85 7.289-5.857.541-.458.815-1.242 1.213-1.875Zm7.305 29.956c.27-.089.773-.128 1.11-.386 1.627-1.242 3.262-2.481 4.786-3.844.95-.848.896-2.4.096-3.39-.833-1.029-2.33-1.357-3.416-.57a70.734 70.734 0 0 0-4.646 3.71c-.816.704-.95 1.907-.503 2.883.466 1.019 1.297 1.5 2.573 1.597ZM48.046 12.99c0-1.563-.008-3.125.003-4.685.01-1.35.768-2.222 1.92-2.24 1.184-.018 1.976.878 1.98 2.279.009 3.09.009 6.182 0 9.273-.004 1.409-.788 2.305-1.968 2.294-1.167-.013-1.924-.916-1.932-2.33-.008-1.532-.003-3.063-.003-4.591Z"/><path d="M38.903 21.83c-.026 1.139-.46 1.769-1.315 2.087-.846.315-1.721.02-2.281-.834-.982-1.494-1.92-3.02-2.873-4.534-.729-1.156-1.468-2.304-2.18-3.47-.697-1.144-.494-2.298.487-2.91.974-.607 2.102-.286 2.826.854a884.458 884.458 0 0 1 4.883 7.764c.232.377.357.817.453 1.044ZM70.171 14.034c-.096.229-.221.706-.471 1.107a865.6 865.6 0 0 1-4.83 7.68c-.774 1.218-1.863 1.544-2.876.898-1.005-.64-1.172-1.779-.411-2.995 1.638-2.62 3.289-5.232 4.942-7.841.532-.841 1.31-1.188 2.263-.909.865.25 1.336.885 1.383 2.06ZM88.028 39.393c-.008-1.086.807-1.924 1.888-1.943 1.08-.018 1.943.797 1.977 1.865a1.954 1.954 0 0 1-1.948 2.01 1.925 1.925 0 0 1-1.917-1.932Z"/></g><defs><clipPath id="a"><path fill="#fff" d="M0 0h100v100H0z"/></clipPath></defs></svg>