<svg width="80" height="80" fill="none" xmlns="http://www.w3.org/2000/svg"><g clip-path="url(#a)" fill="#009CD7"><path d="M0 37.027c.41-.581.97-.762 1.677-.754 2.604.03 5.208.008 7.813.012 1.2.003 1.587.396 1.595 1.592.005.754.007 1.51.01 2.265 0 .05.028.1.074.254.846 0 1.723-.004 2.602 0 1.881.012 2.877 1.008 2.894 2.904.01 1.092.002 2.181.002 3.263l7.533-2.715V34.86c-.97.53-1.938.782-2.97.53-1.411-.342-2.349-1.23-2.74-2.613-.402-1.423-.032-2.694 1.043-3.706 1.877-1.769 3.78-3.506 5.675-5.254C31.6 17.919 37.996 12.025 44.385 6.125c1.92-1.77 3.815-1.8 5.736-.048a664.148 664.148 0 0 1 4.877 4.506c.69.642.781 1.292.29 1.84-.482.535-1.184.514-1.855-.1-1.67-1.531-3.325-3.077-4.991-4.613-.842-.775-1.486-.78-2.317-.012-8.227 7.594-16.454 15.192-24.68 22.787-.133.123-.272.244-.393.38-.475.537-.492 1.24-.052 1.783.417.514 1.173.65 1.762.281.263-.164.49-.385.72-.596 7.003-6.462 14.008-12.925 21.012-19.39 1.777-1.639 3.79-1.643 5.566-.003 6.852 6.32 13.703 12.643 20.555 18.964.268.248.533.498.808.738.731.637 1.523.658 2.077.062.581-.623.519-1.373-.206-2.054-1.271-1.194-2.56-2.37-3.842-3.554L57.746 16.283c-.152-.141-.315-.279-.442-.441-.387-.498-.4-1.027.017-1.494.437-.494.983-.552 1.544-.183.172.112.32.264.475.404 5.125 4.735 10.25 9.473 15.375 14.21 1.654 1.53 1.97 3.433.875 5.102-1.08 1.642-3.417 2.113-5.055 1.075-.037-.023-.095-.01-.185-.019v18.036l2.708-.925c3.323-1.138 5.804.112 6.859 3.452.014.046.058.083.09.125v1.563c-.415.827-.755 1.702-1.261 2.468-.646.977-1.769 1.306-2.783 1.78-4.478 2.08-8.936 4.202-13.417 6.277-1.506.695-3.004 1.502-4.596 1.897-3.856.96-7.769 1.692-11.652 2.548-2.127.47-4.206.727-6.383.094-6.66-1.937-13.352-3.773-20.032-5.644-1.033-.29-2.07-.564-3.191-.868 0 .933.008 1.737-.002 2.54-.023 1.78-1.05 2.81-2.82 2.826-.901.009-1.803.002-2.778.002 0 .892.002 1.692 0 2.494-.005 1.21-.375 1.592-1.577 1.596-2.655.006-5.31-.015-7.965.012-.71.003-1.217-.22-1.55-.835V37.027Zm38.769 10.79v-1.013c0-2.525.004-5.052-.002-7.577-.002-.652.158-1.202.841-1.42.815-.263 1.498.303 1.5 1.268.01 3.073.036 6.146-.016 9.219-.013.748.233 1.062.912 1.248 2.608.708 5.202 1.464 7.81 2.175 1.421.387 2.557 1.133 3.3 2.427.042.073.115.127.274.298v-.598c0-6.25.002-12.5-.005-18.75 0-.442-.041-.886-.098-1.323-.429-3.242-3.652-5.775-6.777-5.336-2.612.367-4.718 2.475-5.27 5.275-.175.884-.723 1.36-1.41 1.227-.695-.133-1.045-.691-.913-1.558.777-5.131 6.273-8.725 11.129-6.806 3.527 1.394 5.679 4.585 5.687 8.61.013 7.005.004 14.01.004 21.015v1.112c1.223-.166 2.388-.17 3.453-.5 2.704-.84 5.356-1.843 8.043-2.74.567-.189.742-.451.74-1.045-.023-6.535-.021-13.073-.002-19.608.002-.54-.148-.913-.55-1.282-6.323-5.818-12.631-11.652-18.944-17.48-.896-.828-1.481-.834-2.373-.011-6.352 5.862-12.706 11.725-19.04 17.608-.262.244-.46.696-.464 1.054-.035 3.177-.02 6.354-.019 9.532 0 .227.025.456.04.712.233-.019.412-.031.59-.05 2.822-.27 5.497.054 7.866 1.81 1.14.852 2.354 1.605 3.694 2.507Zm-22.084 8.502c0 2.083.02 4.166-.012 6.25-.008.537.148.76.68.906 7.864 2.185 15.714 4.42 23.587 6.569.991.27 2.135.298 3.15.112 3.143-.573 6.266-1.279 9.385-1.981 2.07-.467 4.177-.746 6.146-1.685 5.441-2.602 10.929-5.105 16.402-7.642 1.277-.592 1.946-2.08 1.47-3.308-.497-1.29-1.883-1.9-3.283-1.421-2.754.944-5.497 1.916-8.254 2.854-3.727 1.267-7.362 2.942-11.454 2.654a6.875 6.875 0 0 0-1.402.069c-.26.035-.567.123-.748.296-1.437 1.356-3.104 1.733-4.981 1.212-4.081-1.135-8.16-2.283-12.24-3.431-.9-.254-1.262-.781-1.081-1.515.177-.71.792-.991 1.7-.748.98.263 1.952.553 2.927.825 3.13.875 6.258 1.755 9.392 2.615 1.525.419 2.858-.308 3.256-1.73.385-1.376-.45-2.72-1.954-3.139-.25-.069-.506-.123-.756-.191-9.623-2.638-7.507-1.667-14.798-6.615-1.58-1.073-3.265-1.56-5.142-1.492-4.146.154-7.944 1.515-11.575 3.404-.219.113-.392.526-.396.803-.033 2.108-.019 4.218-.019 6.329Zm-5.6 12.441c.834 0 1.586-.052 2.33.015.777.069.943-.24.941-.967-.023-8.018-.014-16.035-.014-24.054 0-.181.05-.387-.02-.54-.078-.174-.26-.424-.403-.43-.923-.04-1.85-.021-2.834-.021v2.75c0 2.491-.23 3.085-1.193 3.072-.936-.012-1.15-.579-1.15-3.027V38.69H2.387v34.093h6.355V53.204c0-.233-.01-.469.006-.702.05-.685.504-1.131 1.142-1.14.63-.008 1.112.43 1.183 1.107.027.258.012.52.012.781v15.51Z"/><path d="M42.917 40.008c.002-.96.435-1.514 1.173-1.504.733.01 1.172.584 1.168 1.53-.002.933-.464 1.512-1.198 1.506-.73-.007-1.145-.559-1.143-1.532Z"/></g><defs><clipPath id="a"><path fill="#fff" d="M0 0h80v80H0z"/></clipPath></defs></svg>