<svg width="80" height="80" fill="none" xmlns="http://www.w3.org/2000/svg"><path d="M3 64.891V49.425c0-2.556 2.089-4.632 4.66-4.632 2.57 0 4.66 2.076 4.66 4.632v23.093c0 2.555-2.09 4.632-4.66 4.632-2.571 0-4.66-2.077-4.66-4.632v-1.211M60.284 2h5.892a1.88 1.88 0 0 1 1.888 1.877 1.88 1.88 0 0 1-1.888 1.877H34.56a1.88 1.88 0 0 1-1.888-1.877A1.88 1.88 0 0 1 34.561 2h18.8M12.614 71.959c5.303 2.143 12.32 4.898 17.622 7.041 9.172-1.185 18.358-2.37 27.53-3.567 6.214-5.271 12.427-10.542 18.64-15.826.977-1.664.723-3.74-.576-4.991-1.058-1.025-2.678-1.358-4.164-.852-5.303 3.567-10.605 7.12-15.921 10.688L28.79 62.176m-16.176-11.54c1.835-.266 5.865-.36 8.878.612 3.495 1.118 3.977 2.196 7.74 3.674 3.026 1.184 5.637 1.357 9.32 1.57 10.15.573 11.395 2.316 12.158 3.74.616 1.159.16 2.822 0 3.421M35.753 6.166v49.248M66.015 6.166v51.045m-48.111-7.36V22.697h17.14m.388 5.63H21.854v3.713h13.578m0 5.484H21.854v3.7h13.578m0 5.657H21.854v3.7h13.578m4.204-39.504h5.236v5.91h-5.236v-5.91Zm8.744 0h5.236v5.91H48.38v-5.91Zm8.918 0h5.236v5.91h-5.236v-5.91Zm-17.662 13.19h5.236v5.91h-5.236v-5.91Zm8.744 0h5.236v5.91H48.38v-5.91Zm8.918 0h5.236v5.91h-5.236v-5.91ZM39.636 37.365h5.236v5.91h-5.236v-5.91Zm8.744 0h5.236v5.91H48.38v-5.91Zm8.918 0h5.236v5.91h-5.236v-5.91ZM39.636 50.583h5.236v5.91h-5.236v-5.91Zm8.744 0h5.236v5.91H48.38v-5.91Zm8.918 0h5.236v5.91h-5.236v-5.91ZM21.425 17.64h10.11v4.419h-10.11v-4.42Z" stroke="#009CD7" stroke-width="2" stroke-miterlimit="10" stroke-linecap="round" stroke-linejoin="round"/></svg>