<svg width="80" height="80" fill="none" xmlns="http://www.w3.org/2000/svg"><path d="m27.555 66.813-2.068 2.029c.414.377.829.729 1.214 1.108 2.757 2.708 2.744 2.408-.023 5.142-.575.566-1.141 1.143-1.712 1.712-.956.95-1.492.956-2.433.017-1.882-1.877-3.757-3.758-5.638-5.636-.2-.2-.408-.39-.648-.618-.214.198-.408.362-.587.54-1.898 1.895-3.794 3.795-5.692 5.69-.975.976-1.496.968-2.488-.024-1.437-1.435-2.875-2.87-4.31-4.31-.94-.944-.937-1.473.02-2.432a65368.133 65368.133 0 0 1 31.828-31.827c.217-.217.506-.36.819-.577-1.369-1.33-2.01-2.72-1.817-4.427a4.61 4.61 0 0 1 1.533-2.985c1.967-1.784 4.523-1.632 6.798.329l2.534-2.519c-5.865-2.602-9.117-7.106-8.517-13.785.5-5.563 4.244-9.773 9.53-11.27l.668 2.326c-.208.09-.386.181-.569.246-4.625 1.604-7.57 5.995-7.235 10.791.337 4.815 3.84 8.771 8.629 9.713.652.129 1.225.3 1.431 1.008.2.692-.235 1.123-.669 1.552-1.273 1.267-2.541 2.538-3.745 3.74 1.068 1.067 2.11 2.106 3.312 3.308.396-.437.896-1.025 1.431-1.581.74-.769 1.509-1.51 2.259-2.27.433-.44.87-.849 1.562-.626.671.215.838.758.96 1.383.844 4.348 4.171 7.686 8.442 8.502 4.565.873 9.217-1.36 11.375-5.46 2.198-4.17 1.427-9.237-1.904-12.531-1.162-1.15-1.142-1.631.113-2.709 3.86-3.312 4.066-9.272.443-12.852-3.606-3.562-9.518-3.318-12.793.527-1.055 1.238-1.532 1.246-2.705.086-1.97-1.952-4.35-2.988-7.118-3.135l-.588-.032V2.487c3.408-.029 6.373 1.13 8.988 3.375 2.548-2.458 5.573-3.64 9.09-3.327 2.918.259 5.38 1.517 7.353 3.7 3.636 4.027 4.167 10.696-.479 15.557 3.086 3.762 4.188 8 2.731 12.735-1.068 3.477-3.295 6.048-6.504 7.746-6.685 3.537-15.558.575-18.435-7.273l-2.533 2.585c.062.073.204.25.352.42 1.77 2.001 1.7 4.88-.17 6.695-1.866 1.815-4.753 1.82-6.69-.04-1.69-1.625-3.324-3.306-4.984-4.962-.125-.125-.263-.238-.335-.304C26.924 50.04 16.305 60.663 5.747 71.22l3.073 3.064 30.215-30.237c.625.694 1.141 1.27 1.643 1.83L29.166 57.364c.325.341.51.545.704.741 1.896 1.898 3.794 3.794 5.69 5.694.916.919.92 1.473.02 2.38-1.083 1.089-2.166 2.18-3.26 3.257-.78.767-1.387.77-2.16.003-.87-.859-1.721-1.734-2.605-2.627Zm-1.87 5.641c-.904-.898-1.777-1.752-2.636-2.62-.764-.774-.766-1.384-.008-2.153 1.077-1.093 2.167-2.175 3.254-3.258.915-.913 1.469-.919 2.373-.013.84.842 1.665 1.7 2.402 2.457l1.935-1.863c-1.84-1.84-3.708-3.71-5.477-5.477-3.079 3.083-6.208 6.219-9.245 9.263l5.54 5.55 1.862-1.886Zm22.862-31.569c-.202-.329-.469-.993-.929-1.468-2.323-2.39-4.694-4.732-7.054-7.084-1.108-1.104-2.496-1.175-3.454-.191-.94.962-.863 2.32.21 3.4 1.67 1.679 3.348 3.352 5.023 5.027.792.791 1.565 1.602 2.39 2.358.718.658 1.577.765 2.468.365.873-.39 1.259-1.12 1.346-2.407Z" fill="#009CD7"/><path d="M49.353 8.727a6.884 6.884 0 0 1 6.888 6.902c-.01 3.769-3.1 6.854-6.858 6.852a6.898 6.898 0 0 1-6.89-6.906c0-3.756 3.094-6.846 6.86-6.848Zm-4.36 6.844c-.019 2.402 1.952 4.404 4.34 4.408a4.383 4.383 0 0 0 4.408-4.344c.027-2.395-1.944-4.395-4.34-4.406-2.412-.012-4.39 1.936-4.408 4.342ZM71.245 30.602c.004 3.808-3.087 6.89-6.904 6.883-3.76-.006-6.85-3.106-6.844-6.866a6.895 6.895 0 0 1 6.909-6.886c3.758.007 6.835 3.094 6.84 6.87Zm-11.248-.05c-.029 2.404 1.927 4.417 4.315 4.435a4.384 4.384 0 0 0 4.433-4.318c.04-2.396-1.92-4.41-4.315-4.434-2.414-.025-4.404 1.913-4.433 4.317ZM66.27 8.727a5.01 5.01 0 0 1 4.975 5.044c-.025 2.758-2.3 4.983-5.067 4.958-2.716-.025-4.935-2.277-4.933-5.008a5.007 5.007 0 0 1 5.025-4.994Zm-.033 2.504a2.508 2.508 0 0 0-2.49 2.486c-.01 1.35 1.115 2.498 2.465 2.51a2.51 2.51 0 0 0 2.527-2.525 2.503 2.503 0 0 0-2.502-2.47Z" fill="#009CD7"/></svg>