<svg width="32" height="32" fill="none" xmlns="http://www.w3.org/2000/svg"><path fill-rule="evenodd" clip-rule="evenodd" d="M16 3s2.644 0 5.06 1.022c0 0 2.334.987 4.132 2.786 0 0 1.8 1.798 2.786 4.132 0 0 1.022 2.416 1.022 5.06 0 0 0 2.644-1.022 5.06 0 0-.987 2.334-2.786 4.132 0 0-1.798 1.8-4.131 2.786 0 0-2.417 1.022-5.061 1.022 0 0-2.644 0-5.06-1.022 0 0-2.334-.987-4.132-2.786 0 0-1.8-1.798-2.786-4.131C4.022 21.06 3 18.644 3 16c0 0 0-2.644 1.022-5.06 0 0 .987-2.334 2.786-4.132 0 0 1.798-1.8 4.132-2.786C10.94 4.022 13.356 3 16 3Zm0 2s-2.239 0-4.281.864c0 0-1.974.835-3.497 2.358 0 0-1.523 1.523-2.358 3.497 0 0-.864 2.042-.864 4.281 0 0 0 2.239.864 4.281 0 0 .835 1.974 2.358 3.497 0 0 1.523 1.523 3.497 2.358 0 0 2.042.864 4.281.864 0 0 2.239 0 4.281-.864 0 0 1.974-.835 3.497-2.358 0 0 1.523-1.523 2.358-3.497 0 0 .864-2.042.864-4.281 0 0 0-2.239-.864-4.281 0 0-.835-1.974-2.358-3.497 0 0-1.523-1.523-3.497-2.358 0 0-2.042-.864-4.281-.864Z" fill="#009CD7"/><path d="M13 16a1.5 1.5 0 1 1-3 0 1.5 1.5 0 0 1 3 0ZM22 16a1.5 1.5 0 1 1-3 0 1.5 1.5 0 0 1 3 0ZM13.24 20.167a1 1 0 0 0-.553-.167h-.005a1 1 0 0 0-.995 1v.006a1 1 0 0 0 .447.827C13.891 23 16 23 16 23c2.109 0 3.866-1.167 3.866-1.167a1 1 0 0 0 .447-.833v-.007a1 1 0 0 0-1-.993h-.008a1 1 0 0 0-.546.167C17.505 21 16 21 16 21c-1.505 0-2.76-.833-2.76-.833ZM18.121 11.121C19 10.243 19 9 19 9a1 1 0 1 0-2 0c0 .414-.293.707-.293.707C16.414 10 16 10 16 10c-.414 0-.707-.293-.707-.293C15 9.414 15 9 15 9c0-.494.216-1.305.216-1.305.446-1.672 1.565-3.07 1.565-3.07.141-.177.219-.398.219-.625v-.007A1 1 0 0 0 16 3h-.007a1 1 0 0 0-.774.375c-1.381 1.727-1.935 3.805-1.935 3.805C13 8.244 13 9 13 9c0 1.243.879 2.121.879 2.121C14.757 12 16 12 16 12c1.243 0 2.121-.879 2.121-.879Z" fill="#009CD7"/></svg>