<svg width="160" height="58" fill="none" xmlns="http://www.w3.org/2000/svg"><g clip-path="url(#a)" fill="#fff"><path d="M5.054 42.97h2.223l1.414 1.446v7.226l-1.414 1.446H5.054v1.446h.607v1.445H3.639v-2.891H1.414L0 51.64v-7.226l1.414-1.446h2.223v-1.032H3.03V40.49h2.024v2.48Zm-1.415 8.67v-7.226H2.001l-.587.598v6.05l.587.578H3.64Zm1.415 0h1.638l.587-.578V44.99l-.587-.58H5.054v7.23ZM15.12 40.492h1.415v14.04h.607v1.446H15.12v-8.755l-1.92 1.961v6.794h-1.414v-14.04h-.608v-1.446H13.2v6.648l1.92-1.96v-4.688ZM21.953 40.492h2.629v15.486h-1.415v-14.04h-.647l-1.273 1.3v12.74h-2.023v-1.446h.607V42.66l2.122-2.168ZM27.067 40.492h5.356v14.04h.608v1.446h-5.357v-14.04h-.607v-1.446Zm2.022 14.04h1.92V41.938h-1.92v12.594ZM40.469 40.492v3.222h-1.415v-1.776h-1.92v12.594h1.92v-3.057h1.415v4.5h-4.751V41.937h-.607v-1.444h5.358ZM42.754 40.492h5.356v14.04h.608v1.446H43.36v-14.04h-.607v-1.446Zm2.022 14.04h1.92V41.938h-1.92v12.594ZM56.055 40.492v2.478h2.223l1.414 1.446v7.226l-1.414 1.446h-2.223v1.446h.607v1.445h-2.021v-2.891h-2.224l-1.414-1.446v-7.226l1.414-1.446h2.224v-1.032h-.608v-1.446h2.022ZM54.64 51.64v-7.226h-1.638l-.587.598v6.05l.587.578h1.638Zm1.414 0h1.638l.587-.578V44.99l-.587-.58h-1.638v7.23ZM66.123 40.492h1.415v14.04h.607v1.446h-2.022v-8.755l-1.92 1.961v6.794h-1.414v-14.04h-.608v-1.446h2.022v6.648l1.92-1.96v-4.688ZM72.248 55.977h-2.021v-1.445h.607v-5.946l1.374-1.404-1.374-1.404v-3.84h-.607v-1.446h5.356v14.04h.607v1.446H74.17v-6.794l-.97-.99-.95.97v6.813Zm0-14.041v3.241l1.92 1.961v-5.202h-1.92ZM86.822 40.492h1.414v14.04h.607v1.446h-2.021v-8.755l-1.92 1.961v6.794h-1.415v-14.04h-.607v-1.446H84.9v6.648l1.92-1.96v-4.688ZM93.856 40.492h2.629v14.04h.607V58h-1.414v-2.023h-3.133v2.025H91.13v-3.468h.607V42.66l2.118-2.169Zm1.213 14.04V41.938h-.627l-1.294 1.3v11.294h1.92ZM102.892 46.458v1.446h-1.759v6.628h1.921v-3.057h1.414v4.5h-4.75V41.937h-.608V40.49h5.336v3.222h-1.414v-1.776h-1.901v4.522h1.761ZM108.573 47.904v8.073h-1.414V42.66l2.122-2.168h2.629v14.04h.607v1.446h-2.022v-8.074h-1.922Zm1.921-5.968h-.648l-1.273 1.3v3.222h1.921v-4.522ZM117.326 40.492h2.629v15.486h-1.414v-14.04h-.648l-1.273 1.3v12.74h-2.021v-1.446h.607V42.66l2.12-2.168ZM126.382 40.492h1.415v14.04h.607v1.446h-2.022v-8.755l-1.92 1.961v6.794h-1.414v-14.04h-.607v-1.446h2.021v6.648l1.92-1.96v-4.688ZM135.842 40.492v3.222h-1.414v-1.776h-1.921v12.594h1.921v-3.057h1.414v4.5h-4.751V41.937h-.607v-1.444h5.358ZM143.909 40.492v3.222h-1.313v-1.776h-.769v12.594h.608v1.446h-2.022v-14.04h-.768v1.776h-1.314v-3.222h5.578ZM145.991 40.492h5.357v14.04h.607v1.446h-5.357v-14.04h-.607v-1.446Zm2.022 14.04h1.92V41.938h-1.92v12.594ZM154.037 40.492h5.356v5.286l-1.374 1.404 1.374 1.404v5.946H160v1.446h-5.356v-14.04h-.607v-1.446Zm2.021 6.648 1.921-1.96v-3.242h-1.921v5.202Zm0 2.044v5.348h1.921v-5.348l-.971-.97-.95.97ZM69.35 0 80 5.814 90.65 0l11.358 6.2v12.453L90.65 24.85 80 19.037l-10.65 5.814-11.358-6.2V6.2L69.35 0Zm9.184 6.612L69.35 1.598l-9.186 5.014 9.186 5.013 9.184-5.013Zm22.06.413-9.236-5.04v10.027l9.236 5.04V7.026ZM90.65 23.253l9.186-5.014-9.186-5.014-9.186 5.014 9.186 5.014Zm-20.594-.387 19.886-10.854V1.984L70.056 12.84v10.027Zm-10.65-5.04 9.236 5.04V12.837l-9.236-5.04v10.028Z"/></g><defs><clipPath id="a"><path fill="#fff" d="M0 0h160v58H0z"/></clipPath></defs></svg>