<svg width="844" height="480" fill="none" xmlns="http://www.w3.org/2000/svg"><path d="M626.214 480 422 367.721 217.786 480 0 360.266V119.734L217.786 0 422 112.279 626.214 0 844 119.734v240.532L626.214 480ZM450.076 352.288l176.138 96.846 176.137-96.846-176.137-96.846-176.138 96.846Zm-422.93-7.977 177.087 97.368V247.987L27.146 150.619v193.692Zm190.64-313.445L41.649 127.712l176.137 96.846 176.138-96.846-176.138-96.847Zm394.855 7.455L321.968 198.154l-90.609 49.833v193.692l381.282-209.666V38.321Zm204.233 97.387L639.786 38.321v193.692l177.088 97.368V135.708Z" fill="#DCEEF4"/></svg>