<svg width="32" height="32" fill="none" xmlns="http://www.w3.org/2000/svg"><path fill-rule="evenodd" clip-rule="evenodd" d="M11 27v-6H5s-.828 0-1.414-.586c0 0-.586-.586-.586-1.414v-6s0-.828.586-1.414c0 0 .586-.586 1.414-.586h6V5s0-.828.586-1.414c0 0 .586-.586 1.414-.586h6s.828 0 1.414.586c0 0 .586.586.586 1.414v6h6s.828 0 1.414.586c0 0 .586.586.586 1.414v6s0 .828-.586 1.414c0 0-.586.586-1.414.586h-6v6s0 .828-.586 1.414c0 0-.586.586-1.414.586h-6s-.828 0-1.414-.586c0 0-.586-.586-.586-1.414Zm2 0h6v-7a1 1 0 0 1 1-1h7v-6h-7a1 1 0 0 1-1-1V5h-6v7a1 1 0 0 1-1 1H5v6h7a1 1 0 0 1 1 1v7Z" fill="#009CD7"/></svg>