<svg width="80" height="80" fill="none" xmlns="http://www.w3.org/2000/svg"><g clip-path="url(#a)" fill="#009CD7"><path d="M0 77.97c.458-.85 1.165-1.116 2.125-1.11 5.388.034 10.777.015 16.167.015h.887v-9.98c-2.666-.237-5.194-.89-7.564-2.082-4.755-2.39-8.138-6.055-10.155-10.98-.258-.631-.248-1.218.196-1.758.404-.49 1.004-.733 1.534-.475.485.237.98.704 1.195 1.194 1.107 2.519 2.62 4.729 4.688 6.546 2.881 2.53 6.233 3.991 10.152 4.41v-.79c0-3.75.015-7.498-.02-11.248-.005-.383-.207-.854-.476-1.133-1.533-1.596-3.127-3.133-4.67-4.717-.92-.941-.58-2.34.614-2.675.646-.18 1.17.059 1.623.513.458.462.925.914 1.379 1.381.452.467.894.944 1.465 1.548.041-.364.08-.546.08-.727.007-1.327-.008-2.656.007-3.983.013-1.04.692-1.765 1.598-1.742.883.023 1.517.723 1.52 1.733.01 3.463.005 6.925.005 10.388v.983c.26-.22.435-.35.587-.502 1.421-1.415 2.825-2.844 4.259-4.246.733-.716 1.654-.714 2.294-.052.606.625.577 1.521-.077 2.244-.14.154-.292.296-.44.444-2.044 2.044-4.1 4.075-6.115 6.146-.27.277-.473.745-.485 1.13-.052 1.738-.023 3.48-.023 5.288 1.869-.131 3.602-.552 5.24-1.279 5.491-2.437 9.002-6.56 10.441-12.419.109-.437.067-.693-.34-.97-6.891-4.696-11.056-11.16-12.474-19.377-.092-.536-.298-.711-.809-.821-8.114-1.757-16.593 2.658-19.873 10.372-.08.192-.152.388-.243.576-.404.835-1.204 1.187-1.994.885-.819-.315-1.217-1.169-.885-2.05.929-2.462 2.277-4.683 4.102-6.581 5.193-5.407 11.518-7.513 18.927-6.377l.302.043c.127-1.535.166-3.066.396-4.57 1.406-9.252 6.187-16.24 14.218-21.02.065-.037.117-.095.175-.143h.938c.104.07.206.148.314.213 8.38 5.095 13.171 12.49 14.232 22.26.137 1.273.137 2.56.204 3.87.229-.05.406-.082.581-.128 9.163-2.386 17.869 5.129 16.806 14.529-.056.5.071.733.484.983 2.84 1.717 4.87 4.127 5.987 7.252.409 1.138.621 2.346.923 3.523v2.969c-.046.117-.117.231-.133.352C78.502 65.148 69.21 70.6 60.423 67.237c-.18-.068-.37-.11-.565-.168v9.81h.917c5.702 0 11.402.017 17.104-.017.96-.006 1.663.265 2.123 1.11v2.03h-80C0 79.322 0 78.646 0 77.971Zm59.788-28.185c.335-.314.522-.48.7-.656 1.014-1.01 2.012-2.04 3.047-3.027.288-.273.671-.525 1.048-.61.709-.16 1.284.162 1.62.806.376.723.166 1.362-.384 1.912-1.859 1.86-3.732 3.707-5.565 5.592-.254.263-.44.71-.444 1.077-.037 2.63-.004 5.26-.033 7.89-.006.527.188.794.633 1.023 3.071 1.575 6.25 1.843 9.425.51 4.294-1.802 6.763-5.123 6.99-9.777.233-4.783-1.958-8.352-6.208-10.602-1.373-.727-1.492-1.017-1.286-2.517.159-1.15.306-2.356.136-3.49-.642-4.264-3.034-7.228-7.157-8.522-4.158-1.304-7.88-.271-10.787 2.966-2.865 3.192-3.392 6.925-1.836 10.917.688 1.762.436 2.39-1.352 2.946C43 47.885 40.17 53.777 42.22 58.954c2.087 5.273 8.218 7.656 13.275 5.196.837-.408 1.364-.865 1.183-1.88-.073-.403-.046-.835-.004-1.247.058-.571-.154-.969-.563-1.367a351.837 351.837 0 0 1-5.14-5.133c-.68-.692-.695-1.606-.095-2.236.62-.65 1.58-.654 2.296.038.992.958 1.954 1.948 2.935 2.919.134.131.292.235.56.45v-.99c0-2.656-.003-5.312.005-7.969.004-1.029.381-1.577 1.177-1.78 1.033-.267 1.898.447 1.935 1.645.03 1.004.005 2.004.005 3.185ZM41.563 22.98l.191.094c.78-.802 1.552-1.608 2.338-2.404.479-.486 1.054-.663 1.71-.413 1.096.415 1.352 1.721.481 2.617-1.398 1.437-2.848 2.825-4.23 4.275-.268.279-.47.75-.472 1.133-.029 5.573-.02 11.146-.019 16.717 0 .217.03.433.046.65l.196.125c1.3-1.263 2.613-2.513 3.888-3.8.16-.163.21-.521.18-.773-.601-5.117 1.057-9.344 5.086-12.544.79-.627 1.025-1.27 1.048-2.15.242-9.483-3.493-16.996-11.154-22.581-.623-.454-1.05-.454-1.694-.013C26.6 12.567 24.223 29.985 34.03 41.66a24.174 24.174 0 0 0 4.404 4.109v-.83c0-3.097-.01-6.197.01-9.295.005-.506-.139-.867-.503-1.225-1.786-1.75-3.546-3.525-5.31-5.296-.878-.88-.976-1.75-.29-2.463.675-.7 1.641-.593 2.52.282.996.991 1.988 1.99 2.986 2.98.154.153.327.286.587.511v-6.762c0-2.317-.01-4.636.005-6.952.008-1.267 1.075-2.044 2.14-1.59.707.302.984.873.982 1.621-.002 2.077.002 4.154.002 6.23ZM22.39 76.82h16.004V57.28c-3.917 5.736-9.209 8.925-16.004 9.634v9.904Zm34.275-9.7c-5.773 2.206-10.752 1.14-15.05-3.16v12.855h15.05v-9.696ZM80 10.469c-.446 1.212-.73 2.514-1.365 3.619-2.152 3.741-6.585 5.4-10.712 4.143-4.123-1.254-6.769-5.154-6.53-9.625.217-4.058 3.422-7.644 7.544-8.444.2-.04.396-.106.594-.16h2.344c.169.052.335.119.508.156 3.625.802 6.034 2.963 7.21 6.484.163.485.274.99.41 1.485C80 8.907 80 9.687 80 10.469Zm-9.287 5.035a6.19 6.19 0 0 0 6.16-6.237c-.023-3.409-2.842-6.167-6.27-6.138-3.382.03-6.113 2.806-6.105 6.21a6.152 6.152 0 0 0 6.215 6.165Z"/><path d="M0 45.625c.094-.115.192-.225.283-.342.477-.61 1.19-.843 1.852-.562.66.279 1.013.804.975 1.523-.035.681-.408 1.164-1.058 1.387-.694.24-1.392-.031-1.819-.669-.085-.127-.156-.266-.233-.4v-.937Z"/></g><defs><clipPath id="a"><path fill="#fff" d="M0 0h80v80H0z"/></clipPath></defs></svg>