<svg width="80" height="80" fill="none" xmlns="http://www.w3.org/2000/svg"><g clip-path="url(#a)" fill="#009CD7"><path d="M0 72.188c.202-.338.402-.675.659-1.103-.142-.827-.507-2.01-.515-3.195-.023-2.807 1.788-5.325 4.438-6.296 2.79-1.021 5.291-.421 7.395 1.637.517.506.95.794 1.671.59.288-.081.619-.013 1.042-.013v-6.59c-5.669-.726-9.969-3.5-12.608-8.583-1.96-3.777-2.228-7.773-.944-11.82 2.61-8.225 11.356-12.702 19.683-10.102 7.833 2.445 13.49 11.56 9.542 21.268h.85c2.785 0 5.57-.004 8.358.006.306.003.633.026.913.136.516.206.83.68.641 1.18-.15.395-.57.72-.937.985-.175.125-.507.035-.767.035-5.077 0-10.154-.008-15.231.019-.365.002-1.006.2-1.038.387-.102.613-.023 1.269.096 1.888.023.118.546.198.84.2 2.916.014 5.831.008 8.748.008 7.654 0 15.308.004 22.962-.015.367 0 1.017-.179 1.048-.358.102-.612.044-1.273-.085-1.887-.03-.138-.592-.227-.909-.23-3.541-.016-7.08-.01-10.623-.01-.233 0-.472.02-.702-.019-.543-.093-.887-.416-.96-.977-.07-.552.144-.967.65-1.21.137-.067.298-.123.446-.121 4.085.015 8.17.044 12.256.044.235 0 .55-.177.694-.373.569-.773 1.008-1.65 1.631-2.371 1.952-2.265 4.342-2.283 6.37-.096.424.456.788.967 1.176 1.448.498-.587.96-1.219 1.51-1.758 1.759-1.727 3.813-1.75 5.613-.063 1.519 1.425 2.404 3.258 3.129 5.163 1.91 5.01 2.892 10.2 2.777 15.568-.044 2.042-.394 4.036-1.523 5.584.594.364 1.148.704 1.702 1.046v.78c-.369.632-.919.8-1.637.8-25.575-.014-51.15-.014-76.727 0-.717 0-1.27-.164-1.638-.797.004-.265.004-.525.004-.785Zm20.931-18.16c-.093-1.172-.245-2.12-.227-3.063.034-1.786 1.257-2.948 3.042-2.98 1.067-.018 2.138-.041 3.202.01.594.03.863-.203 1.106-.716 4.034-8.498-1.937-18.575-11.348-18.946-5.608-.223-9.93 2.242-12.485 7.248-2.552 5.006-1.964 9.909 1.481 14.35 2.236 2.877 5.28 4.444 8.984 4.888 0-1.704.014-3.34-.017-4.977-.004-.215-.21-.459-.38-.632-1.093-1.114-2.207-2.21-3.307-3.32-.638-.644-.703-1.34-.196-1.848.504-.507 1.206-.442 1.848.195.64.634 1.26 1.288 2.056 2.105v-.996c0-1.952-.006-3.906.002-5.858.004-.88.417-1.373 1.133-1.392.752-.021 1.196.483 1.207 1.396.008.87.002 1.741.002 2.614.066.034.133.067.198.098.658-.691 1.304-1.394 1.974-2.07.673-.678 1.307-.746 1.846-.238.544.512.482 1.214-.2 1.904-1.116 1.13-2.266 2.23-3.354 3.383-.25.267-.44.709-.444 1.071-.037 2.63-.02 5.26-.018 7.89 0 .223.025.448.048.808l3.848-.925Zm35.313 7.703c.962 0 1.819-.019 2.673.004 1.569.042 2.63 1.113 2.664 2.667.01.469.007.938.003 1.404-.013 1.856-1.042 2.884-2.909 2.9-.633.007-1.266 0-1.937 0 .479 1.352 1.22 2.086 2.575 2.215 1.702.16 3.425.2 5.135.164 2.552-.052 3.738-1.13 4.163-3.643.448-2.65.21-5.294-.182-7.923-.54-3.638-1.375-7.204-3.056-10.504-.454-.89-1.067-1.73-1.74-2.47-.793-.872-1.56-.874-2.337.022-.723.833-1.298 1.806-1.869 2.76-.177.296-.187.733-.168 1.1.058 1.144.202 2.281-.38 3.358-.08.15.021.423.088.621.727 2.144.694 5.125-2.523 5.69-.06.506-.125 1.019-.2 1.635Zm13.365 9.49c1.7-.096 3.206-.117 4.693-.288 1.292-.148 2.184-.937 2.604-2.179a9.454 9.454 0 0 0 .43-1.733c.37-2.659.102-5.3-.313-7.925-.55-3.48-1.362-6.894-2.981-10.048-.48-.933-1.133-1.808-1.846-2.581-.704-.763-1.415-.767-2.106-.015-.713.775-1.269 1.696-1.852 2.581-.096.146-.038.448.04.644a42.423 42.423 0 0 1 2.895 14.38c.063 2.403-.104 4.787-1.564 7.164Zm-57.242.191c2.602 0 5.206-.041 7.808.023.875.021 1.06-.41 1.142-1.091.114-.971-.186-1.498-.858-1.74-.475-.17-.975-.41-1.32-.76-.353-.359-.69-.459-1.101-.298-.767.3-1.315.064-1.877-.498-.83-.83-1.875-1.073-3.027-.796-1.465.352-1.465.352-2.394-.906-1.502-2.036-4.354-2.481-6.388-.998a4.615 4.615 0 0 0-1.025 6.45c.32.437.665.635 1.23.63 2.604-.034 5.206-.016 7.81-.016Zm27.714-7.337c-6.141 0-12.28-.002-18.422.006-.273 0-.775.06-.784.14-.077.635-.11 1.29-.027 1.923.015.114.625.214.963.214 12.02.01 24.043.01 36.064.009 1.58 0 1.315.152 1.38-1.377.029-.705-.165-.934-.907-.932-6.09.03-12.179.017-18.267.017Zm-.13-6.413h11.162c1.664 0 3.331-.014 4.996.007.595.008.872-.238.864-.825-.002-.209.004-.417 0-.625-.012-.904-.148-1.048-1.037-1.05-1.56-.004-3.123-.002-4.684-.002-9.002 0-18.004-.002-27.006.008-.344 0-.952.069-.987.215-.148.606-.205 1.268-.109 1.88.027.18.673.372 1.036.372 5.252.027 10.508.02 15.764.02Zm10.956 11.105H29.62v2.596h21.286v-2.596Zm-32.54-3.709c.02-.127.042-.202.046-.279.091-2.169 1-3.048 3.154-3.05 2.212-.002 4.425 0 6.637 0h.823v-1.725h-.796c-1.51 0-3.018.009-4.529-.002-1.643-.012-2.796-1.06-2.99-2.694-.026-.227-.045-.454-.07-.698-1.208.223-2.369.438-3.606.665 0 2.265-.002 4.548.002 6.833-.002.898.335 1.144 1.329.95Zm30.694-4.987H31.448v1.617h17.613V60.07ZM27.165 71.377v-2.596h-3.53v2.596h3.53Zm26.723-9.67c.06-.59.116-1.111.17-1.642h-2.554v1.641h2.384Zm-.554 7.076v2.56h2.043c-.327-.67-.708-1.272-.912-1.928-.198-.638-.498-.846-1.131-.632ZM49.213 33.32c-1.771 0-3.542.01-5.313-.001-2.998-.017-4.727-2.373-3.827-5.24.55-1.756 1.738-2.908 3.46-3.56.307-.117.646-.425.761-.723 1.275-3.325 4.296-5.477 7.792-5.5 3.495-.023 6.556 2.077 7.835 5.412.16.417.346.61.804.684 1.11.173 2.03.741 2.852 1.508.252.233.652.388 1 .42.723.07 1.459-.001 2.186.049 1.904.129 3.273 1.627 3.254 3.516-.019 1.871-1.454 3.375-3.356 3.417-2.16.046-4.323.025-6.484.013-.833-.005-1.298-.42-1.32-1.115-.026-.719.466-1.206 1.314-1.217 1.848-.02 3.698-.006 5.546-.008.233 0 .469.008.702-.004.781-.036 1.23-.438 1.246-1.108.019-.707-.431-1.148-1.26-1.175a49.107 49.107 0 0 0-2.657-.005c-.675.017-1.185-.18-1.585-.777-.63-.931-1.56-1.329-2.688-1.283-.908.037-1.275-.258-1.485-1.142-.71-2.97-3.002-4.86-5.88-4.848-2.837.013-5.143 1.898-5.83 4.821-.176.75-.576 1.096-1.328 1.177-1.346.146-2.258.871-2.65 2.188-.395 1.331.202 2.146 1.594 2.15 3.594.008 7.188.002 10.781.006.286 0 .58-.013.855.05.647.146.985.58.925 1.246-.057.627-.438 1.002-1.073 1.027-.807.033-1.615.017-2.421.019-1.25.004-2.5.004-3.75.004ZM28.042 18.646c-1.615 0-3.227.004-4.842-.002-1.02-.004-1.516-.388-1.52-1.152-.005-.763.51-1.184 1.504-1.188 2.941-.008 5.883-.002 8.825-.002.208 0 .416-.002.625 0 .47.002.943-.05.954-.654.01-.594-.444-.696-.923-.698-.91-.004-1.823-.002-2.733-.002-1.571 0-1.571 0-2.146-1.448-.517-1.298-1.963-1.915-3.29-1.4-1.242.481-1.348.452-2.15-.588-.925-1.197-2.406-1.695-3.831-1.154-.844.321-1.4.14-1.996-.495-1.2-1.286-2.998-1.621-4.59-.955a4.174 4.174 0 0 0-2.558 3.946c.033 1.794 1.473 3.334 3.31 3.415 1.638.073 3.28.025 4.92.037.283.002.576.009.85.077.583.15.866.582.837 1.16-.03.58-.354 1.055-.952 1.057-2.209.008-4.45.17-6.62-.138-2.416-.341-3.997-1.974-4.522-4.39-.575-2.637.31-4.84 2.419-6.493 2.354-1.844 5.573-1.775 7.975.046.25.19.66.317.964.269 1.902-.302 3.54.202 4.998 1.44.248.21.688.35 1.004.303 2.167-.318 4.065.538 5.136 2.446.227.407.475.54.916.527a29.344 29.344 0 0 1 2.421.01c1.698.088 2.938 1.397 2.925 3.043-.012 1.652-1.264 2.927-2.987 2.966-1.64.038-3.28.008-4.921.008l-.002.009Z"/></g><defs><clipPath id="a"><path fill="#fff" d="M0 0h80v80H0z"/></clipPath></defs></svg>