<svg width="32" height="32" fill="none" xmlns="http://www.w3.org/2000/svg"><path fill-rule="evenodd" clip-rule="evenodd" d="m14.548 12-2.084 3.168s1.438 2.965 4.402 4.39l.003-.002 3.12-2.084s.423-.287.933-.334c0 0 .51-.047.973.156l5.84 2.508s.62.258.956.84c0 0 .337.581.25 1.248 0 0-.335 2.62-2.317 4.364 0 0-1.983 1.745-4.624 1.746 0 0-3.58 0-6.888-1.37 0 0-3.308-1.37-5.84-3.902 0 0-2.532-2.532-3.902-5.84C5.37 16.888 4 13.58 4 10c0 0 0-2.641 1.746-4.624 0 0 1.745-1.982 4.364-2.318 0 0 .667-.086 1.248.25 0 0 .582.337.836.948l2.51 5.858s.2.458.16.956c0 0-.04.498-.316.93Zm-3.887 4.032-.002-.004s-.224-.469-.19-.988c0 0 .033-.52.317-.958l2.084-3.171-2.514-5.867s-1.866.241-3.11 1.654C7.247 6.698 6 8.114 6 10c0 0 0 3.182 1.218 6.123 0 0 1.218 2.94 3.468 5.19 0 0 2.25 2.251 5.191 3.469 0 0 2.94 1.218 6.123 1.218 0 0 1.886 0 3.302-1.247 0 0 1.413-1.243 1.655-3.109l-5.851-2.513-3.126 2.088s-.435.294-.963.334c0 0-.529.04-1.008-.187 0 0-3.605-1.734-5.347-5.33v-.002l-.002-.002Z" fill="#2A2A30"/></svg>