<svg width="80" height="80" fill="none" xmlns="http://www.w3.org/2000/svg"><g clip-path="url(#a)" fill="#009CD7"><path d="M56.563 0c.804.196 1.629.333 2.41.598 4.112 1.392 6.79 4.185 8.098 8.323.119.375.427.77.758.981 2.109 1.338 4.246 2.63 6.381 3.925.494.3.903.642.859 1.28-.044.637-.496.92-1.021 1.158-3.08 1.391-6.167 2.768-9.223 4.212-.635.3-1.192.82-1.696 1.327-.185.188-.164.625-.164.948.025 6.186-1.838 11.719-5.728 16.544-2.2 2.731-4.847 4.935-7.962 6.55-.563.292-.712.617-.698 1.202.038 1.483-.019 2.969.02 4.452.043 1.492-.528 2.567-2.01 3.163.517 1.435.271 2.756-.693 3.952 1.275 1.68 1.294 3.36.006 5.054 1.254 1.66 1.3 3.337-.002 5.048.864 1.125 1.225 2.38.71 3.902h15.64c.285 0 .577-.015.858.025.59.083.934.441.977 1.037.044.592-.218 1.03-.795 1.184-.344.091-.72.093-1.082.093-19.216.005-38.431.005-57.648.005-.312 0-.627-.013-.937.014-.75.063-1.271.61-1.275 1.319-.004.7.52 1.283 1.258 1.348.413.037.833.012 1.25.012 2.969 0 5.938.006 8.904-.004.657-.002 1.27.04 1.557.756.291.723-.155 1.167-.63 1.592H2.967C1.46 79.53.473 78.537 0 77.031V75.47c.08-.154.17-.304.237-.465.646-1.512 1.776-2.356 3.434-2.377 2.24-.03 4.479-.01 6.719-.01h22.966c-.406-1.465-.21-2.727.756-3.86-1.285-1.686-1.314-3.39-.025-5.063-1.264-2.015-1.266-3.038-.004-5.094-.895-1.148-1.21-2.431-.66-3.935-1.806-.648-2.127-2.084-2.027-3.771.056-.959.01-1.923.01-2.663-2.225-1.006-4.444-1.76-6.404-2.941-8-4.821-12.2-11.975-12.631-21.317-.06-1.304.331-1.68 1.637-1.68 3.75-.003 7.5-.001 11.248-.001.13 0 .26-.005.39.004.77.048 1.219.46 1.235 1.129.017.696-.448 1.173-1.252 1.198-.987.031-1.979.01-2.969.01h-.843c.127 3.85 3.723 9.163 10.01 9.425 6.296.263 10.59-4.733 10.96-9.425h-.84c-3.385 0-6.77.002-10.153-.004-.31 0-.631-.004-.927-.083-.577-.156-.871-.594-.827-1.169.041-.567.373-.969.975-1.054.28-.04.57-.033.856-.033 3.358-.002 6.719-.002 10.077-.002h.93c.016-.342.043-.617.043-.892.002-2.838.062-5.677-.01-8.515C42.734 5.912 47.984.75 53.616.108c.098-.01.191-.075.285-.114.89.006 1.775.006 2.66.006ZM14.724 24.68c.113.955.15 1.822.325 2.657 1.958 9.38 7.46 15.71 16.708 18.22 9.027 2.45 16.836-.188 23.092-7.095 4.198-4.635 5.948-10.233 5.758-16.452-.027-.856.152-1.502.944-1.966.413-.242.738-.659 1.054-1.034 2.838-3.358 3.417-7.123 1.54-11.056-1.831-3.837-5.094-5.675-9.34-5.591-4.914.097-9.304 4.354-9.479 9.27-.131 3.72-.037 7.446-.062 11.171-.007.831-.028 1.671-.142 2.494-.833 6.033-6.08 10.86-12.033 11.104-6.471.265-11.998-3.85-13.417-9.994-.133-.575-.233-1.156-.348-1.729h-4.6Zm19.027 23.764c0 1.11.019 2.17-.008 3.231-.015.554.231.735.746.725.883-.017 1.766-.004 2.652-.004h8.266c.438 0 .85.006.844-.621-.012-1.48-.004-2.958-.004-4.531-4.09 1.402-8.202 1.87-12.496 1.2Zm6.169 9.016c1.014 0 2.031.015 3.046-.004.918-.016 1.516-.546 1.543-1.319.028-.802-.587-1.383-1.543-1.391a353.723 353.723 0 0 0-5.936 0c-.925.008-1.516.54-1.541 1.314-.025.798.595 1.377 1.543 1.396.963.019 1.925.004 2.888.004Zm.073 15.157c.962 0 1.927.01 2.89-.002 1.012-.015 1.65-.573 1.624-1.398-.023-.798-.63-1.321-1.616-1.33a381.274 381.274 0 0 0-5.78 0c-1.012.009-1.65.578-1.625 1.398.023.794.638 1.313 1.617 1.33.965.012 1.927.002 2.89.002Zm.064-10.117c.99 0 1.977.013 2.967-.004.883-.013 1.498-.592 1.488-1.365-.01-.752-.586-1.308-1.446-1.316-2.03-.021-4.06-.02-6.09-.002-.904.008-1.5.58-1.487 1.356.014.77.627 1.316 1.525 1.327 1.012.012 2.027.004 3.043.004Zm-.125 5.037c1.042 0 2.082.015 3.123-.004.863-.014 1.438-.552 1.454-1.308.017-.773-.593-1.367-1.479-1.375-2.029-.017-4.06-.017-6.09 0-.843.008-1.435.577-1.454 1.32-.018.78.58 1.347 1.48 1.361.99.019 1.979.006 2.966.006Zm31.49-52.662-3.75-2.296c-.313 1.515-.606 2.944-.908 4.417 1.502-.686 3.002-1.367 4.658-2.121Z"/><path d="M19.375 80c-.598-.338-.99-.808-.762-1.527.229-.723.833-.823 1.508-.82 18.51.005 37.023.005 55.533.005 1.325 0 1.98-.435 1.996-1.327.019-.929-.63-1.368-2.02-1.368-2.213 0-4.426 0-6.64-.003-.234 0-.473.01-.7-.029-.65-.114-1.017-.514-1.036-1.175-.017-.625.463-1.1 1.154-1.125.859-.031 1.72-.012 2.577-.014 1.484-.002 2.97 0 4.453 0 2.702 0 3.522.54 4.562 3.008v1.406c-.473 1.506-1.463 2.496-2.969 2.969H19.375Z"/></g><defs><clipPath id="a"><path fill="#fff" d="M0 0h80v80H0z"/></clipPath></defs></svg>