<svg width="32" height="32" fill="none" xmlns="http://www.w3.org/2000/svg"><path fill-rule="evenodd" clip-rule="evenodd" d="M16 2s2.035 0 3.894.786c0 0 1.794.76 3.178 2.143 0 0 1.384 1.383 2.143 3.178 0 0 .786 1.86.786 3.893 0 0 0 2.034-.786 3.893 0 0-.76 1.794-2.143 3.178 0 0-1.384 1.384-3.178 2.143 0 0-1.86.786-3.893.786 0 0-2.034 0-3.893-.786 0 0-1.795-.76-3.178-2.143 0 0-1.384-1.384-2.143-3.178 0 0-.786-1.86-.786-3.893 0 0 0-2.034.786-3.893 0 0 .76-1.795 2.143-3.178 0 0 1.383-1.384 3.178-2.143 0 0 1.86-.786 3.893-.786Zm0 2s-3.313 0-5.656 2.343c0 0-2.343 2.343-2.343 5.657 0 0 0 3.314 2.343 5.657 0 0 2.343 2.343 5.657 2.343 0 0 3.314 0 5.657-2.343 0 0 2.343-2.343 2.343-5.657 0 0 0-3.314-2.343-5.657C21.658 6.343 19.315 4 16 4Z" fill="#009CD7"/><path d="M4.92 7.41c.914-2.204 2.6-3.89 2.6-3.89a1 1 0 0 0-1.414-1.415c-1.968 1.969-3.033 4.54-3.033 4.54C2.008 9.217 2.008 12 2.008 12c0 2.783 1.065 5.355 1.065 5.355 1.065 2.571 3.033 4.54 3.033 4.54 1.968 1.968 4.54 3.033 4.54 3.033 2.571 1.065 5.355 1.065 5.355 1.065 2.783 0 5.355-1.065 5.355-1.065 2.571-1.065 4.54-3.033 4.54-3.033a1 1 0 0 0-1.415-1.415c-1.687 1.687-3.89 2.6-3.89 2.6-2.204.913-4.59.913-4.59.913-2.386 0-4.59-.913-4.59-.913-2.204-.913-3.89-2.6-3.89-2.6-1.687-1.686-2.6-3.89-2.6-3.89-.913-2.204-.913-4.59-.913-4.59 0-2.386.913-4.59.913-4.59ZM12 30h8a1 1 0 1 0 0-2h-8a1 1 0 1 0 0 2Z" fill="#009CD7"/><path d="M15 25v4a1 1 0 1 0 2 0v-4a1 1 0 1 0-2 0Z" fill="#009CD7"/><path fill-rule="evenodd" clip-rule="evenodd" d="M16 2.25s1.984 0 3.796.767c0 0 1.75.74 3.1 2.089 0 0 1.348 1.349 2.088 3.099 0 0 .767 1.812.767 3.795 0 0 0 1.983-.767 3.795 0 0-.74 1.75-2.089 3.1 0 0-1.349 1.348-3.099 2.088 0 0-1.812.767-3.795.767 0 0-1.983 0-3.796-.767 0 0-1.75-.74-3.098-2.089 0 0-1.35-1.349-2.09-3.099 0 0-.766-1.812-.766-3.795 0 0 0-1.983.766-3.795 0 0 .74-1.75 2.09-3.1 0 0 1.349-1.348 3.099-2.088 0 0 1.812-.767 3.795-.767Zm0 1.5s-1.678 0-3.21.648c0 0-1.48.626-2.623 1.768 0 0-1.142 1.143-1.768 2.623 0 0-.648 1.532-.648 3.211 0 0 0 1.679.648 3.211 0 0 .626 1.48 1.768 2.623 0 0 1.143 1.142 2.623 1.768 0 0 1.532.648 3.21.648 0 0 1.68 0 3.212-.648 0 0 1.48-.626 2.622-1.768 0 0 1.143-1.143 1.769-2.623 0 0 .648-1.532.648-3.211 0 0 0-1.679-.648-3.211 0 0-.626-1.48-1.769-2.623 0 0-1.142-1.142-2.622-1.768 0 0-1.532-.648-3.211-.648Z" fill="#009CD7"/><path fill-rule="evenodd" clip-rule="evenodd" d="m15.471 20.855.366-1.856-.001.003-.001-.002-.005-.008-1.758-1.898s-.306-.334-.378-.779c0 0-.071-.444.114-.855l1.283-2.875s.19-.451.63-.7c0 0 .44-.25.94-.177l2.133.288s.326.039.603.217l5.078 3.123a.75.75 0 0 1 .357.618v.021a.75.75 0 0 1-.739.75h-.01a.75.75 0 0 1-.394-.111l-5.088-3.13-2.14-.29v.002l-1.286 2.881 1.765 1.906s.24.263.337.605c0 0 .098.341.032.7l-.366 1.857a.75.75 0 1 1-1.472-.29Z" fill="#009CD7"/><path d="m10.785 5.506.007-.017a.75.75 0 0 0-.404-.967l-.017-.007a.75.75 0 0 0-.967.404L8.56 6.912c-.23.549-.02 1.105-.02 1.105l1.073 2.854c.13.367.422.624.422.624.292.257.672.338.672.338l2.006.431.36.75c.191.378.55.602.55.602.36.225.794.23.794.23h1.266a.75.75 0 1 0 0-1.5h-1.266.004l-.002-.002c-.005-.003-.007-.007-.007-.007l-.35-.728c-.148-.312-.424-.528-.424-.528-.276-.215-.619-.285-.619-.285l-1.993-.428-1.082-2.88.842-1.982Z" fill="#009CD7"/><path d="m11.457 9.065-.779 1.847a.75.75 0 0 0 .692 1.041h.014a.75.75 0 0 0 .677-.459l.778-1.847v.002h.001a.01.01 0 0 1 .005-.002h2.023c.365-.01.688-.181.688-.181l1.164-.644c.156-.086.287-.209.287-.209l2.515-2.272c.387-.36.47-.87.47-.87.083-.51-.163-.964-.163-.964l-.875-1.58a.75.75 0 0 0-.656-.386h-.021a.75.75 0 0 0-.73.75l.001.02a.75.75 0 0 0 .094.343l.869 1.57v.006l.006-.002-2.522 2.278-.008.007-1.135.628c-.01.005-.02.006-.02.006h-1.994c-.45.002-.826.25-.826.25-.375.25-.555.668-.555.668Z" fill="#009CD7"/></svg>