<svg width="165" height="165" fill="none" xmlns="http://www.w3.org/2000/svg"><path d="M84.39 2.088C87.68 4.2 90.998 6.28 94.26 8.439c1.92 1.272 3.755 2.665 5.981 4.252 0-1.141-.021-1.987.005-2.833.063-1.978.842-2.778 2.795-2.8 2.887-.029 5.775-.016 8.662-.003 2.353.012 3.056.724 3.069 3.144.016 3.834.037 7.665-.017 11.5-.013 1.001.273 1.645 1.124 2.205 1.751 1.153 3.443 2.403 5.135 3.645 3.409 2.492 4.394 5.78 2.833 9.353-1.469 3.367-4.521 4.832-8.562 4.117-.092-.017-.198.016-.509.05 0 1.688.004 3.397 0 5.11 0 .682.012 1.368-.025 2.046-.085 1.41-.83 2.252-2.248 2.357-1.326.097-2.361-.846-2.404-2.349-.08-2.782-.143-5.569-.004-8.347.084-1.667-.484-2.626-1.852-3.582-8.035-5.632-16.007-11.36-23.967-17.102-.892-.644-1.49-.715-2.433-.033A3145.279 3145.279 0 0 1 57.25 36.742c-.918.648-1.254 1.322-1.25 2.446.046 9.925.025 19.85.025 29.771v1.62h17.275c.025-.576.075-1.127.075-1.679.009-4.356-.059-8.717.021-13.074.13-7.109 6.495-11.617 13.061-9.323 3.932 1.377 6.331 4.912 6.382 9.542.046 4.252.008 8.507.012 12.758v1.772h17.199v-2.53c0-2.992-.021-5.985.008-8.977.021-1.89.897-2.867 2.421-2.833 1.464.033 2.268.964 2.285 2.799.034 3.254.009 6.511.013 9.765v1.734c.501.06.804.114 1.107.122 2.82.106 3.413.7 3.418 3.465.004 2.52.004 5.042 0 7.56-.005 2.802-.712 3.497-3.578 3.497-6.983.004-13.966 0-20.953 0h-1.815v6.486c6.65-1.864 9.572-1.06 13.415 3.793 2.467-1.743 5.219-2.509 8.25-1.827 2.993.674 5.165 2.454 6.693 5.186 2.357-1.596 4.878-2.303 7.635-1.78 4.584.866 7.913 4.735 8.002 9.428.088 4.672.042 9.344.017 14.021-.009 1.738-.931 2.736-2.383 2.727-1.46-.004-2.319-.981-2.327-2.748-.017-4.462.037-8.928-.021-13.39-.055-3.965-3.376-6.452-6.769-5.139-2.172.842-3.089 2.593-3.211 4.794-.085 1.52-.017 3.043-.03 4.567-.017 2.029-.808 3.022-2.382 2.997-1.554-.025-2.328-1.031-2.336-3.077-.013-2.732.046-5.463-.034-8.191-.072-2.437-1.452-4.108-3.683-4.723-2.012-.555-4.205.105-5.245 1.886-.576.989-.901 2.243-.959 3.397-.139 2.723-.005 5.459-.072 8.187-.046 1.869-1.381 2.904-3.01 2.441-1.351-.383-1.683-1.452-1.687-2.698-.005-3.254.004-6.512-.009-9.765-.004-.682-.017-1.368-.109-2.042-.388-2.765-2.488-4.504-5.24-4.382-2.501.11-4.55 2.248-4.585 4.904-.05 3.624-.004 7.248-.029 10.868-.004.619-.059 1.276-.274 1.844-.408 1.073-1.38 1.62-2.395 1.263-.766-.27-1.469-1.023-1.932-1.735-.294-.45-.11-1.224-.11-1.856-.003-18.167.005-36.338-.008-54.505-.004-3.767-2.546-5.913-6.124-5.24-2.349.442-3.81 2.16-3.877 4.655-.046 1.785-.012 3.57-.012 5.354 0 17.17-.013 34.343.008 51.512.004 2.282-.753 4.104-2.719 5.329-2.972 1.848-6.394.741-8.04-2.525-1.603-3.182-3.068-6.461-4.962-9.458-1.553-2.458-3.519-4.694-5.548-6.794-1.73-1.793-4.011-2.66-6.596-2.332-2.47.316-3.09 1.473-2.171 3.755 4.554 11.331 9.154 22.645 13.566 34.035 1.258 3.254 3.148 5.838 5.741 8.095 2.13 1.852 4.184 3.838 5.99 6.002 2.87 3.439 4.251 7.551 4.613 12 .126 1.558-.716 2.698-2.067 2.867-1.338.168-2.466-.75-2.601-2.32-.476-5.686-3.258-10.085-7.492-13.709-1.356-1.162-2.846-2.231-3.944-3.607-1.486-1.861-3.01-3.831-3.907-6.007-4.853-11.777-9.348-23.702-14.31-35.428-2.91-6.878 2.297-10.894 7.841-10.566 3.822.228 6.882 2.046 9.559 4.626 4.234 4.079 7.008 9.126 9.454 14.383.395.855.745 1.739 1.216 2.551.169.29.69.606.964.543.278-.063.48-.568.653-.913.084-.169.025-.413.025-.623V86.141c0-.253-.034-.51-.063-.972h-1.722c-7.404 0-14.808.004-22.212-.005-2.647 0-3.392-.74-3.397-3.35-.004-2.627-.004-5.253 0-7.875.005-2.551.72-3.267 3.267-3.288.619-.004 1.237 0 1.957 0V40.854c-.303.026-.598.03-.884.08-3.199.61-6.39-.787-7.808-3.426-1.7-3.17-1.41-6.385 1.242-8.768 2.252-2.024 4.84-3.674 7.286-5.48 1.056-.779 2.113-1.557 3.212-2.277 1.258-.825 2.563-.632 3.354.42.813 1.082.577 2.522-.673 3.44-2.968 2.167-5.969 4.28-8.953 6.427-.425.303-.867.606-1.217.99-.93 1.022-1.065 2.159-.214 3.287.812 1.077 1.936 1.203 3.106.71.568-.239 1.074-.651 1.583-1.018 9.87-7.042 19.733-14.088 29.599-21.134 1.99-1.423 2.437-1.418 4.474.034 9.909 7.075 19.8 14.176 29.742 21.205.779.552 1.974 1.032 2.812.838.745-.172 1.486-1.233 1.823-2.07.446-1.112-.308-1.962-1.238-2.623-5.346-3.805-10.674-7.627-16.012-11.44-5.724-4.088-11.444-8.175-17.173-12.254-1.945-1.384-2.53-1.376-4.504.034-4.912 3.506-9.79 7.063-14.762 10.485-.749.518-2.037.804-2.866.539-1.823-.573-1.844-2.88-.11-4.138 3.65-2.652 7.303-5.303 11.024-7.862 2.442-1.68 5-3.195 7.51-4.786.93.02 1.877.02 2.82.02ZM50.8 80.345H73.3V75.52H50.8v4.824Zm42.139.02h21.521v-4.873H92.939v4.874Zm17.059-68.461h-5.114c.11 1.515-.278 3.274.425 4.192 1.099 1.431 2.943 2.294 4.689 3.557v-7.75ZM33.4 53.28c0 3.148.088 6.297-.06 9.437-.037.85-.58 2.046-1.254 2.395-.686.358-1.999.164-2.719-.295-4.73-3.01-9.386-6.133-14.037-9.264-1.97-1.33-1.983-2.93-.03-4.252 4.731-3.198 9.483-6.372 14.26-9.5 2.22-1.448 3.798-.585 3.823 2.038.042 3.148.017 6.297.017 9.44Zm-4.845 5.383V48.157c-2.694 1.793-5.198 3.46-7.892 5.258 2.694 1.793 5.198 3.455 7.892 5.248ZM131.562 53.208c0-3.098-.034-6.191.013-9.29.038-2.735 1.608-3.586 3.914-2.075 4.782 3.132 9.526 6.318 14.261 9.517 1.873 1.267 1.869 2.846-.03 4.126-4.697 3.165-9.399 6.322-14.176 9.36-.711.451-2.042.607-2.719.236-.665-.37-1.166-1.57-1.208-2.432-.139-3.14-.055-6.293-.055-9.442Zm4.815 5.506 7.947-5.3a9329.677 9329.677 0 0 1-7.947-5.295v10.595ZM136.979 137.219c0 1.68.026 3.359-.008 5.035-.063 2.967-1.074 5.568-3.3 7.559-1.696 1.516-2.437 3.317-2.345 5.569.08 1.886.055 3.776-.004 5.666-.046 1.368-1.031 2.31-2.273 2.344-1.246.034-2.361-.884-2.391-2.222-.059-2.673-.105-5.359.085-8.019.181-2.487 1.342-4.626 3.228-6.284 1.658-1.461 2.344-3.245 2.302-5.438-.067-3.25-.029-6.504-.012-9.757.008-1.739.875-2.783 2.277-2.825 1.444-.042 2.412 1.074 2.437 2.863.025 1.839.004 3.674.004 5.509Z" fill="#009CD7"/><path d="M89.773 33.779c-.02 4.087-3.068 7.105-7.185 7.109-3.973.004-7.139-3.212-7.113-7.223.025-3.944 3.16-7.1 7.067-7.113 4.184-.017 7.252 3.051 7.231 7.227Zm-7.147-2.492c-1.452.012-2.441 1.056-2.395 2.53.042 1.38 1.044 2.344 2.429 2.34 1.401-.004 2.458-1.111 2.412-2.53-.047-1.347-1.095-2.353-2.446-2.34ZM65.806 58.356c0 1.574.038 3.149-.013 4.719-.046 1.532-.93 2.42-2.306 2.437-1.377.017-2.353-.867-2.378-2.37-.055-3.199-.05-6.398-.005-9.597.022-1.515.964-2.433 2.316-2.45 1.418-.017 2.34.926 2.378 2.538.042 1.579.008 3.153.008 4.723ZM104.964 58.322c0 1.575.038 3.145-.012 4.715-.051 1.59-.872 2.437-2.257 2.47-1.38.034-2.369-.8-2.407-2.336-.076-3.245-.076-6.498.004-9.744.038-1.52 1.052-2.37 2.42-2.323 1.36.046 2.189.922 2.235 2.5.055 1.574.017 3.148.017 4.718Z" fill="#009CD7"/></svg>