<svg width="32" height="32" fill="none" xmlns="http://www.w3.org/2000/svg"><path d="M4.263 2H2a1 1 0 0 0 0 2h2.253L7.74 23.179a1 1 0 0 0 .984.821H23a1 1 0 1 0 0-2H9.56L6.222 3.65c-.126-.71-.677-1.177-.677-1.177C4.994 2.007 4.263 2 4.263 2Z" fill="#009CD7"/><path fill-rule="evenodd" clip-rule="evenodd" d="M10 22s1.45 0 2.475 1.025c0 0 1.025 1.025 1.025 2.475 0 0 0 1.45-1.025 2.475 0 0-1.025 1.025-2.475 1.025 0 0-1.45 0-2.475-1.025 0 0-1.025-1.025-1.025-2.475 0 0 0-1.45 1.025-2.475C7.525 23.025 8.55 22 10 22Zm0 2s-.621 0-1.06.44c0 0-.44.439-.44 1.06 0 0 0 .621.44 1.06 0 0 .439.44 1.06.44 0 0 .621 0 1.06-.44 0 0 .44-.439.44-1.06 0 0 0-.621-.44-1.06 0 0-.439-.44-1.06-.44ZM23 22s1.45 0 2.475 1.025c0 0 1.025 1.025 1.025 2.475 0 0 0 1.45-1.025 2.475 0 0-1.025 1.025-2.475 1.025 0 0-1.45 0-2.475-1.025 0 0-1.025-1.025-1.025-2.475 0 0 0-1.45 1.025-2.475 0 0 1.025-1.025 2.475-1.025Zm0 2s-.621 0-1.06.44c0 0-.44.439-.44 1.06 0 0 0 .621.44 1.06 0 0 .439.44 1.06.44 0 0 .621 0 1.06-.44 0 0 .44-.439.44-1.06 0 0 0-.621-.44-1.06 0 0-.439-.44-1.06-.44Z" fill="#009CD7"/><path d="M27 7H6a1 1 0 0 0 0 2h19.801l-1.31 7.183c-.064.357-.34.588-.34.588-.276.23-.636.229-.636.229H7.813a1 1 0 1 0 0 2H23.51c1.088.003 1.924-.694 1.924-.694.835-.697 1.026-1.764 1.026-1.764l1.525-8.363A1 1 0 0 0 27 7Z" fill="#009CD7"/></svg>