<?xml version="1.0" encoding="utf-8"?><svg xmlns="http://www.w3.org/2000/svg" xmlns:xlink="http://www.w3.org/1999/xlink"><symbol fill="none" viewBox="0 0 32 32" id="icon-add" xmlns="http://www.w3.org/2000/svg"><path d="M17 7a1 1 0 1 0-2 0v8H7a1 1 0 1 0 0 2h8v8a1 1 0 1 0 2 0v-8h8a1 1 0 1 0 0-2h-8V7Z" fill="currentColor"/></symbol><symbol fill="none" viewBox="0 0 77 43" id="icon-arrowrect" xmlns="http://www.w3.org/2000/svg"><path d="m58 21-5-2.887v5.774L58 21Zm-58 .5h53.5v-1H0v1Z" fill="currentColor"/></symbol><symbol fill="none" viewBox="0 0 32 32" id="icon-arrowup" xmlns="http://www.w3.org/2000/svg"><path d="M17 27V5a1 1 0 1 0-2 0v22a1 1 0 1 0 2 0Z" fill="currentColor"/><path d="m16 6.414 8.293 8.293a1 1 0 0 0 1.414-1.414l-9-9a1 1 0 0 0-1.414 0l-9 9A1.001 1.001 0 0 0 7 15a1 1 0 0 0 .707-.293L16 6.414Z" fill="currentColor"/></symbol><symbol fill="none" viewBox="0 0 32 32" id="icon-caretdow" xmlns="http://www.w3.org/2000/svg"><path d="M6.707 11.293a1 1 0 0 0-1.414 1.414l10 10a1 1 0 0 0 1.414 0l10-10a1 1 0 0 0-1.414-1.414L16 20.586l-9.293-9.293Z" fill="currentColor"/></symbol><symbol fill="none" viewBox="0 0 32 32" id="icon-caretleft" xmlns="http://www.w3.org/2000/svg"><path d="M20.707 6.707a1 1 0 0 0 0-1.414l-.009-.009a1 1 0 0 0-1.405.009l-10 10a1 1 0 0 0 0 1.414l10 10a1 1 0 0 0 1.414-1.414L11.414 16l9.293-9.293Z" fill="currentColor"/></symbol><symbol fill="none" viewBox="0 0 32 32" id="icon-caretright" xmlns="http://www.w3.org/2000/svg"><path d="m20.586 16-9.293 9.293a1 1 0 0 0 1.414 1.414l10-10a1 1 0 0 0 0-1.414l-10-10a1 1 0 1 0-1.414 1.414L20.586 16Z" fill="currentColor"/></symbol><symbol fill="none" viewBox="0 0 32 32" id="icon-caretup" xmlns="http://www.w3.org/2000/svg"><path d="m16 11.414 9.293 9.293a1 1 0 0 0 1.414-1.414l-10-10a1 1 0 0 0-1.414 0l-10 10a1 1 0 1 0 1.414 1.414L16 11.414Z" fill="currentColor"/></symbol><symbol fill="none" viewBox="0 0 32 32" id="icon-chat" xmlns="http://www.w3.org/2000/svg"><path d="M27 6H5a2 2 0 0 0-2 2v19.85a1.962 1.962 0 0 0 1.163 1.813 2 2 0 0 0 2.125-.276l3.962-3.337L27 26a2 2 0 0 0 2-2V8a2 2 0 0 0-2-2Zm-7 13h-8a1 1 0 0 1 0-2h8a1 1 0 0 1 0 2Zm0-4h-8a1 1 0 0 1 0-2h8a1 1 0 0 1 0 2Z" fill="currentColor"/></symbol><symbol fill="none" viewBox="0 0 32 32" id="icon-close" xmlns="http://www.w3.org/2000/svg"><path d="M10.344 8.929a1 1 0 1 0-1.414 1.414L14.586 16 8.93 21.657a1 1 0 1 0 1.414 1.414L16 17.414l5.656 5.657a1 1 0 0 0 1.415-1.414L17.415 16l5.657-5.657a1 1 0 0 0-1.414-1.414L16 14.586l-5.657-5.657Z" fill="currentColor"/></symbol><symbol fill="none" viewBox="0 0 16 16" id="icon-dzen" xmlns="http://www.w3.org/2000/svg"><path d="M9.543 9.543C8.286 10.84 8.194 12.457 8.086 16c3.303 0 5.583-.011 6.76-1.154C15.989 13.669 16 11.28 16 8.086c-3.543.114-5.16.2-6.457 1.457ZM0 8.086c0 3.194.011 5.583 1.154 6.76C2.331 15.989 4.611 16 7.914 16c-.114-3.543-.2-5.16-1.457-6.457C5.16 8.286 3.543 8.194 0 8.086ZM7.914 0c-3.297 0-5.583.011-6.76 1.154C.011 2.331 0 4.72 0 7.914c3.543-.114 5.16-.2 6.457-1.457C7.714 5.16 7.806 3.543 7.914 0Zm1.629 6.457C8.286 5.16 8.194 3.543 8.086 0c3.303 0 5.583.011 6.76 1.154C15.989 2.331 16 4.72 16 7.914c-3.543-.114-5.16-.2-6.457-1.457" fill="currentColor"/><path d="M16 8.086v-.172c-3.543-.114-5.16-.2-6.457-1.457C8.286 5.16 8.194 3.543 8.086 0h-.172c-.114 3.543-.2 5.16-1.457 6.457C5.16 7.714 3.543 7.806 0 7.914v.172c3.543.114 5.16.2 6.457 1.457C7.714 10.84 7.806 12.457 7.914 16h.172c.114-3.543.2-5.16 1.457-6.457C10.84 8.286 12.457 8.194 16 8.086" fill="rgba(255,255,255,0)"/></symbol><symbol fill="none" viewBox="0 0 32 32" id="icon-file" xmlns="http://www.w3.org/2000/svg"><path d="M28 10.667V27.99c0 .742-.593 1.342-1.325 1.342H5.325A1.324 1.324 0 0 1 4 28.011V3.989a1.34 1.34 0 0 1 1.336-1.322h14.66l8.004 8ZM25.333 12h-6.666V5.333h-12v21.334h18.666V12Z" fill="currentColor"/></symbol><symbol fill="none" viewBox="0 0 32 32" id="icon-filter" xmlns="http://www.w3.org/2000/svg"><path d="M17 20.5H5a1 1 0 1 0 0 2h12a1 1 0 1 0 0-2Zm10 0h-6a1 1 0 1 0 0 2h6a1 1 0 1 0 0-2ZM9 9.5H5a1 1 0 0 0 0 2h4a1 1 0 1 0 0-2Zm18 0H13a1 1 0 1 0 0 2h14a1 1 0 1 0 0-2Z" fill="currentColor"/><path d="M12 7.5v6a1 1 0 1 0 2 0v-6a1 1 0 1 0-2 0Zm10 17v-6a1 1 0 1 0-2 0v6a1 1 0 1 0 2 0Z" fill="currentColor"/></symbol><symbol fill="none" viewBox="0 0 32 32" id="icon-minimize" xmlns="http://www.w3.org/2000/svg"><path fill-rule="evenodd" clip-rule="evenodd" d="M6 16a1 1 0 0 1 1-1h18a1 1 0 1 1 0 2H7a1 1 0 0 1-1-1Z" fill="currentColor"/></symbol><symbol fill="currentColor" viewBox="0 0 32 32" id="icon-phonecall" xmlns="http://www.w3.org/2000/svg"><path d="M20.185 4.034c2.847.765 4.932 2.85 4.932 2.85 2.084 2.084 2.849 4.931 2.849 4.931.022.082.033.167.034.252v.008a1 1 0 0 1-.982 1H27a1 1 0 0 1-.966-.74v-.002c-.626-2.33-2.331-4.036-2.331-4.036-1.707-1.706-4.037-2.331-4.037-2.331a1 1 0 0 1-.709-1.218l.002-.007a1 1 0 0 1 1.218-.709l.008.002Zm1.985 9.335a1 1 0 0 0 .967.744h.005a1 1 0 0 0 .995-1v-.006a1 1 0 0 0-.033-.251c-.483-1.817-1.813-3.147-1.813-3.147-1.33-1.33-3.147-1.813-3.147-1.813a1 1 0 0 0-.256-.033h-.02a1 1 0 0 0-.237 1.966c1.297.345 2.246 1.294 2.246 1.294.95.949 1.294 2.246 1.294 2.246Z"/><path fill-rule="evenodd" clip-rule="evenodd" d="m14.548 12-2.084 3.168s1.438 2.965 4.402 4.39l.003-.002 3.12-2.084s.423-.287.933-.334c0 0 .51-.047.973.156l5.84 2.508s.62.258.956.84c0 0 .337.581.25 1.248 0 0-.335 2.62-2.317 4.364 0 0-1.983 1.745-4.624 1.746 0 0-3.58 0-6.888-1.37 0 0-3.308-1.37-5.84-3.902 0 0-2.532-2.532-3.902-5.84C5.37 16.888 4 13.58 4 10c0 0 0-2.641 1.746-4.624 0 0 1.745-1.982 4.364-2.318 0 0 .667-.086 1.248.25 0 0 .582.337.836.948l2.51 5.858s.2.458.16.956c0 0-.04.498-.316.93Zm-3.887 4.032-.002-.004s-.224-.469-.19-.988c0 0 .033-.52.317-.958l2.084-3.171-2.514-5.867s-1.866.241-3.11 1.654C7.247 6.698 6 8.114 6 10c0 0 0 3.182 1.218 6.123 0 0 1.218 2.94 3.468 5.19 0 0 2.25 2.251 5.191 3.469 0 0 2.94 1.218 6.123 1.218 0 0 1.886 0 3.302-1.247 0 0 1.413-1.243 1.655-3.109l-5.851-2.513-3.126 2.088s-.435.294-.963.334c0 0-.529.04-1.008-.187 0 0-3.605-1.734-5.347-5.33v-.002l-.002-.002Z"/></symbol><symbol fill="none" viewBox="0 0 32 32" id="icon-print" xmlns="http://www.w3.org/2000/svg"><path d="M22.666 2.667c.736 0 1.333.597 1.333 1.333v5.333h4c.737 0 1.334.597 1.334 1.334V24c0 .736-.597 1.333-1.334 1.333h-4V28c0 .736-.597 1.333-1.333 1.333H9.333A1.333 1.333 0 0 1 7.999 28v-2.667H4A1.333 1.333 0 0 1 2.666 24V10.667c0-.737.597-1.334 1.333-1.334h4V4c0-.736.597-1.333 1.334-1.333h13.333Zm-1.333 20H10.666v4h10.667v-4ZM26.666 12H5.333v10.667h2.666v-1.334A1.334 1.334 0 0 1 9.333 20h13.333c.736 0 1.333.597 1.333 1.333v1.334h2.667V12Zm-16 1.333V16h-4v-2.667h4Zm10.667-8H10.666v4h10.667v-4Z" fill="currentColor"/></symbol><symbol fill="none" viewBox="0 0 32 32" id="icon-rows" xmlns="http://www.w3.org/2000/svg"><path fill-rule="evenodd" clip-rule="evenodd" d="M4 19s0-.828.586-1.414c0 0 .586-.586 1.414-.586h20s.828 0 1.414.586c0 0 .586.586.586 1.414v5s0 .828-.586 1.414c0 0-.586.586-1.414.586H6s-.828 0-1.414-.586c0 0-.586-.586-.586-1.414v-5Zm2 0v5h20v-5H6ZM4 8s0-.828.586-1.414C4.586 6.586 5.172 6 6 6h20s.828 0 1.414.586c0 0 .586.586.586 1.414v5s0 .828-.586 1.414c0 0-.586.586-1.414.586H6s-.828 0-1.414-.586c0 0-.586-.586-.586-1.414V8Zm2 0v5h20V8H6Z" fill="currentColor"/></symbol><symbol fill="none" viewBox="0 0 32 32" id="icon-share" xmlns="http://www.w3.org/2000/svg"><path d="M13.333 4v2.667H6.667v18.666h18.666v-6.666H28v8c0 .736-.597 1.333-1.333 1.333H5.333A1.333 1.333 0 0 1 4 26.667V5.333C4 4.597 4.597 4 5.333 4h8Zm10.115 2.667h-6.115V4H28v10.667h-2.667V8.552L16 17.886 14.114 16l9.334-9.333Z" fill="currentColor"/></symbol><symbol fill="none" viewBox="0 0 32 32" id="icon-squares" xmlns="http://www.w3.org/2000/svg"><path fill-rule="evenodd" clip-rule="evenodd" d="M5 14V6a1 1 0 0 1 1-1h8a1 1 0 0 1 1 1v8a1 1 0 0 1-1 1H6a1 1 0 0 1-1-1Zm8-1H7V7h6v6Zm4 1V6a1 1 0 0 1 1-1h8a1 1 0 0 1 1 1v8a1 1 0 0 1-1 1h-8a1 1 0 0 1-1-1Zm8-1h-6V7h6v6ZM5 26v-8a1 1 0 0 1 1-1h8a1 1 0 0 1 1 1v8a1 1 0 0 1-1 1H6a1 1 0 0 1-1-1Zm8-1H7v-6h6v6Zm4 1v-8a1 1 0 0 1 1-1h8a1 1 0 0 1 1 1v8a1 1 0 0 1-1 1h-8a1 1 0 0 1-1-1Zm8-1h-6v-6h6v6Z" fill="currentColor"/></symbol><symbol fill="none" viewBox="0 0 16 14" id="icon-telegram" xmlns="http://www.w3.org/2000/svg"><path d="m15.2.482-2.404 12.552s-.337.87-1.26.453L5.987 9.082l-.026-.013c.75-.697 6.56-6.107 6.814-6.352.393-.38.149-.606-.307-.32L3.885 8.043.575 6.89s-.522-.192-.572-.61c-.05-.418.588-.644.588-.644l13.5-5.484S15.2-.354 15.2.481Z" fill="currentColor"/></symbol><symbol fill="none" viewBox="0 0 18 12" id="icon-vk" xmlns="http://www.w3.org/2000/svg"><path d="M9.586 11.2C3.573 11.2.143 6.996 0 0h3.012c.1 5.135 2.32 7.31 4.079 7.758V0h2.836v4.428c1.737-.19 3.562-2.208 4.177-4.428h2.836a8.632 8.632 0 0 1-1.358 3.202 8.445 8.445 0 0 1-2.5 2.381 8.715 8.715 0 0 1 2.85 2.314A8.92 8.92 0 0 1 17.6 11.2h-3.122a5.552 5.552 0 0 0-1.683-2.702 5.38 5.38 0 0 0-2.868-1.3V11.2h-.341Z" fill="currentColor"/></symbol><symbol fill="none" viewBox="0 0 18 12" id="icon-youtube" xmlns="http://www.w3.org/2000/svg"><path fill-rule="evenodd" clip-rule="evenodd" d="M1.81 11.646a2.057 2.057 0 0 1-.835-.482 1.99 1.99 0 0 1-.513-.803C-.126 8.79-.3 2.23.832.934c.376-.42.907-.68 1.478-.721 3.034-.319 12.408-.276 13.485.106.302.096.579.257.809.472.23.215.406.478.517.77.642 1.624.664 7.526-.087 9.087a2.03 2.03 0 0 1-.946.934c-1.13.552-12.777.541-14.278.063Zm4.817-3.079 5.438-2.76-5.438-2.781v5.541Z" fill="currentColor"/></symbol></svg>