<svg width="80" height="80" viewBox="0 0 80 80" fill="none" xmlns="http://www.w3.org/2000/svg">
<g clip-path="url(#clip0_152_2505)">
<path d="M0 77.0312C0 74.0104 0 70.9896 0 67.9688C0.297917 67.3813 0.595833 66.7937 0.872917 66.25C0.575 65.6646 0.2875 65.0979 0 64.5312C0 61.5104 0 58.4896 0 55.4687C0.297917 54.8812 0.595833 54.2937 0.870833 53.75C0.572917 53.1625 0.285417 52.5979 0 52.0312C0 49.0104 0 45.9896 0 42.9688C0.297917 42.3812 0.595833 41.7938 0.870833 41.25C0.572917 40.6625 0.285417 40.0979 0 39.5312C0 36.5104 0 33.4896 0 30.4688C0.297917 29.8813 0.595833 29.2938 0.870833 28.75C0.572917 28.1625 0.285417 27.5979 0 27.0312C0 24.0104 0 20.9896 0 17.9688C0.779167 15.7375 2.37083 14.9333 4.69375 14.9729C9.925 15.0604 15.1604 15.0167 20.3917 14.9896C21.6208 14.9833 22.7771 15.1083 23.5583 15.7937C24.5292 15.4958 25.3187 15.1562 26.1417 15.0312C26.9562 14.9083 27.8042 14.9896 28.6375 15.0062C29.4458 15.0229 29.9729 15.5125 29.9937 16.2167C30.0146 16.9479 29.4646 17.475 28.625 17.4958C27.9229 17.5146 27.2187 17.4937 26.5167 17.5021C25.4479 17.5146 25.0062 17.9521 25.0021 19.0292C24.9958 21.3458 24.9937 23.6625 25.0021 25.9812C25.0062 27.05 25.4542 27.4938 26.5271 27.4979C28.8187 27.5063 31.1083 27.5 33.4 27.5C34.3375 27.5 35.275 27.4812 36.2125 27.5083C36.9646 27.5292 37.4729 28.0354 37.4937 28.7125C37.5146 29.4188 36.9896 29.9458 36.2062 29.9937C35.9729 30.0083 35.7375 29.9979 35.5042 29.9979C28.7875 29.9979 22.0708 29.9958 15.3542 30C14.1792 30 13.7562 30.425 13.7542 31.5979C13.7458 33.7604 13.75 35.9229 13.75 38.0833C13.75 39.6792 14.0687 40 15.6604 40C27.975 40 40.2896 40.0063 52.6042 39.9917C53.9229 39.9896 55.2125 40 56.1042 40.8396C56.925 40.5312 57.5812 40.2021 58.275 40.0438C59.1792 39.8375 59.875 40.3187 59.9833 41.0833C60.0875 41.8167 59.6104 42.3438 58.6771 42.5C57.925 42.625 57.5083 43.0563 57.5042 43.8167C57.4917 46.2646 57.4896 48.7104 57.5062 51.1583C57.5125 51.9917 57.9917 52.4875 58.8167 52.4875C64.5958 52.5 70.3771 52.5 76.1562 52.4896C76.9854 52.4875 77.2687 52.0833 77.5333 51.1917C77.6625 50.7583 78.0604 50.2083 78.4417 50.1042C78.8229 50.0021 79.3375 50.3875 79.7896 50.5729C79.8729 50.6083 79.9292 50.7083 79.9979 50.7792C79.9979 51.1958 79.9979 51.6125 79.9979 52.0292C79.7 52.6167 79.4021 53.2021 79.1271 53.7479C79.425 54.3354 79.7104 54.9021 79.9979 55.4667C79.9979 58.4875 79.9979 61.5083 79.9979 64.5292C79.7 65.1167 79.4021 65.7021 79.1271 66.2479C79.425 66.8354 79.7104 67.4021 79.9979 67.9667C79.9979 70.9875 79.9979 74.0083 79.9979 77.0292C79.5 78.5104 78.5104 79.5 77.0292 79.9979C70.675 79.9979 64.3208 79.9979 57.9667 79.9979C57.3792 79.7 56.7937 79.4021 56.2479 79.125C55.6604 79.4229 55.0958 79.7104 54.5292 79.9979C44.8417 79.9979 35.1542 79.9979 25.4667 79.9979C24.8792 79.7 24.2937 79.4021 23.7479 79.125C23.1604 79.4229 22.5958 79.7104 22.0292 79.9979C15.675 79.9979 9.32083 79.9979 2.96667 79.9979C1.4875 79.5021 0.495833 78.5146 0 77.0312ZM40.0021 42.5C35.5229 42.5 31.0437 42.4979 26.5667 42.5021C25.4417 42.5042 25.0062 42.9375 25.0021 44.0583C24.9958 46.3229 24.9979 48.5896 25.0021 50.8542C25.0042 52.0812 25.4167 52.4958 26.6375 52.4979C28.1479 52.5021 29.6583 52.4958 31.1687 52.5021C31.8562 52.5042 32.3229 52.8458 32.4646 53.5146C32.5917 54.1146 32.3417 54.6125 31.7708 54.85C31.4729 54.975 31.1146 54.9917 30.7833 54.9937C25.6271 55.0021 20.4708 54.9979 15.3167 55.0021C14.1917 55.0021 13.7562 55.4396 13.7542 56.5604C13.7458 58.7729 13.75 60.9854 13.75 63.2C13.75 64.6375 14.1125 65 15.5437 65C22.2354 65 28.9271 65 35.6208 65C37.8333 65 40.0479 65.0062 42.2604 64.9979C43.2187 64.9937 43.7333 64.5542 43.7417 63.675C43.7625 61.2271 43.7604 58.7792 43.7417 56.3312C43.7354 55.5 43.2521 55.0458 42.4229 55.0042C42.1896 54.9917 41.9542 55 41.7208 55C39.925 55 38.1271 55.0125 36.3312 54.9917C35.5312 54.9833 35.0083 54.4604 35.0062 53.7521C35.0042 53.0417 35.5271 52.5437 36.325 52.5042C36.5333 52.4937 36.7417 52.5021 36.95 52.5C42.4437 52.5 47.9396 52.5021 53.4333 52.4979C54.5562 52.4979 54.9937 52.0583 54.9979 50.9396C55.0042 48.7 55.0021 46.4604 55 44.2208C54.9979 42.8896 54.6104 42.5 53.2833 42.5C48.8562 42.5 44.4292 42.5 40.0021 42.5ZM39.9208 77.5C44.425 77.5 48.9312 77.5021 53.4354 77.4979C54.5562 77.4958 54.9937 77.0562 54.9979 75.9354C55.0042 73.6438 55.0042 71.3521 54.9979 69.0604C54.9958 67.9396 54.5583 67.5 53.4354 67.5C44.4771 67.4979 35.5208 67.4979 26.5625 67.5C25.4396 67.5 25.0042 67.9375 25.0021 69.0604C24.9958 71.3 24.9979 73.5396 25 75.7792C25.0021 77.1083 25.3896 77.4979 26.7187 77.4979C31.1187 77.5 35.5208 77.5 39.9208 77.5ZM12.5 27.5C15.3125 27.5 18.125 27.5042 20.9375 27.4979C22.0562 27.4958 22.4958 27.0562 22.4979 25.9354C22.5042 23.6437 22.5042 21.3521 22.4979 19.0604C22.4958 17.9396 22.0562 17.5021 20.9354 17.5021C15.3104 17.4979 9.68542 17.4979 4.0625 17.5021C2.93958 17.5021 2.50625 17.9396 2.50208 19.0625C2.49583 21.3271 2.49792 23.5938 2.50208 25.8583C2.50417 27.0833 2.91667 27.4958 4.14167 27.4979C6.92708 27.5021 9.71458 27.5 12.5 27.5ZM12.4979 52.5C15.3104 52.5 18.1229 52.5042 20.9354 52.4979C22.0562 52.4958 22.4958 52.0562 22.4979 50.9375C22.5042 48.6458 22.5042 46.3542 22.4979 44.0625C22.4958 42.9417 22.0583 42.5021 20.9375 42.5021C15.3125 42.4979 9.6875 42.4979 4.06458 42.5021C2.94167 42.5021 2.50625 42.9396 2.50417 44.0625C2.49792 46.3271 2.5 48.5937 2.50417 50.8583C2.50625 52.0833 2.91875 52.4979 4.14375 52.5C6.92708 52.5021 9.7125 52.5 12.4979 52.5ZM56.225 65C59.0375 65 61.85 65.0042 64.6625 64.9979C65.7979 64.9958 66.2437 64.5646 66.2479 63.4604C66.2542 61.1437 66.2562 58.825 66.2479 56.5083C66.2437 55.4479 65.7896 55.0042 64.7104 55.0021C59.0604 54.9979 53.4083 54.9979 47.7583 55.0021C46.6958 55.0021 46.2562 55.4583 46.2521 56.5375C46.2458 58.8292 46.2458 61.1208 46.2521 63.4125C46.2542 64.575 46.6854 64.9958 47.8667 64.9979C50.6521 65.0021 53.4396 65 56.225 65ZM12.4979 77.5C15.3104 77.5 18.1229 77.5042 20.9354 77.4979C22.0562 77.4958 22.4958 77.0583 22.5 75.9375C22.5062 73.6458 22.5062 71.3542 22.5 69.0625C22.4979 67.9396 22.0604 67.5 20.9396 67.5C15.3146 67.4958 9.68958 67.4958 4.06667 67.5C2.94167 67.5 2.50625 67.9375 2.50417 69.0583C2.49792 71.3229 2.5 73.5896 2.50417 75.8542C2.50625 77.0813 2.91875 77.4958 4.14167 77.4958C6.925 77.5021 9.71042 77.5 12.4979 77.5ZM67.4979 67.5C64.6854 67.5 61.8729 67.4958 59.0604 67.5021C57.9375 67.5042 57.5042 67.9396 57.5 69.0625C57.4937 71.3542 57.4937 73.6458 57.5 75.9375C57.5021 77.0583 57.9396 77.4979 59.0604 77.4979C64.6854 77.5021 70.3104 77.5021 75.9333 77.4979C77.0521 77.4979 77.4917 77.0562 77.4937 75.9354C77.5 73.6708 77.4979 71.4042 77.4937 69.1396C77.4917 67.9167 77.0771 67.5021 75.8521 67.5021C73.0708 67.4979 70.2854 67.5 67.4979 67.5ZM11.25 35.0687C11.25 33.8708 11.2583 32.6729 11.2479 31.475C11.2375 30.4583 10.7833 30.0062 9.75833 30.0021C7.83125 29.9937 5.90417 29.9917 3.97708 30.0021C2.95833 30.0083 2.50833 30.4625 2.50417 31.4917C2.49583 33.8354 2.49583 36.1792 2.50417 38.5229C2.50833 39.5396 2.96667 39.9917 3.99167 39.9979C5.91875 40.0083 7.84583 40.0083 9.77292 39.9979C10.7875 39.9917 11.2396 39.5333 11.2479 38.5083C11.2583 37.3604 11.25 36.2146 11.25 35.0687ZM11.25 60.0479C11.25 58.85 11.2604 57.6521 11.2479 56.4542C11.2375 55.4771 10.7812 55.0104 9.81458 55.0042C7.8625 54.9917 5.90833 54.9917 3.95625 55.0042C2.97708 55.0104 2.51042 55.4667 2.50625 56.4354C2.49375 58.8042 2.49583 61.175 2.50625 63.5438C2.51042 64.5208 2.97083 64.9896 3.9375 64.9958C5.88958 65.0083 7.84375 65.0083 9.79583 64.9958C10.7729 64.9896 11.2354 64.5292 11.2479 63.5625C11.2604 62.3917 11.25 61.2188 11.25 60.0479ZM77.5 60.0521C77.5 58.8542 77.5104 57.6562 77.4979 56.4583C77.4875 55.4792 77.0333 55.0104 76.0687 55.0042C74.1167 54.9917 72.1625 54.9917 70.2104 55.0042C69.2292 55.0104 68.7604 55.4646 68.7562 56.4312C68.7437 58.8 68.7458 61.1708 68.7562 63.5396C68.7604 64.5187 69.2208 64.9896 70.1833 64.9958C72.1354 65.0083 74.0896 65.0083 76.0417 64.9958C77.0458 64.9896 77.4917 64.5229 77.5 63.4896C77.5062 62.3437 77.5 61.1979 77.5 60.0521Z" fill="#009CD7"/>
<path d="M80 44.5313C79.6667 45.7396 79.25 46.8979 78.3875 47.8625C76.0688 50.4563 72.0146 50.8104 69.4875 48.4229C66.2896 45.4042 63.2312 42.2375 60.1271 39.1188C59.5292 38.5188 59.5521 37.8833 60.1521 37.2625C60.4188 36.9875 60.7687 36.7917 61.0208 36.6063C59.6687 35.25 58.4813 34.0604 57.2417 32.8188C55.725 34.3375 54.1646 35.8979 52.6062 37.4625C51.3125 38.7604 49.7667 39.4729 47.9208 39.4146C45.2521 39.3313 43.3292 38.0521 42.1854 35.65C39.3583 29.7125 36.5521 23.7646 33.7375 17.8208C32.7583 15.7542 31.7729 13.6896 30.7979 11.6208C29.3917 8.6375 29.8417 6.03333 32.1583 3.70833C32.3417 3.52292 32.5354 3.34792 32.7083 3.15417C34.0312 1.68333 35.5 0.439583 37.5 0C38.1771 0 38.8542 0 39.5312 0C43.1417 1.64792 46.7562 3.2875 50.3604 4.94792C51.2083 5.3375 51.4792 6.025 51.1333 6.7125C50.7896 7.39375 50.1021 7.57917 49.25 7.17708C46.3792 5.82708 43.5146 4.46458 40.65 3.10417C38.525 2.09583 37.0792 2.33958 35.4271 3.9875C34.9667 4.44792 34.5062 4.90833 34.0458 5.36875C32.3375 7.07708 32.0854 8.4875 33.1083 10.6479C35.9875 16.7354 38.8688 22.8208 41.7521 28.9083C42.6208 30.7417 43.4854 32.575 44.3625 34.4042C45.7271 37.2479 48.725 37.7875 50.9542 35.5833C52.4875 34.0688 54.0042 32.5396 55.6042 30.9375C54.6458 29.9958 53.7146 29.1313 52.8396 28.2104C51.7396 27.0521 51.4188 25.6854 51.9958 24.175C52.5646 22.6854 53.7208 21.9208 55.2687 21.7792C56.4417 21.6729 57.4729 22.0875 58.3104 22.925C59.1729 23.7875 60.0229 24.6625 60.9875 25.6458C61.8187 24.7812 62.5833 23.975 63.3604 23.1833C64.1083 22.4208 64.875 21.6771 65.6229 20.9167C67.75 18.75 67.2417 15.7292 64.4979 14.4042C61.4083 12.9125 58.2958 11.4625 55.1958 9.99375C54.9833 9.89375 54.7687 9.8 54.5625 9.68958C53.825 9.3 53.5542 8.67292 53.8354 8.02083C54.1292 7.33958 54.8417 7.075 55.6104 7.43542C59.0937 9.07083 62.6042 10.6521 66.0333 12.3979C69.8083 14.3188 70.5625 19.3083 67.6208 22.4313C66.2292 23.9083 64.7583 25.3125 63.325 26.7521C63.1458 26.9333 62.975 27.125 62.8542 27.2542C64.0708 28.475 65.2583 29.6667 66.6125 31.025C66.7979 30.7729 66.9917 30.4229 67.2667 30.1542C67.8833 29.5542 68.5229 29.5313 69.1229 30.1313C72.2417 33.2354 75.4 36.3042 78.4125 39.5083C79.1854 40.3292 79.4854 41.5958 80.0021 42.6563C80 43.2813 80 43.9063 80 44.5313ZM62.7896 38.2792C65.4958 40.9771 68.2 43.6792 70.9125 46.375C72.5896 48.0438 74.9854 48.0917 76.5521 46.5042C78.0938 44.9417 78.0354 42.5625 76.3979 40.9188C73.8271 38.3375 71.2479 35.7667 68.6687 33.1917C68.5271 33.05 68.3667 32.925 68.2417 32.8167C66.4313 34.6313 64.65 36.4146 62.7896 38.2792ZM64.5708 32.7771C64.4854 32.6667 64.4438 32.6 64.3896 32.5438C61.7958 29.9458 59.2042 27.3458 56.6 24.7583C55.7396 23.9042 54.4521 24.1479 54.3042 25.2313C54.2437 25.6792 54.5146 26.3104 54.8479 26.6542C57.3333 29.2125 59.8729 31.7167 62.3979 34.2375C62.5188 34.3583 62.6604 34.4563 62.7792 34.5542C63.3917 33.9458 63.9625 33.3813 64.5708 32.7771Z" fill="#009CD7"/>
</g>
<defs>
<clipPath id="clip0_152_2505">
<rect width="80" height="80" fill="white"/>
</clipPath>
</defs>
</svg>
