<svg width="80" height="80" viewBox="0 0 80 80" fill="none" xmlns="http://www.w3.org/2000/svg">
<g clip-path="url(#clip0_30_353)">
<path d="M66.8749 79.9998C65.8853 79.9998 64.8957 79.9998 63.9061 79.9998C63.7832 79.9602 63.6645 79.8977 63.5395 79.881C59.4353 79.3456 56.1457 77.404 53.5874 74.1685C53.404 73.9352 52.9895 73.7706 52.6811 73.7664C49.2707 73.7394 45.8582 73.7498 42.4478 73.7477C41.1728 73.7477 39.8957 73.7519 38.6207 73.7435C37.9686 73.7394 37.3624 73.481 37.2061 72.8519C37.0832 72.356 37.102 71.6456 37.3811 71.279C37.6665 70.904 38.3457 70.656 38.8561 70.6498C42.8124 70.5998 46.7707 70.6227 50.729 70.6206C50.9978 70.6206 51.2686 70.5956 51.4853 70.5852C51.1624 69.106 50.8561 67.6977 50.5395 66.2477C50.2374 66.2477 49.927 66.2477 49.6165 66.2477C36.3103 66.2477 23.004 66.2477 9.69987 66.2477C7.94987 66.2477 7.49987 65.7915 7.49987 64.0165C7.49987 52.1435 7.49987 40.2685 7.49987 28.3956C7.49987 26.7311 7.97695 26.2498 9.62695 26.2477C28.6353 26.2477 47.6436 26.2477 66.652 26.2477C68.2603 26.2477 68.7499 26.7373 68.7499 28.3456C68.7499 35.5852 68.7499 42.8227 68.7499 50.0623C68.7499 50.3706 68.7499 50.681 68.7499 50.8915C70.2582 51.5227 71.677 52.1165 73.0624 52.6935C73.0624 42.4373 73.0624 32.1665 73.0624 21.8706C72.6624 21.8706 72.3249 21.8706 71.9874 21.8706C52.927 21.8706 33.8665 21.8706 14.8061 21.8706C14.4936 21.8706 14.177 21.8894 13.8707 21.8498C13.0749 21.7456 12.4999 21.0706 12.5061 20.2915C12.5145 19.5123 13.102 18.856 13.902 18.7623C14.1853 18.729 14.4749 18.7456 14.7603 18.7456C33.8728 18.7456 52.9853 18.7456 72.0978 18.7456C72.4249 18.7456 72.752 18.7456 73.1249 18.7456C73.1249 16.1956 73.129 13.7519 73.1228 11.3081C73.1186 9.9748 72.502 9.37272 71.1436 9.37272C67.7061 9.36855 64.2686 9.37063 60.8332 9.37063C60.6332 9.37063 60.4311 9.37063 60.1561 9.37063C60.1561 9.93313 60.1624 10.4227 60.154 10.9102C60.1103 13.5727 58.0395 15.6352 55.4311 15.6185C52.8645 15.6019 50.8249 13.5394 50.7832 10.9144C50.7749 10.4081 50.7811 9.8998 50.7811 9.41438C42.279 9.41438 33.904 9.41438 25.4624 9.41438C25.4624 9.9998 25.477 10.5415 25.4603 11.0811C25.3749 13.5956 23.3082 15.604 20.804 15.6165C18.2645 15.629 16.1707 13.6019 16.0978 11.0519C16.0832 10.5123 16.0957 9.97272 16.0957 9.36855C15.7311 9.36855 15.4499 9.36855 15.1707 9.36855C11.9165 9.36855 8.66029 9.36855 5.40612 9.36855C3.6207 9.3748 3.12487 9.86438 3.12487 11.6352C3.12487 30.5394 3.12487 49.4435 3.12487 68.3477C3.12487 70.1269 3.61862 70.6227 5.39362 70.6248C12.2165 70.6248 19.0374 70.6227 25.8603 70.629C26.9103 70.629 27.6353 71.2935 27.627 72.1977C27.6186 73.0769 26.9124 73.7435 25.9165 73.7456C18.8332 73.7519 11.752 73.7602 4.66862 73.7394C2.63737 73.7331 0.91237 72.4165 0.24987 70.4852C0.17487 70.2685 0.0852865 70.0581 0.00195312 69.8456C0.00195312 49.9498 0.00195312 30.054 0.00195312 10.1581C0.0436198 10.0956 0.104036 10.0373 0.126953 9.96855C0.889453 7.46855 2.5207 6.25397 5.12487 6.2498C8.21862 6.24564 11.3124 6.2498 14.4061 6.2498C14.9457 6.2498 15.4832 6.2498 16.0936 6.2498C16.0936 5.78939 16.1061 5.40605 16.0915 5.02272C16.0457 3.71855 16.427 2.56855 17.279 1.57272C18.004 0.728969 18.9811 0.331053 19.9999 -0.000197348C20.5207 -0.000197348 21.0415 -0.000197348 21.5624 -0.000197348C21.6561 0.0435526 21.7436 0.101886 21.8415 0.128969C24.1582 0.789386 25.4499 2.47689 25.4686 4.87064C25.4728 5.30605 25.4686 5.73939 25.4686 6.21022C33.9332 6.21022 42.3186 6.21022 50.7811 6.21022C50.7811 5.73939 50.7874 5.30397 50.779 4.86855C50.7561 3.4998 51.1561 2.24564 52.204 1.3748C52.9207 0.781053 53.852 0.447719 54.6853 -0.00436401C55.2061 -0.00436401 55.727 -0.00436401 56.2478 -0.00436401C56.3415 0.039386 56.429 0.0977193 56.527 0.124803C58.8436 0.787303 60.1353 2.47272 60.154 4.87064C60.1582 5.30605 60.154 5.74147 60.154 6.24564C60.5124 6.24564 60.7915 6.24564 61.0728 6.24564C64.404 6.24564 67.7353 6.24355 71.0665 6.24772C71.4561 6.24772 71.852 6.24564 72.2332 6.3123C74.6915 6.74355 76.2478 8.67688 76.2478 11.3061C76.2499 25.7748 76.252 40.2435 76.2395 54.7123C76.2395 55.2644 76.377 55.6852 76.7353 56.1144C78.1728 57.8415 79.1082 59.829 79.627 62.0123C79.7645 62.5873 79.877 63.1685 79.9999 63.7456C79.9999 64.7873 79.9999 65.829 79.9999 66.8706C79.952 67.0123 79.8811 67.1519 79.8582 67.2977C78.8707 73.1602 75.5811 77.1331 70.0186 79.1977C69.0103 79.5769 67.9249 79.7394 66.8749 79.9998ZM53.7499 65.3165C53.752 71.6935 58.954 76.8831 65.3353 76.8727C71.6769 76.8644 76.8603 71.6852 76.8728 65.3435C76.8853 58.9581 71.702 53.754 65.3249 53.7498C58.9436 53.7456 53.7478 58.9352 53.7499 65.3165ZM22.3061 29.3956C22.3061 32.4998 22.3061 35.5269 22.3061 38.5435C25.1478 38.5435 27.9228 38.5435 30.6978 38.5435C30.6978 35.4644 30.6978 32.4373 30.6978 29.3956C27.879 29.3956 25.1207 29.3956 22.3061 29.3956ZM45.529 38.5373C48.3624 38.5373 51.154 38.5373 53.9665 38.5373C53.9665 35.4727 53.9665 32.4623 53.9665 29.429C51.129 29.429 48.3374 29.429 45.529 29.429C45.529 32.4935 45.529 35.5019 45.529 38.5373ZM30.7249 53.9519C27.8686 53.9519 25.0936 53.9519 22.2999 53.9519C22.2999 57.0269 22.2999 60.054 22.2999 63.079C25.1374 63.079 27.9124 63.079 30.7249 63.079C30.7249 60.0227 30.7249 57.0144 30.7249 53.9519ZM30.6999 50.7602C30.6999 47.7081 30.6999 44.7331 30.6999 41.7665C27.8645 41.7665 25.0895 41.7665 22.302 41.7665C22.302 44.7894 22.302 47.7644 22.302 50.7602C25.1249 50.7602 27.8832 50.7602 30.6999 50.7602ZM53.9457 50.7602C53.9457 47.7102 53.9457 44.7352 53.9457 41.7665C51.1061 41.7665 48.3311 41.7665 45.5478 41.7665C45.5478 44.7915 45.5478 47.7665 45.5478 50.7602C48.3665 50.7602 51.1249 50.7602 53.9457 50.7602ZM19.052 38.5685C19.052 35.4727 19.052 32.4477 19.052 29.4227C16.2207 29.4227 13.4499 29.4227 10.679 29.4227C10.679 32.4977 10.679 35.5248 10.679 38.5685C13.4853 38.5685 16.2374 38.5685 19.052 38.5685ZM33.9165 38.5435C36.7728 38.5435 39.5415 38.5435 42.3061 38.5435C42.3061 35.4685 42.3061 32.4436 42.3061 29.4248C39.479 29.4248 36.7103 29.4248 33.9165 29.4248C33.9165 32.481 33.9165 35.4894 33.9165 38.5435ZM57.1749 38.5373C60.004 38.5373 62.7936 38.5373 65.5624 38.5373C65.5624 35.454 65.5624 32.4269 65.5624 29.429C62.727 29.429 59.954 29.429 57.1749 29.429C57.1749 32.4915 57.1749 35.4998 57.1749 38.5373ZM19.0749 53.9623C16.2457 53.9623 13.4561 53.9623 10.6874 53.9623C10.6874 57.0456 10.6874 60.0727 10.6874 63.0706C13.5228 63.0706 16.2957 63.0706 19.0749 63.0706C19.0749 60.0081 19.0749 56.9977 19.0749 53.9623ZM42.3103 63.0977C42.3103 60.0081 42.3103 56.9852 42.3103 53.9519C39.4895 53.9519 36.7207 53.9519 33.9395 53.9519C33.9395 57.0227 33.9395 60.0456 33.9395 63.0977C36.7415 63.0977 39.4915 63.0977 42.3103 63.0977ZM19.0499 50.756C19.0499 47.7102 19.0499 44.7373 19.0499 41.7685C16.2165 41.7685 13.4478 41.7685 10.6811 41.7685C10.6811 44.7935 10.6811 47.7685 10.6811 50.756C13.4874 50.756 16.2395 50.756 19.0499 50.756ZM42.3061 50.7581C42.3061 47.7102 42.3061 44.7373 42.3061 41.7685C39.4811 41.7685 36.7124 41.7685 33.9436 41.7685C33.9436 44.7915 33.9436 47.7623 33.9436 50.7581C36.7499 50.7581 39.4999 50.7581 42.3061 50.7581ZM57.179 50.6394C60.0249 50.6394 62.8103 50.6394 65.5811 50.6394C65.5811 47.5935 65.5811 44.6894 65.5811 41.756C62.7665 41.756 59.9957 41.756 57.179 41.756C57.179 44.7519 57.179 47.7081 57.179 50.6394ZM45.5457 53.9456C45.5457 57.031 45.5457 60.054 45.5457 63.0977C47.3124 63.0977 49.0228 63.0977 50.7499 63.0977C50.8082 62.879 50.8749 62.6831 50.9145 62.481C51.302 60.406 52.0749 58.4685 53.3811 56.8227C54.1124 55.9019 54.027 54.9831 53.9645 53.9456C51.152 53.9456 48.379 53.9456 45.5457 53.9456ZM19.2207 7.74564C19.2207 8.78313 19.204 9.82272 19.2249 10.8602C19.2436 11.8102 19.8895 12.479 20.754 12.4936C21.6457 12.5102 22.329 11.8227 22.3374 10.8352C22.3561 8.81022 22.3561 6.78522 22.3374 4.7623C22.329 3.8123 21.6707 3.14564 20.8082 3.12897C19.9165 3.1123 19.2436 3.7998 19.2249 4.78522C19.204 5.77272 19.2207 6.76022 19.2207 7.74564ZM57.0311 7.85814C57.0311 6.84563 57.0436 5.83314 57.027 4.82064C57.0103 3.82064 56.3665 3.13522 55.4749 3.13105C54.5832 3.12689 53.9186 3.8123 53.9103 4.80605C53.8957 6.80397 53.8957 8.80397 53.9103 10.8019C53.9186 11.804 54.5686 12.4894 55.4603 12.4936C56.352 12.4977 57.0082 11.8123 57.0249 10.8165C57.0436 9.83105 57.0311 8.84355 57.0311 7.85814Z" fill="#009CD7"/>
<path d="M7.82685 21.8687C6.96644 21.8771 6.24352 21.1479 6.25602 20.2875C6.26852 19.4562 6.96644 18.7625 7.79769 18.7542C8.6581 18.7458 9.38311 19.475 9.36852 20.3333C9.35394 21.1667 8.6581 21.8604 7.82685 21.8687Z" fill="#009CD7"/>
<path d="M33.8748 72.2208C33.8519 73.0521 33.1289 73.7521 32.2977 73.7438C31.4206 73.7354 30.7331 73.0042 30.7685 72.1146C30.8019 71.2667 31.5185 70.6 32.3644 70.6312C33.1998 70.6625 33.8977 71.3979 33.8748 72.2208Z" fill="#009CD7"/>
<path d="M64.9102 66.4458C66.5769 64.7792 68.0581 63.2813 69.5623 61.8042C69.8331 61.5375 70.1581 61.2583 70.5081 61.15C71.1873 60.9375 71.8019 61.15 72.2164 61.7604C72.6269 62.3667 72.656 63.0479 72.1539 63.5646C70.1227 65.6542 68.0644 67.7188 65.9769 69.7521C65.3727 70.3396 64.5685 70.2833 63.9331 69.6771C62.8039 68.5979 61.6977 67.4958 60.6227 66.3646C60.006 65.7167 60.0414 64.8688 60.6206 64.2542C61.2123 63.6229 62.1227 63.5438 62.7873 64.1729C63.5144 64.8646 64.1664 65.6438 64.9102 66.4458Z" fill="#009CD7"/>
</g>
<defs>
<clipPath id="clip0_30_353">
<rect width="80" height="80" fill="white"/>
</clipPath>
</defs>
</svg>
