<svg width="80" height="80" viewBox="0 0 80 80" fill="none" xmlns="http://www.w3.org/2000/svg">
<path d="M67.3246 70.6738C65.56 70.0113 64.8871 68.6988 65.0371 66.878C65.0705 66.4634 65.0225 66.0447 65.0538 65.6301C65.1142 64.8218 65.6246 64.3342 66.3434 64.3592C67.033 64.3822 67.4955 64.8613 67.5309 65.6447C67.56 66.2676 67.5413 66.8926 67.5455 67.5176C67.5475 67.9592 67.7413 68.1801 68.2121 68.178C70.2163 68.1676 72.2205 68.1634 74.2246 68.1801C74.858 68.1863 74.9434 67.8218 74.9413 67.3238C74.935 65.7884 74.9455 64.253 74.9371 62.7176C74.935 62.1176 75.1288 61.6467 75.708 61.3988C76.4788 61.0697 77.3809 61.5613 77.4059 62.4468C77.46 64.3426 77.4767 66.2467 77.3684 68.1405C77.2913 69.4822 76.3163 70.2134 75.135 70.6738C72.533 70.6738 69.9288 70.6738 67.3246 70.6738Z" fill="#009CD7"/>
<path d="M4.34754 70.6738C2.62463 69.9655 1.98088 68.6717 2.11629 66.8405C2.21629 65.4947 2.12879 64.1363 2.13921 62.7822C2.14546 61.8447 2.60588 61.303 3.37046 61.303C4.12671 61.3009 4.62254 61.8572 4.63296 62.7759C4.64754 64.2842 4.65796 65.7947 4.62879 67.303C4.61629 67.9238 4.79338 68.1988 5.46629 68.1863C7.36629 68.153 9.26629 68.1551 11.1663 68.1842C11.8225 68.1947 12.0559 67.9405 12.0163 67.3072C11.9809 66.7363 11.9892 66.1613 12.0184 65.5905C12.0559 64.8509 12.5788 64.3551 13.2642 64.3592C13.9496 64.3634 14.4684 64.8572 14.4975 65.6051C14.5267 66.3842 14.5496 67.1697 14.4892 67.9467C14.3746 69.3947 13.46 70.2072 12.1663 70.6759C9.55588 70.6738 6.95171 70.6738 4.34754 70.6738Z" fill="#009CD7"/>
<path d="M6.24129 29.4967C4.89129 29.1926 3.67463 28.9217 2.45796 28.6405C0.724628 28.2405 -0.0774558 27.0509 0.00587758 25.0155C0.0725442 23.403 1.04129 22.3426 2.68504 22.0655C3.78713 21.8801 4.88504 21.6634 5.98921 21.478C7.98296 21.1426 8.77254 21.5197 9.81838 23.3551C9.94338 23.1155 10.0538 22.9342 10.135 22.7405C10.9725 20.7801 11.808 18.8197 12.6371 16.8572C14.258 13.0238 17.1267 10.9113 21.258 10.3197C28.0517 9.34675 34.8746 8.91758 41.7309 9.01341C47.6725 9.09674 53.5955 9.47591 59.4496 10.5176C62.8288 11.1197 65.258 13.1051 66.6996 16.2155C67.6496 18.2655 68.483 20.3717 69.3705 22.4509C69.4892 22.7301 69.6225 23.0051 69.7955 23.3801C69.9684 23.0842 70.083 22.8655 70.2184 22.6613C70.8642 21.678 71.7746 21.2051 72.9434 21.3759C74.358 21.5822 75.7684 21.8342 77.1746 22.0947C78.608 22.3592 79.535 23.4467 79.6288 24.9259C79.7496 26.8217 79.0725 28.078 77.5621 28.5176C76.2434 28.903 74.8871 29.1697 73.4475 29.5134C73.7017 29.9217 73.9246 30.3134 74.1788 30.6863C75.4288 32.5217 76.6246 34.3926 77.0455 36.6134C77.2767 37.8322 77.4455 39.0842 77.458 40.3217C77.5059 44.7988 77.4809 49.278 77.4767 53.7572C77.4705 59.3009 74.1184 62.778 68.5725 62.9967C68.235 63.0092 67.8955 63.0134 67.558 63.0134C49.0684 63.0134 30.5809 63.0113 12.0913 63.0176C10.2746 63.0176 8.50171 62.7988 6.85379 61.9988C3.84546 60.5426 2.28504 58.0447 2.21213 54.7822C2.09754 49.578 2.12463 44.3676 2.20796 39.1613C2.24963 36.5613 3.16004 34.1738 4.60588 32.003C5.13713 31.203 5.65379 30.3967 6.24129 29.4967ZM11.9225 25.0363C12.3725 25.0363 12.7038 25.0363 13.0371 25.0363C30.1225 25.0363 47.208 25.0363 64.2934 25.0363C64.5788 25.0363 64.8684 25.0176 65.1517 25.0488C65.8455 25.1217 66.2517 25.5301 66.2892 26.2155C66.3267 26.9092 65.9413 27.3488 65.2725 27.4967C64.9725 27.5634 64.6517 27.5342 64.3392 27.5342C46.6538 27.5363 28.9705 27.5384 11.285 27.5238C10.7309 27.5238 10.3975 27.6676 10.0934 28.153C8.98504 29.9155 7.83296 31.6488 6.68088 33.3842C5.48713 35.1822 4.72463 37.153 4.69754 39.303C4.63296 44.4072 4.62879 49.5113 4.69129 54.6155C4.72671 57.4842 6.45796 59.5405 9.25171 60.1967C10.1538 60.4092 11.1059 60.5009 12.035 60.5009C30.5538 60.5176 49.0705 60.5155 67.5892 60.5072C68.2892 60.5072 68.9976 60.4634 69.6892 60.3551C73.1205 59.8176 75.4975 57.3155 74.8663 52.7947C74.5142 52.7947 74.1538 52.7947 73.7913 52.7947C52.0705 52.7947 30.3475 52.7947 8.62671 52.7926C8.26421 52.7926 7.89129 52.7967 7.53921 52.7259C6.91838 52.6009 6.59754 52.1447 6.59963 51.5467C6.60379 50.9155 6.93713 50.4488 7.60588 50.3447C7.96213 50.2884 8.33296 50.2967 8.69546 50.2967C30.4163 50.2947 52.1392 50.2947 73.86 50.2947C74.2163 50.2947 74.5725 50.2947 74.9767 50.2947C74.9767 47.1655 74.908 44.1447 74.9955 41.128C75.0892 37.9613 74.2746 35.1238 72.4184 32.5572C69.5559 28.5988 67.1767 24.3759 65.508 19.7697C65.208 18.9405 64.8517 18.1259 64.4746 17.328C63.3038 14.8405 61.358 13.2488 58.6371 12.9051C54.508 12.3842 50.3642 11.903 46.21 11.6697C38.158 11.2176 30.133 11.6405 22.1309 12.6947C18.4934 13.1738 16.0121 14.8926 14.7038 18.3488C13.958 20.3176 13.0746 22.2322 12.2559 24.1717C12.1496 24.4217 12.06 24.6822 11.9225 25.0363ZM77.1225 25.3613C77.1955 24.8509 77.0017 24.5822 76.4788 24.5009C75.2767 24.3155 74.0809 24.078 72.8767 23.903C72.6871 23.8759 72.3621 24.0155 72.2767 24.1759C71.958 24.7655 71.683 25.3842 71.4455 26.0134C71.2225 26.6009 71.8163 27.2822 72.4121 27.1509C73.7517 26.8572 75.0892 26.5447 76.4309 26.2592C76.9455 26.1509 77.2267 25.9072 77.1225 25.3613ZM7.20171 23.5634C7.10379 23.6655 7.00379 23.7655 6.90588 23.8676C5.68088 24.078 4.45588 24.2967 3.22671 24.4926C2.75379 24.5676 2.49546 24.7426 2.48921 25.2863C2.48504 25.8426 2.64129 26.1509 3.21838 26.2655C4.46213 26.5155 5.69338 26.8301 6.93713 27.0738C7.24129 27.1342 7.67046 27.128 7.88504 26.9572C8.25796 26.6592 8.38088 26.2176 8.08713 25.7155C7.81421 25.2488 7.63088 24.7301 7.42046 24.228C7.33088 24.0134 7.27463 23.7863 7.20171 23.5634Z" fill="#009CD7"/>
<path d="M44.408 46.4009C40.6975 46.9009 36.4163 46.4509 32.1309 46.2217C30.5205 46.1363 28.91 46.0238 27.2996 45.9697C26.4205 45.9405 25.858 45.5947 25.4892 44.7738C24.5621 42.7134 23.5725 40.6801 22.6163 38.6322C21.933 37.1717 22.485 36.3613 24.108 36.4717C27.9225 36.7322 31.7371 37.0009 35.5517 37.2822C39.9538 37.6051 44.3413 37.3092 48.7288 37.0009C51.0121 36.8405 53.2913 36.6342 55.5767 36.4738C57.1725 36.3613 57.7142 37.1967 57.0246 38.6676C56.0663 40.7155 55.0788 42.7488 54.1496 44.8092C53.7913 45.603 53.2413 45.9301 52.3975 45.9697C49.9267 46.078 47.458 46.2322 44.408 46.4009ZM25.5746 39.0447C26.285 40.5592 26.8975 41.9009 27.558 43.2197C27.6371 43.378 27.9788 43.4613 28.2059 43.478C29.4246 43.5676 30.6517 43.5738 31.8663 43.703C38.4475 44.4051 45.0142 43.9322 51.5809 43.4822C51.7434 43.4717 51.9892 43.4113 52.0434 43.2988C52.7142 41.9426 53.3559 40.5717 54.0871 39.028C44.508 40.1697 35.1163 40.1363 25.5746 39.0447Z" fill="#009CD7"/>
<path d="M68.0788 35.1551C68.183 35.1467 68.2871 35.1363 68.3892 35.128C70.8205 34.9197 71.9934 35.9051 72.1496 38.3509C72.1871 38.9426 72.1496 39.553 72.0434 40.1342C71.683 42.0905 70.5809 43.1634 68.6267 43.4488C65.2288 43.9447 61.8267 44.4092 58.4267 44.8842C58.2205 44.9134 58.0121 44.9426 57.8059 44.9488C56.7705 44.9801 56.0809 44.0634 56.585 43.1717C57.8142 41.003 59.1288 38.8822 60.433 36.7572C60.8725 36.0426 61.5705 35.7551 62.4059 35.6801C64.2975 35.5113 66.185 35.2947 68.0725 35.0967C68.0746 35.1155 68.0767 35.1342 68.0788 35.1551ZM60.0059 41.9259C60.06 41.9884 60.1163 42.0488 60.1705 42.1113C62.9705 41.7134 65.7726 41.3301 68.5684 40.8926C68.8767 40.8447 69.3309 40.5363 69.385 40.278C69.5413 39.5363 69.5559 38.7572 69.5559 37.9947C69.5559 37.8592 69.2059 37.5988 69.033 37.6113C67.01 37.753 64.9892 37.9259 62.9705 38.1176C62.7371 38.1405 62.4309 38.2551 62.31 38.4301C61.5184 39.5801 60.7684 40.7572 60.0059 41.9259Z" fill="#009CD7"/>
<path d="M10.5184 35.0113C12.8475 35.2488 15.1809 35.4467 17.4996 35.7551C18.0371 35.8259 18.7225 36.1426 18.9996 36.5676C20.4205 38.7384 21.7788 40.953 23.058 43.2113C23.5767 44.1259 22.808 45.0509 21.7017 44.9176C19.558 44.6592 17.4246 44.3384 15.285 44.0426C13.9455 43.8572 12.61 43.6488 11.2663 43.4822C9.12879 43.2176 7.86421 42.1426 7.57671 40.0051C7.44129 39.0072 7.56213 37.9217 7.81213 36.9384C8.15796 35.5863 9.11838 35.028 10.5184 35.0113ZM19.735 42.1384C18.9975 40.9634 18.3559 40.0197 17.7975 39.0301C17.3913 38.3113 16.81 38.0592 16.0288 38.0155C14.4455 37.9259 12.8642 37.7884 11.283 37.6655C10.0496 37.5676 9.94754 37.6613 9.96213 38.9384C9.96421 39.0947 9.96629 39.2509 9.98296 39.4051C10.0975 40.4759 10.4725 40.8467 11.5496 40.9884C12.5017 41.1134 13.4538 41.2592 14.4059 41.3926C16.0975 41.6322 17.7913 41.8676 19.735 42.1384Z" fill="#009CD7"/>
</svg>
