<svg width="60" height="60" viewBox="0 0 60 60" fill="none" xmlns="http://www.w3.org/2000/svg">
<path d="M20.9829 29.5819C20.634 29.2486 20.1701 29.0625 19.6875 29.0625C19.6871 29.0625 19.645 29.063 19.645 29.063C19.1478 29.0743 18.6755 29.2826 18.3319 29.6421C17.9986 29.991 17.8125 30.4549 17.8125 30.9375L17.813 30.98C17.8243 31.4772 18.0326 31.9495 18.3921 32.2931L25.2593 38.8556C25.9836 39.5477 27.1241 39.5482 27.8489 38.8567L41.6063 25.7321C41.9661 25.3888 42.1753 24.9163 42.187 24.4191C42.1877 24.3891 42.1877 24.3591 42.1869 24.329C42.1755 23.863 41.9909 23.418 41.6692 23.0807C41.3153 22.7099 40.8251 22.5 40.3125 22.5L40.2596 22.5007C39.796 22.5138 39.3538 22.6982 39.0182 23.0183L26.5558 34.9076L20.9829 29.5819Z" fill="#009CD7"/>
<path fill-rule="evenodd" clip-rule="evenodd" d="M30 5.625C30 5.625 34.9578 5.625 39.4884 7.54128C39.4884 7.54128 43.863 9.39158 47.2357 12.7643C47.2357 12.7643 50.6084 16.137 52.4587 20.5116C52.4587 20.5116 54.375 25.0422 54.375 30C54.375 30 54.375 34.9578 52.4587 39.4884C52.4587 39.4884 50.6084 43.863 47.2357 47.2357C47.2357 47.2357 43.863 50.6084 39.4884 52.4587C39.4884 52.4587 34.9578 54.375 30 54.375C30 54.375 25.0422 54.375 20.5116 52.4587C20.5116 52.4587 16.137 50.6084 12.7643 47.2357C12.7643 47.2357 9.39158 43.863 7.54128 39.4884C7.54128 39.4884 5.625 34.9578 5.625 30C5.625 30 5.625 25.0422 7.54128 20.5116C7.54128 20.5116 9.39159 16.137 12.7643 12.7643C12.7643 12.7643 16.137 9.39158 20.5116 7.54128C20.5116 7.54128 25.0422 5.625 30 5.625ZM30 9.375C30 9.375 25.8026 9.375 21.9724 10.995C21.9724 10.995 18.2714 12.5604 15.4159 15.4159C15.4159 15.4159 12.5604 18.2714 10.995 21.9724C10.995 21.9724 9.375 25.8026 9.375 30C9.375 30 9.375 34.1974 10.995 38.0276C10.995 38.0276 12.5604 41.7286 15.4159 44.5841C15.4159 44.5841 18.2714 47.4396 21.9724 49.005C21.9724 49.005 25.8026 50.625 30 50.625C30 50.625 34.1974 50.625 38.0276 49.005C38.0276 49.005 41.7286 47.4396 44.5841 44.5841C44.5841 44.5841 47.4396 41.7286 49.005 38.0276C49.005 38.0276 50.625 34.1974 50.625 30C50.625 30 50.625 25.8026 49.005 21.9724C49.005 21.9724 47.4396 18.2714 44.5841 15.4159C44.5841 15.4159 41.7286 12.5604 38.0276 10.995C38.0276 10.995 34.1974 9.375 30 9.375Z" fill="#009CD7"/>
</svg>
