<svg width="80" height="80" viewBox="0 0 80 80" fill="none" xmlns="http://www.w3.org/2000/svg">
<path d="M0 37.8125C0.385417 36.9396 1.05833 36.6479 2 36.6542C7.25833 36.6812 12.5188 36.6562 17.7771 36.6812C18.3625 36.6833 18.6188 36.5104 18.8458 35.9604C19.4917 34.4021 20.2354 32.8854 20.9417 31.3521C21.0354 31.1479 21.1396 30.9479 21.2938 30.6375C20.0583 30.6375 18.925 30.6375 17.7917 30.6375C16.0729 30.6375 14.3542 30.6396 12.6375 30.6375C11.3771 30.6354 10.6333 30.0417 10.65 29.0604C10.6667 28.0875 11.4146 27.5146 12.6833 27.5125C16.0417 27.5104 19.4 27.5 22.7583 27.5229C23.275 27.5271 23.6 27.3667 23.9313 26.9646C28.4021 21.5229 34.0375 17.9062 40.8875 16.2104C41.0854 16.1625 41.275 16.0833 41.5146 16.0021C41.5146 14.8187 41.5479 13.6479 41.4854 12.4833C41.475 12.2667 41.1188 11.9833 40.8625 11.8792C37.0625 10.3292 36.2813 5.41042 39.4375 2.80625C40.4646 1.95833 41.6646 1.59375 42.9813 1.59375C46.6 1.59167 50.2188 1.58125 53.8375 1.59792C56.6479 1.61042 58.775 3.37083 59.2583 6.0375C59.7229 8.61042 58.2958 10.9667 55.6646 11.9729C55.5667 12.0104 55.4708 12.05 55.3438 12.1C55.3438 13.3854 55.3438 14.6812 55.3438 15.9125C57.1688 16.5458 59.0125 17.0312 60.7271 17.8042C71.5667 22.6771 77.8771 31.0333 79.7146 42.7708C79.8146 43.4104 79.9021 44.05 79.9938 44.6917C79.9938 46.15 79.9938 47.6083 79.9938 49.0667C79.7354 50.625 79.5333 52.1958 79.2063 53.7396C78.4438 57.3354 77.0333 60.6771 75.0625 63.7792C74.4792 64.6979 73.6 64.9667 72.8104 64.4875C72.0042 63.9979 71.8333 63.0583 72.4333 62.1083C74.7771 58.3937 76.2542 54.3583 76.6625 49.9917C77.5083 40.9396 74.875 33.0125 68.3729 26.6146C54.375 12.8292 31.1396 16.9312 22.75 34.6917C14.8396 51.4354 24.6333 71.0604 42.9292 74.6812C50.2021 76.1208 57.05 74.875 63.4021 71.0146C64.6833 70.2354 65.5687 70.2875 66.1167 71.2C66.6396 72.0687 66.2854 72.9062 65.0792 73.6583C48.5958 83.9354 26.6021 76.825 19.2688 58.8333C19.0271 58.2375 18.7521 58.0125 18.0917 58.0187C14.8896 58.0562 11.6875 58.0375 8.48333 58.0333C8.14583 58.0333 7.80208 58.0333 7.47292 57.9729C6.75208 57.8396 6.24792 57.1917 6.25417 56.4625C6.25833 55.7646 6.73333 55.1375 7.42083 54.9875C7.74792 54.9167 8.09167 54.9125 8.42917 54.9125C11.2667 54.9062 14.1063 54.9083 16.9438 54.9083C17.225 54.9083 17.5063 54.9083 17.8312 54.9083C17.5083 52.8979 17.1958 50.9625 16.8646 48.9021C16.6562 48.9021 16.3813 48.9021 16.1083 48.9021C14.1563 48.9021 12.2021 48.9062 10.25 48.9C9.16458 48.8958 8.46667 48.2979 8.44375 47.3792C8.41875 46.4333 9.13958 45.7854 10.2521 45.7812C12.4354 45.7729 14.6208 45.7792 16.8146 45.7792C17.0708 43.7833 17.3208 41.8354 17.5833 39.7896C17.3063 39.7896 17 39.7896 16.6958 39.7896C11.8792 39.7896 7.0625 39.7729 2.24583 39.8021C1.29167 39.8104 0.520833 39.5875 0 38.75C0 38.4375 0 38.125 0 37.8125ZM48.4396 9.09167C50.1813 9.09167 51.9229 9.09792 53.6667 9.08542C54.0271 9.08333 54.4021 9.06667 54.7417 8.96042C55.7229 8.65417 56.35 7.6375 56.2104 6.65625C56.0458 5.4875 55.1583 4.72708 53.8521 4.72292C50.2375 4.70625 46.6229 4.70625 43.0104 4.72292C41.5729 4.72917 40.6083 5.65208 40.6188 6.93958C40.6292 8.23333 41.5812 9.08125 43.0583 9.08958C44.8521 9.09792 46.6458 9.08958 48.4396 9.09167ZM52.1479 12.2708C49.625 12.2708 47.1688 12.2708 44.6896 12.2708C44.6896 13.3542 44.6896 14.3833 44.6896 15.3854C47.1917 15.3854 49.6479 15.3854 52.1479 15.3854C52.1479 14.3937 52.1479 13.3625 52.1479 12.2708Z" fill="#009CD7"/>
<path d="M0 55.9375C0.108333 55.8021 0.216667 55.6667 0.327083 55.5333C0.939583 54.7937 1.99375 54.7208 2.65208 55.3729C3.30208 56.0146 3.27083 57.0437 2.58333 57.6437C1.89167 58.2479 0.829167 58.1104 0.279167 57.3375C0.175 57.1917 0.09375 57.0292 0.00208333 56.875C0 56.5625 0 56.25 0 55.9375Z" fill="#009CD7"/>
<path d="M48.4375 22.6083C61.825 22.6083 72.675 33.4687 72.6667 46.8542C72.6583 60.2208 61.7479 71.1125 48.4 71.0813C35.0625 71.05 24.2167 60.1875 24.2104 46.8542C24.2042 33.4667 35.0542 22.6083 48.4375 22.6083ZM48.4 25.7333C36.725 25.7729 27.3188 35.2125 27.3354 46.8729C27.3521 58.5021 36.8604 67.9833 48.4792 67.9563C60.1167 67.9271 69.5708 58.4292 69.5437 46.7958C69.5146 35.1333 60.0375 25.6937 48.4 25.7333Z" fill="#009CD7"/>
<path d="M68.1104 68.0125C68.1271 67.1562 68.8083 66.4979 69.6708 66.5083C70.5208 66.5167 71.2188 67.2104 71.2188 68.0458C71.2208 68.9125 70.4771 69.6208 69.5979 69.5917C68.7417 69.5625 68.0937 68.875 68.1104 68.0125Z" fill="#009CD7"/>
<path d="M43.5625 46.6083C43.6375 46.2667 43.6833 45.7354 43.8771 45.2646C44.0729 44.7896 43.95 44.5208 43.6083 44.1958C42.6479 43.2792 41.7167 42.3333 40.7875 41.3833C40.0167 40.5979 39.9625 39.7063 40.6188 39.0354C41.2583 38.3813 42.2146 38.4167 42.9729 39.1583C43.9604 40.1229 44.9104 41.125 45.9167 42.0688C46.1042 42.2438 46.5146 42.3417 46.7583 42.2667C47.8667 41.9229 48.9708 41.8646 50.05 42.2792C50.5062 42.4542 50.7479 42.3313 51.05 42.025C53.3792 39.6771 55.7125 37.3354 58.0708 35.0167C58.3875 34.7063 58.8229 34.4333 59.2479 34.3354C59.9188 34.1813 60.4771 34.5104 60.7937 35.1271C61.1229 35.7708 61.0396 36.4042 60.5354 36.9292C59.7417 37.7563 58.925 38.5583 58.1146 39.3688C56.5333 40.9521 54.9625 42.5521 53.3542 44.1083C52.9458 44.5021 52.8625 44.8083 53.0375 45.3708C53.6521 47.3458 53.175 49.1021 51.6229 50.4646C50.0979 51.8021 48.3167 52.0854 46.4562 51.2417C44.5708 50.3896 43.6625 48.8396 43.5625 46.6083ZM48.4146 45.1271C47.4479 45.1375 46.6958 45.9146 46.7188 46.8792C46.7417 47.7979 47.5062 48.5563 48.4208 48.5667C49.3625 48.5771 50.1562 47.7833 50.1562 46.8333C50.1562 45.8729 49.3854 45.1167 48.4146 45.1271Z" fill="#009CD7"/>
<path d="M50.0063 30.8771C50.0042 31.1354 50.0208 31.3958 50.0021 31.6542C49.9396 32.475 49.3521 33.0708 48.5667 33.1229C47.7563 33.1771 47.0229 32.6271 46.925 31.7938C46.8542 31.1813 46.8542 30.5479 46.9208 29.9333C47.0104 29.0938 47.7188 28.5458 48.5417 28.5833C49.3625 28.6208 49.9521 29.2271 50.0042 30.1C50.0208 30.3583 50.0063 30.6188 50.0063 30.8771Z" fill="#009CD7"/>
<path d="M64.4479 45.3021C64.6812 45.3021 64.9146 45.2917 65.1479 45.3042C66.0354 45.35 66.6875 45.9896 66.7062 46.8208C66.7229 47.6146 66.1271 48.3146 65.2875 48.4C64.75 48.4542 64.2 48.4479 63.6583 48.4104C62.7229 48.3458 62.1208 47.6625 62.1604 46.7688C62.1979 45.9167 62.8208 45.3396 63.75 45.3021C63.9813 45.2937 64.2146 45.3021 64.4479 45.3021Z" fill="#009CD7"/>
<path d="M46.8667 62.8C46.8667 62.5667 46.8563 62.3333 46.8688 62.1021C46.9146 61.2083 47.5417 60.5625 48.3771 60.5375C49.2104 60.5146 49.9021 61.1333 49.9729 62.0187C50.0146 62.5333 50.0104 63.0562 49.9771 63.5708C49.9167 64.4604 49.2479 65.1 48.4208 65.1C47.5646 65.1021 46.9083 64.4271 46.8667 63.4979C46.8583 63.2667 46.8667 63.0333 46.8667 62.8Z" fill="#009CD7"/>
<path d="M32.5208 45.25C32.8063 45.2625 33.0958 45.2562 33.3771 45.2917C34.1333 45.3875 34.6604 45.95 34.7104 46.6875C34.7646 47.4813 34.3208 48.175 33.5458 48.2938C32.8854 48.3958 32.1938 48.3979 31.5271 48.3333C30.7083 48.2542 30.1521 47.5583 30.1667 46.7833C30.1833 45.9708 30.7917 45.3479 31.6604 45.2771C31.9438 45.2542 32.2333 45.2729 32.5187 45.2729C32.5208 45.2667 32.5208 45.2583 32.5208 45.25Z" fill="#009CD7"/>
</svg>
