<svg width="60" height="73" viewBox="0 0 60 73" fill="none" xmlns="http://www.w3.org/2000/svg">
<path d="M34.3143 67.2093C34.3143 68.0399 34.179 68.7493 33.9083 69.3373C33.6377 69.9159 33.255 70.3593 32.7603 70.6673C32.2657 70.9659 31.6777 71.1153 30.9963 71.1153C30.3617 71.1153 29.8063 70.9846 29.3303 70.7233C28.8543 70.4526 28.4763 70.0606 28.1963 69.5473C27.9163 69.0246 27.753 68.3853 27.7063 67.6293H25.8023V70.9753H24.5703V63.4713H25.8023V66.5933H27.7203C27.7857 65.8839 27.9583 65.2913 28.2383 64.8153C28.5277 64.3299 28.9057 63.9613 29.3723 63.7093C29.8483 63.4573 30.399 63.3313 31.0243 63.3313C31.6683 63.3313 32.2377 63.4853 32.7323 63.7933C33.227 64.0919 33.6143 64.5306 33.8943 65.1093C34.1743 65.6786 34.3143 66.3786 34.3143 67.2093ZM28.9663 67.2093C28.9663 67.8346 29.0363 68.3619 29.1763 68.7913C29.3257 69.2206 29.5497 69.5473 29.8483 69.7713C30.147 69.9859 30.5343 70.0933 31.0103 70.0933C31.4863 70.0933 31.8737 69.9859 32.1723 69.7713C32.471 69.5473 32.6903 69.2206 32.8303 68.7913C32.9703 68.3619 33.0403 67.8346 33.0403 67.2093C33.0403 66.5839 32.9703 66.0613 32.8303 65.6413C32.6903 65.2213 32.471 64.9039 32.1723 64.6893C31.8737 64.4746 31.4863 64.3673 31.0103 64.3673C30.5343 64.3673 30.147 64.4746 29.8483 64.6893C29.5497 64.9039 29.3257 65.2213 29.1763 65.6413C29.0363 66.0613 28.9663 66.5839 28.9663 67.2093Z" fill="#8C94B0"/>
<path d="M2.91418 34.4918C3.48351 34.4918 3.97818 34.5711 4.39818 34.7298C4.81818 34.8791 5.14484 35.1031 5.37818 35.4018C5.61151 35.6911 5.72818 36.0458 5.72818 36.4658C5.72818 36.9231 5.60218 37.2871 5.35018 37.5578C5.09818 37.8191 4.75284 38.0105 4.31418 38.1318V38.1878C4.61284 38.2718 4.88818 38.3885 5.14018 38.5378C5.39218 38.6871 5.59284 38.8831 5.74218 39.1258C5.90084 39.3685 5.98018 39.6811 5.98018 40.0638C5.98018 40.4745 5.86351 40.8478 5.63018 41.1838C5.40618 41.5198 5.05618 41.7858 4.58018 41.9818C4.11351 42.1778 3.51151 42.2758 2.77418 42.2758C2.41951 42.2758 2.07884 42.2571 1.75218 42.2198C1.43484 42.1825 1.14551 42.1265 0.884178 42.0518C0.632178 41.9771 0.408178 41.8885 0.212178 41.7858V40.6798C0.529511 40.8291 0.902844 40.9645 1.33218 41.0858C1.77084 41.2071 2.24684 41.2678 2.76018 41.2678C3.13351 41.2678 3.46951 41.2258 3.76818 41.1418C4.07618 41.0578 4.31884 40.9271 4.49618 40.7498C4.67351 40.5631 4.76218 40.3111 4.76218 39.9938C4.76218 39.7045 4.68284 39.4711 4.52418 39.2938C4.36551 39.1071 4.12751 38.9671 3.81018 38.8738C3.50218 38.7805 3.10551 38.7338 2.62018 38.7338H1.61218V37.7258H2.42418C3.06818 37.7258 3.58151 37.6418 3.96418 37.4738C4.35618 37.2965 4.55218 36.9978 4.55218 36.5778C4.55218 36.2231 4.40284 35.9571 4.10418 35.7798C3.81484 35.6025 3.39484 35.5138 2.84418 35.5138C2.43351 35.5138 2.06951 35.5558 1.75218 35.6398C1.44418 35.7145 1.10351 35.8311 0.730178 35.9898L0.296178 35.0098C0.697511 34.8325 1.11751 34.7018 1.55618 34.6178C1.99484 34.5338 2.44751 34.4918 2.91418 34.4918Z" fill="#8C94B0"/>
<path d="M59.1001 36.5218C59.1001 36.9885 58.9601 37.3525 58.6801 37.6138C58.4001 37.8751 58.0407 38.0525 57.6021 38.1458V38.2018C58.0687 38.2671 58.4747 38.4351 58.8201 38.7058C59.1654 38.9671 59.3381 39.3778 59.3381 39.9378C59.3381 40.2551 59.2774 40.5491 59.1561 40.8198C59.0441 41.0905 58.8667 41.3238 58.6241 41.5198C58.3814 41.7158 58.0687 41.8698 57.6861 41.9818C57.3034 42.0845 56.8414 42.1358 56.3001 42.1358H53.0661V34.6318H56.2861C56.8181 34.6318 57.2941 34.6925 57.7141 34.8138C58.1434 34.9258 58.4794 35.1218 58.7221 35.4018C58.9741 35.6725 59.1001 36.0458 59.1001 36.5218ZM58.0641 39.9378C58.0641 39.5085 57.9007 39.2005 57.5741 39.0138C57.2474 38.8271 56.7667 38.7338 56.1321 38.7338H54.2981V41.1418H56.1601C56.7761 41.1418 57.2474 41.0531 57.5741 40.8758C57.9007 40.6891 58.0641 40.3765 58.0641 39.9378ZM57.8541 36.6758C57.8541 36.3211 57.7234 36.0645 57.4621 35.9058C57.2101 35.7378 56.7947 35.6538 56.2161 35.6538H54.2981V37.7118H55.9921C56.5987 37.7118 57.0607 37.6278 57.3781 37.4598C57.6954 37.2918 57.8541 37.0305 57.8541 36.6758Z" fill="#8C94B0"/>
<path d="M46.9144 38.7531C46.9144 48.4276 39.0021 56.2778 29.2326 56.2778C19.4631 56.2778 11.5508 48.4276 11.5508 38.7531C11.5508 29.0785 19.4631 21.2284 29.2326 21.2284C39.0021 21.2284 46.9144 29.0785 46.9144 38.7531Z" stroke="#BEC2CF"/>
<path d="M31.4874 15.412C30.9274 15.86 30.2274 16.084 29.3874 16.084C28.6874 16.084 28.0854 15.93 27.5674 15.622C27.0354 15.314 26.6294 14.894 26.3494 14.334C26.0554 13.774 25.9154 13.144 25.9154 12.416C25.9154 11.702 26.0554 11.072 26.3494 10.512C26.6434 9.966 27.0634 9.546 27.5954 9.238C28.1274 8.93 28.7294 8.776 29.4294 8.776C30.2694 8.776 30.9554 9 31.5014 9.448C32.0474 9.896 32.3974 10.512 32.5374 11.296H31.3754C31.2634 10.848 31.0254 10.484 30.6754 10.204C30.3114 9.938 29.8914 9.798 29.3874 9.798C28.7014 9.798 28.1414 10.05 27.7214 10.526C27.3014 11.016 27.0914 11.646 27.0914 12.416C27.0914 13.2 27.3014 13.844 27.7214 14.334C28.1414 14.824 28.7014 15.062 29.3874 15.062C29.9054 15.062 30.3394 14.936 30.7034 14.656C31.0534 14.39 31.2774 14.012 31.3894 13.536H32.5374C32.3834 14.334 32.0334 14.964 31.4874 15.412Z" fill="#008AA3"/>
<path d="M25.5954 38.7531L32.8682 38.7531L29.2318 49.5679L25.5954 38.7531Z" stroke="#BEC2CF" stroke-linecap="round" stroke-linejoin="round"/>
<path d="M32.8684 38.7531H25.5957L29.2321 27.9383L32.8684 38.7531Z" stroke="#008AA3" stroke-linecap="round" stroke-linejoin="round"/>
</svg>
