<svg width="90" height="90" viewBox="0 0 90 90" fill="none" xmlns="http://www.w3.org/2000/svg">
<g clip-path="url(#clip0_30_332)">
<path d="M90 64.2107C89.6748 64.7908 89.376 65.384 89.0223 65.9465C88.0071 67.5593 86.5503 68.012 84.7991 67.2869C84.6958 67.2451 84.5926 67.21 84.3926 67.1353C84.3926 67.5198 84.3926 67.8318 84.3926 68.1438C84.3926 72.5889 84.397 77.0317 84.3948 81.4768C84.3948 83.3357 83.5291 84.1948 81.6592 84.197C73.5315 84.2014 65.4016 84.2036 57.274 84.2036C55.2481 84.2036 54.4087 83.3621 54.4065 81.3252C54.4021 76.968 54.4021 72.6108 54.4021 68.2559C54.4021 67.9351 54.4021 67.6165 54.4021 67.2363C54.2527 67.2517 54.1429 67.2407 54.0528 67.2759C52.5433 67.8691 51.2073 67.7307 50.3482 66.6958C48.8804 64.9248 48.4322 63.7691 49.1683 62.0816C49.3594 61.6443 49.7308 61.2642 50.0845 60.9236C51.326 59.7261 52.6202 58.5813 53.833 57.3574C54.1363 57.052 54.356 56.5269 54.3714 56.094C54.4329 54.3713 54.3955 52.6443 54.3955 50.9194C54.3955 48.1553 55.0262 47.3884 57.7618 46.916C57.5552 46.5447 57.3641 46.1975 57.1905 45.8855C55.7007 46.2217 54.2725 46.6238 52.8157 46.8567C49.0364 47.4609 45.3604 47.0083 41.8382 45.501C41.2559 45.2527 40.9175 45.3472 40.4847 45.7844C36.0352 50.2668 31.5484 54.7119 27.1121 59.2075C26.2266 60.104 25.2774 60.7017 24.0184 60.8269C23.3218 60.895 22.6363 61.0532 21.9463 61.1785C20.45 61.4509 20.45 61.4531 20.1973 62.9561C20.0721 63.7053 19.949 64.4546 19.8194 65.2017C19.5733 66.6277 18.9229 67.2979 17.5035 67.5593C16.4685 67.7505 15.4358 67.9417 14.3943 68.0889C13.8538 68.1658 13.5857 68.3855 13.5132 68.9546C13.366 70.084 13.1507 71.2024 12.9617 72.3252C12.6233 74.3445 10.7513 75.9617 8.69902 76.0078C6.76982 76.0518 4.84062 76.1133 2.91142 76.1353C1.10966 76.1572 0.153852 75.1882 0.180219 73.3711C0.208783 71.2947 0.206586 69.2161 0.353803 67.1462C0.399945 66.4805 0.720746 65.696 1.17997 65.217C3.6475 62.6418 6.19414 60.1436 8.72319 57.6277C9.47246 56.8828 10.2239 56.8279 10.7886 57.4299C11.3182 57.9924 11.2413 58.7285 10.5337 59.4404C8.16288 61.8245 5.76567 64.1843 3.41679 66.5903C3.11137 66.9045 2.88505 67.4341 2.87187 67.8713C2.81254 69.7105 2.8455 71.5518 2.8455 73.4919C3.04985 73.5051 3.29814 73.5381 3.54643 73.5359C5.0955 73.5205 6.64457 73.4985 8.19584 73.4722C9.53178 73.4502 10.2723 72.8042 10.4964 71.4836C10.6853 70.3608 10.8743 69.238 11.0611 68.113C11.3182 66.575 12.0147 65.8872 13.5726 65.6257C14.5525 65.4609 15.5259 65.25 16.5103 65.1357C17.075 65.0698 17.3145 64.8611 17.3826 64.2854C17.5079 63.2439 17.7276 62.2112 17.899 61.1741C18.1077 59.9107 18.7998 59.113 20.0852 58.8801C21.2344 58.6714 22.3792 58.4275 23.5372 58.2825C24.2491 58.1946 24.772 57.9045 25.273 57.4014C29.4961 53.1475 33.7413 48.9155 37.9864 44.6836C38.2127 44.4573 38.4917 44.2859 38.8631 43.9959C36.1714 42.2644 34.0906 40.2078 32.4295 37.604C32.146 37.8655 31.9153 38.0632 31.7 38.2764C26.8199 43.1543 21.9397 48.0344 17.0596 52.9124C16.8333 53.1387 16.607 53.3738 16.3543 53.5693C15.783 54.011 15.1875 53.9802 14.6888 53.4858C14.1922 52.9915 14.1724 52.3894 14.5811 51.8137C14.7657 51.5544 15.0074 51.3347 15.2337 51.1062C20.3204 46.0195 25.4004 40.9263 30.5047 35.8616C30.9727 35.398 31.0408 35.0464 30.7947 34.4356C26.5101 23.8074 31.2452 12.2124 41.7261 7.60035C51.4205 3.33326 63.3846 7.71241 68.0603 17.2046C70.1741 21.4959 70.8091 25.9607 69.8929 30.6585C69.8116 31.0803 69.8819 31.6055 70.0664 31.9966C72.1275 36.3933 73.3579 40.9724 73.3316 45.8613C73.3294 46.2063 73.5689 46.6326 73.8282 46.8831C75.8299 48.8101 77.8645 50.6997 79.8838 52.6069C80.1167 52.8267 80.4727 53.0574 80.5057 53.3167C80.5672 53.8154 80.5848 54.4241 80.3496 54.8284C80.0486 55.3425 79.4224 55.4128 78.8709 55.0767C78.5765 54.8965 78.3106 54.6548 78.0579 54.4175C75.4739 52.0005 72.8987 49.5747 70.3169 47.1577C69.4446 46.3403 69.3567 46.3447 68.4624 47.1819C67.1661 48.397 65.8719 49.6143 64.503 50.8975C64.9248 51.1523 65.261 51.3567 65.461 51.4797C66.2564 50.8184 66.9024 50.0735 67.7132 49.645C69.6578 48.6167 72.0066 49.4583 73.0086 51.4094C74.0105 53.3562 73.3052 55.7314 71.409 56.8037C69.5083 57.8782 67.0188 57.3091 65.9883 55.3953C65.5203 54.5273 64.949 54.0132 64.0811 53.6572C63.5538 53.4419 63.0967 53.053 62.5957 52.7322C62.3387 52.9563 62.1497 53.2288 61.8948 53.3189C61.4312 53.4858 60.8182 53.7649 60.471 53.5913C60.0799 53.3958 59.7832 52.7783 59.6844 52.2949C59.5525 51.6489 59.6316 50.9568 59.658 50.2844C59.6778 49.7988 59.4932 49.6274 59.0032 49.5989C56.9949 49.4824 56.9949 49.4692 56.9949 51.4644C56.9949 53.2771 56.9795 55.0898 57.0059 56.9026C57.0169 57.6299 56.7686 58.1858 56.2347 58.6758C54.7493 60.0403 53.2859 61.429 51.8247 62.822C51.2864 63.3362 51.6951 64.8765 52.4268 65.0281C52.6311 65.0698 52.9278 64.9094 53.1102 64.7556C53.6023 64.3447 54.0594 63.8899 54.5274 63.446C54.991 63.0066 55.4744 62.6418 56.1643 62.9319C56.8763 63.2307 57.0037 63.8306 57.0037 64.5161C56.9993 69.8093 57.0037 75.1003 57.0059 80.3936C57.0059 80.7649 57.0059 81.1384 57.0059 81.5559C59.3943 81.5559 61.6905 81.5559 64.1382 81.5559C64.1382 81.2109 64.1382 80.8748 64.1382 80.5408C64.1382 76.8867 64.1338 73.2305 64.1404 69.5764C64.1448 67.2781 65.1665 66.2563 67.4495 66.2454C69.1172 66.2388 70.7828 66.2322 72.4505 66.2476C74.5686 66.2673 75.6277 67.3308 75.6299 69.4424C75.6365 73.4458 75.6321 77.4492 75.6321 81.5251C77.6975 81.5251 79.719 81.5251 81.8262 81.5251C81.8262 81.1494 81.8262 80.8044 81.8262 80.4617C81.8218 75.3157 81.8174 70.1697 81.813 65.0237C81.813 64.76 81.7295 64.4568 81.8328 64.2437C82.0591 63.7778 82.2898 63.1648 82.6875 62.978C83.0369 62.8154 83.6961 63.0374 84.0828 63.2944C84.6849 63.6921 85.177 64.2568 85.7044 64.7644C86.157 65.2017 86.4976 65.1116 86.8404 64.615C87.594 63.523 87.5874 63.3735 86.5877 62.4309C85.9285 61.8091 85.2539 61.2026 84.6145 60.561C84.0125 59.9568 83.9685 59.2141 84.4541 58.6824C84.9573 58.1331 85.6824 58.1001 86.3306 58.6802C87.2886 59.5371 88.2422 60.4072 89.1255 61.3389C89.5079 61.741 89.7144 62.3123 90.0022 62.8066C90 63.2747 90 63.7427 90 64.2107ZM53.8484 27.3889C53.6551 27.3032 53.4771 27.2175 53.2947 27.1428C49.9659 25.7695 48.0389 22.1726 48.8431 18.824C49.733 15.1194 52.908 12.8101 56.6697 13.1353C60.337 13.4517 63.0901 16.418 63.2483 20.2236C63.3912 23.6624 60.7149 26.9561 57.274 27.4944C56.6719 27.5889 56.3467 27.802 56.327 28.3777C56.2544 30.353 56.0435 32.3394 56.1863 34.2993C56.3885 37.0701 57.2454 39.7134 58.3528 42.2732C65.6543 38.6389 70.3016 28.7776 66.3025 19.5205C62.0882 9.76465 50.9876 5.81397 41.4998 10.5579C32.6997 14.959 29.1643 26.387 33.8709 35.0112C38.9861 44.387 49.7725 46.136 55.9534 43.3235C53.9759 38.1973 52.6905 32.9722 53.8484 27.3889ZM73.0459 81.5647C73.0459 77.4338 73.0547 73.3777 73.0152 69.3237C73.013 69.1458 72.5779 68.8272 72.3384 68.8184C70.763 68.7722 69.1831 68.8293 67.6077 68.7788C66.8694 68.7546 66.6673 69.0095 66.6717 69.728C66.7024 73.4084 66.6849 77.0889 66.6893 80.7693C66.6893 81.022 66.72 81.2769 66.7398 81.5625C68.836 81.5647 70.8706 81.5647 73.0459 81.5647ZM62.576 49.1704C63.9163 47.9136 65.2457 46.7293 66.4981 45.4724C67.667 44.2991 68.9392 43.6047 70.7146 44.231C70.5301 40.9856 69.7742 38.0017 68.5437 34.9365C66.5289 39.2827 63.4944 42.4556 59.4515 44.7473C60.2271 45.9207 60.9236 46.9995 61.6465 48.0564C61.908 48.4321 62.2354 48.7639 62.576 49.1704ZM60.2315 22.2891C61.1587 20.1094 60.5765 17.8616 58.7176 16.5432C57.1268 15.4138 55.4019 15.293 53.6902 16.2488C51.9852 17.2024 51.1392 18.7273 51.2754 20.6697C51.4117 22.6077 52.4466 23.9919 54.2615 24.728C54.49 24.8203 54.9624 24.7852 55.0701 24.6314C56.3204 22.834 58.0232 22.0584 60.2315 22.2891ZM68.7041 54.5098C69.8313 55.0613 70.7366 54.5339 70.8223 53.2705C70.117 53.6836 69.4095 54.0967 68.7041 54.5098Z" fill="#009CD7"/>
</g>
<defs>
<clipPath id="clip0_30_332">
<rect width="90" height="90" fill="white"/>
</clipPath>
</defs>
</svg>
