<svg width="100" height="100" viewBox="0 0 100 100" fill="none" xmlns="http://www.w3.org/2000/svg">
<g clip-path="url(#clip0_38_437)">
<path d="M99.9993 71.0963C99.2415 72.7109 97.9421 73.1927 96.2077 73.1823C86.7051 73.1328 77.1999 73.1589 67.6973 73.1562C67.2754 73.1562 66.8457 73.1588 66.4342 73.0859C65.6999 72.9583 65.2832 72.4635 65.2546 71.737C65.2233 70.9609 65.6322 70.4271 66.4056 70.2656C66.8145 70.1797 67.2441 70.1849 67.666 70.1849C77.0384 70.1797 86.4134 70.1823 95.7858 70.1823C96.1712 70.1823 96.554 70.1823 96.9993 70.1823C96.9993 69.3568 96.9993 68.6224 96.9993 67.7969C83.7207 67.7969 70.4342 67.7969 57.0775 67.7969C57.0775 68.5364 57.0775 69.2943 57.0775 70.1823C58.2233 70.1823 59.3561 70.1224 60.4759 70.2083C60.9811 70.2474 61.5957 70.4505 61.9342 70.7995C62.7103 71.5989 62.1894 72.9948 61.0488 73.0703C59.4342 73.1771 57.7936 73.1693 56.1842 73.013C54.9889 72.8984 54.1556 71.7786 54.0879 70.5312C54.0384 69.6224 54.0514 68.7083 54.0645 67.7969C54.0931 65.9036 55.1061 64.8568 56.9993 64.7396C57.3535 64.7188 57.7103 64.737 58.2207 64.737C58.2207 63.7474 58.2155 62.8229 58.2207 61.8958C58.2363 59.8281 59.2962 58.6354 61.3457 58.8125C63.2598 58.9766 64.5306 58.2734 65.8092 56.9245C69.0332 53.526 72.4134 50.2734 75.7129 46.9453C75.9368 46.7188 76.1504 46.3568 76.1504 46.0573C76.1712 40.9479 76.1608 35.8359 76.153 30.7266C76.153 30.6667 76.1139 30.6094 76.0696 30.487C71.0696 30.487 66.0488 30.487 60.929 30.487C60.929 32.7318 60.9316 34.9375 60.929 37.1432C60.9264 40.0964 59.4395 41.5859 56.4941 41.5859C53.1087 41.5859 49.7233 41.5885 46.3405 41.5859C43.4551 41.5833 41.9837 40.0964 41.9811 37.1849C41.9785 34.9766 41.9811 32.7708 41.9811 30.4948C39.2546 30.4948 36.6035 30.4948 33.8197 30.4948C34.4004 49.8359 34.9837 69.1745 35.5697 88.6641C36.4707 88.6641 37.3327 88.6614 38.1973 88.6641C41.541 88.6771 43.7441 90.8802 43.7598 94.2344C43.765 95.3724 43.778 96.513 43.7546 97.651C43.7311 98.6719 43.1973 99.2292 42.1764 99.2318C36.3509 99.2474 30.5254 99.2448 24.6999 99.2318C23.7285 99.2292 23.0853 98.5989 23.0931 97.763C23.1009 96.9036 23.7754 96.3021 24.8197 96.2995C29.7676 96.2891 34.7129 96.2943 39.6608 96.2943C40.0124 96.2943 40.3639 96.2943 40.7962 96.2943C40.7962 95.3463 40.8691 94.4687 40.778 93.612C40.6478 92.3906 39.6504 91.6094 38.2988 91.6042C34.9473 91.5911 31.5931 91.5989 28.2415 91.5989C25.541 91.5989 22.8379 91.5911 20.1374 91.6016C18.4342 91.6094 17.5566 92.474 17.515 94.1745C17.4967 94.849 17.5124 95.5234 17.5124 96.2995C17.9681 96.2995 18.3197 96.276 18.666 96.3047C19.5671 96.3776 20.1478 96.987 20.127 97.8125C20.1087 98.599 19.541 99.1875 18.6842 99.2239C17.8066 99.2604 16.9264 99.2526 16.0488 99.2292C15.166 99.2057 14.6035 98.7161 14.5879 97.8463C14.554 96.2213 14.4993 94.5807 14.679 92.9739C14.9421 90.6328 17.153 88.7656 19.5358 88.6719C20.0514 88.651 20.5697 88.6693 21.1738 88.6693C21.7572 69.2344 22.3379 49.8906 22.9186 30.4844C19.7624 30.4844 16.7207 30.4844 13.6322 30.4844C13.5592 30.849 13.5124 31.2005 13.416 31.5365C13.0098 32.9453 11.791 33.9714 10.2546 34.0156C7.94727 34.0807 5.63477 34.0625 3.32487 34.0234C1.60091 33.9948 0.69987 32.8255 0.00195312 31.4375C0.00195312 27.3359 0.00195312 23.2344 0.00195312 19.1302C0.658203 17.6042 1.67383 16.4844 3.45768 16.4453C5.66862 16.3958 7.88477 16.3984 10.0957 16.4453C11.6712 16.4792 13.0384 17.4505 13.3483 18.9193C13.5436 19.8464 13.9707 19.9427 14.7363 19.9089C15.8743 19.8594 17.015 19.8958 18.153 19.8958C19.903 19.8958 21.6556 19.8958 23.4941 19.8958C23.6738 17.8776 23.8483 15.9375 24.0176 14C24.3561 10.1094 24.6868 6.22136 25.0254 2.33073C25.0905 1.58854 25.3978 0.856772 26.166 0.833335C27.9342 0.778647 29.7259 0.445314 31.4655 1.13802C46.1712 6.97917 60.8848 12.7969 75.5775 18.6667C77.5306 19.4479 79.4447 20.1224 81.5983 19.9323C82.0566 19.8932 82.7181 20.2005 83.015 20.5677C84.9837 22.9922 86.9082 25.4557 88.7676 27.9635C89.0566 28.3542 89.1634 29.151 88.9577 29.5625C88.7519 29.9766 88.0801 30.3021 87.5644 30.3932C86.7754 30.5286 85.942 30.4323 85.1295 30.4323C83.153 30.4323 81.179 30.4323 79.179 30.4323C79.1478 30.6589 79.1139 30.7812 79.1139 30.9062C79.1113 35.9844 79.0983 41.0625 79.1322 46.138C79.1348 46.4974 79.3795 46.9349 79.6452 47.2031C82.9186 50.513 86.2676 53.7474 89.4785 57.1146C90.6426 58.3333 91.7936 58.9531 93.5254 58.8177C95.5931 58.6589 96.6504 59.8203 96.666 61.8854C96.6738 62.8125 96.6686 63.7422 96.6686 64.737C98.3587 64.651 99.3405 65.487 100.002 66.8021C99.9993 68.2318 99.9993 69.6641 99.9993 71.0963ZM13.627 27.4089C37.2962 27.4089 60.8926 27.4089 84.6452 27.4089C83.5957 26.0547 82.6139 24.8464 81.6999 23.5859C81.2962 23.0286 80.8613 22.8229 80.166 22.8255C70.1738 22.849 60.1816 22.8438 50.1895 22.8411C49.8327 22.8411 49.4629 22.875 49.1191 22.8021C48.3223 22.6328 47.8379 22.112 47.8874 21.2865C47.9342 20.474 48.4238 19.9818 49.2624 19.9089C49.5853 19.8802 49.9134 19.8932 50.2389 19.8932C56.554 19.8932 62.8665 19.8932 69.1816 19.8932C69.5176 19.8932 69.8561 19.8932 70.1921 19.8932C70.2025 19.8255 70.2129 19.7578 70.2259 19.6901C57.4837 14.6302 44.7389 9.57031 31.8743 4.46094C32.3353 9.69792 32.7806 14.7682 33.2285 19.8932C33.7051 19.8932 34.0592 19.8932 34.4134 19.8932C37.3743 19.8932 40.3379 19.8854 43.2988 19.901C44.2754 19.9062 44.9134 20.513 44.916 21.3516C44.9186 22.1901 44.2806 22.7839 43.3119 22.8359C43.0202 22.8516 42.7259 22.8411 42.4342 22.8411C33.2233 22.8411 24.0124 22.8411 14.8014 22.8411C14.4212 22.8411 14.041 22.8411 13.6322 22.8411C13.627 24.4323 13.627 25.9115 13.627 27.4089ZM44.9238 30.4818C44.9238 32.9297 44.9108 35.3255 44.9316 37.7214C44.9368 38.4219 45.416 38.6536 46.0514 38.6536C49.627 38.6536 53.2025 38.6484 56.7806 38.6589C57.6556 38.6615 58.0098 38.2318 57.9915 37.3906C57.9733 36.5469 57.9889 35.7005 57.9889 34.8542C57.9889 33.4036 57.9889 31.9531 57.9889 30.4818C53.5723 30.4818 49.2962 30.4818 44.9238 30.4818ZM61.2181 64.6432C72.0697 64.6432 82.8639 64.6432 93.653 64.6432C93.653 63.625 93.653 62.7005 93.653 61.776C82.804 61.776 72.028 61.776 61.2181 61.776C61.2181 62.763 61.2181 63.6875 61.2181 64.6432ZM10.5983 25.2813C10.5983 23.6536 10.5749 22.026 10.6087 20.3984C10.6243 19.6302 10.3066 19.362 9.56445 19.3724C7.71029 19.3984 5.85352 19.401 3.99935 19.3724C3.18945 19.3594 2.92122 19.6953 2.92643 20.4844C2.95508 23.6745 2.95247 26.8646 2.92904 30.0521C2.92383 30.7865 3.1556 31.1224 3.93685 31.1094C5.82487 31.0781 7.71289 31.0755 9.59831 31.112C10.3796 31.1276 10.6243 30.8047 10.6087 30.0651C10.5775 28.4714 10.5983 26.8776 10.5983 25.2813ZM25.7728 72.8776C27.9447 74.4505 30.0254 75.9583 32.2806 77.5885C32.1556 73.3958 32.0358 69.4635 31.9186 65.5286C31.8431 65.513 31.7702 65.5 31.6947 65.4844C29.7493 67.9141 27.8066 70.3411 25.7728 72.8776ZM30.2572 19.8516C29.7832 14.4271 29.3145 9.09375 28.8431 3.70573C28.4785 3.72396 28.1999 3.73698 27.8743 3.75261C27.4082 9.14323 26.9473 14.4688 26.4811 19.8516C27.8014 19.8516 28.9603 19.8516 30.2572 19.8516ZM30.4681 79.9219C28.4837 78.487 26.5853 77.112 24.502 75.6068C24.3848 79.7318 24.2754 83.6016 24.166 87.4687C24.2363 87.4896 24.3066 87.5078 24.377 87.5286C26.3822 85.0234 28.3848 82.5208 30.4681 79.9219ZM76.0931 58.7396C76.0931 56.0599 76.0931 53.487 76.0931 51.2344C73.6191 53.6693 71.0254 56.2266 68.4707 58.7396C70.9238 58.7396 73.4811 58.7396 76.0931 58.7396ZM79.1608 58.6875C81.7311 58.6875 84.2467 58.6875 86.5358 58.6875C84.1087 56.2422 81.6113 53.7292 79.1608 51.263C79.1608 53.651 79.1608 56.1615 79.1608 58.6875ZM25.028 58.3542C24.9186 62.125 24.8197 65.6484 24.7181 69.1693C24.7858 69.1875 24.8535 69.2057 24.9212 69.2213C26.7546 66.9297 28.5905 64.6354 30.4681 62.2891C28.6374 60.9688 26.9134 59.7214 25.028 58.3542ZM26.2337 55.5781C28.0488 56.8958 29.7936 58.1589 31.7285 59.5651C31.6191 55.7891 31.515 52.276 31.4134 48.7656C31.3457 48.7448 31.278 48.724 31.2103 48.7057C29.5671 50.974 27.9212 53.2474 26.2337 55.5781ZM25.4212 51.6641C26.9264 49.5859 28.4238 47.5208 29.9655 45.388C28.5072 44.3333 27.1009 43.3151 25.4212 42.099C25.4212 45.4557 25.4212 48.5026 25.4212 51.6641ZM31.0566 33.9844C30.9525 33.9635 30.8457 33.9427 30.7415 33.9219C29.3874 35.7161 28.0358 37.513 26.6478 39.3516C28.2025 40.474 29.6504 41.5182 31.0566 42.5339C31.0566 39.6042 31.0566 36.7943 31.0566 33.9844ZM32.429 88.6484C32.429 86.526 32.429 84.4948 32.429 82.1823C30.6035 84.4739 28.9863 86.5026 27.2754 88.6484C29.1582 88.6484 30.8092 88.6484 32.429 88.6484ZM25.8587 35.5026C27.1582 33.7708 28.3483 32.1875 29.6296 30.4818C28.2676 30.4818 27.1191 30.4818 25.8587 30.4818C25.8587 32.125 25.8587 33.7188 25.8587 35.5026Z" fill="#009CD7"/>
</g>
<defs>
<clipPath id="clip0_38_437">
<rect width="100" height="100" fill="white"/>
</clipPath>
</defs>
</svg>
