<svg width="80" height="80" viewBox="0 0 80 80" fill="none" xmlns="http://www.w3.org/2000/svg">
<g clip-path="url(#clip0_149_1911)">
<path d="M0 74.375C0.8 72.2922 1.59219 70.2078 2.40156 68.1297C2.76562 67.1953 3.46406 66.7531 4.24375 66.9172C5.25938 67.1312 5.74531 68.0906 5.34062 69.1672C4.7 70.8703 4.025 72.5594 3.37031 74.2562C2.7625 75.8328 3.47813 76.8719 5.17656 76.8734C8.79531 76.8766 12.4141 76.8844 16.0328 76.8578C16.3797 76.8547 16.8188 76.7203 17.0563 76.4844C21.5312 72.05 25.9828 67.5906 30.4375 63.1359C30.5109 63.0625 30.5719 62.9797 30.6938 62.8375C30.5484 62.6391 30.4062 62.4328 30.2531 62.2344C26.5719 57.5141 22.8844 52.7984 19.2156 48.0672C18.8938 47.6516 18.5562 47.4844 18.0359 47.5078C17.1266 47.5469 16.2141 47.5156 15.3031 47.5203C14.1344 47.525 13.6922 47.8281 13.2547 48.9422C12.3141 51.3375 11.3906 53.7391 10.4359 56.1281C10.2859 56.5031 10.0703 56.8969 9.775 57.1578C9.22969 57.6406 8.57812 57.6375 7.97188 57.2344C7.325 56.8047 7.1625 56.1625 7.36875 55.4484C7.52031 54.9266 7.75469 54.4281 7.95156 53.9187C8.73594 51.9094 9.51719 49.8984 10.3031 47.8906C11.2625 45.4359 12.7891 44.3984 15.4359 44.3937C15.6938 44.3937 15.9531 44.3937 16.3422 44.3937C16.1938 44.1219 16.1031 43.9297 15.9891 43.75C5.99531 27.8813 13.5547 7.04688 31.425 1.35156C33.3406 0.740625 35.3859 0.532812 37.3703 0.135937C37.5703 0.0953125 37.7687 0.0453125 37.9688 0C39.3234 0 40.6766 0 42.0312 0C43.1828 0.176563 44.3438 0.307813 45.4844 0.5375C65.1562 4.47969 74.7047 26.7547 64.0125 43.7422C63.8969 43.925 63.8016 44.1203 63.6625 44.3703C63.925 44.3812 64.0781 44.3937 64.2328 44.3953C67.4141 44.4313 68.6891 45.325 69.8547 48.3172C73.2344 57.0016 76.6172 65.6891 80 74.375C80 74.8953 80 75.4172 80 75.9375C79.4531 78.0984 78.1141 79.4672 75.9375 80C51.9797 80 28.0203 80 4.0625 80C3.5375 79.7969 2.98906 79.6422 2.49375 79.3828C1.1 78.6547 0.39375 77.4031 0 75.9375C0 75.4172 0 74.8953 0 74.375ZM39.9844 69.625C40.2016 69.3625 40.3516 69.1875 40.4922 69.0078C46.9609 60.7188 53.4406 52.4375 59.8906 44.1344C64.0687 38.7547 65.8562 32.6484 65.1813 25.8672C63.6844 10.7969 49.1484 0.370313 34.3953 3.75469C16.2984 7.90625 8.63281 29.4266 20.0391 44.0594C24.5672 49.8688 29.0969 55.6766 33.6266 61.4844C35.7234 64.1703 37.8203 66.8547 39.9844 69.625ZM32.7938 65.4984C28.9656 69.3344 25.1938 73.1125 21.4375 76.875C21.5141 76.875 21.6891 76.875 21.8641 76.875C39.5453 76.875 57.2281 76.8766 74.9094 76.8734C76.4891 76.8734 77.2234 75.7937 76.6484 74.3141C74.8016 69.5656 72.9344 64.825 71.1062 60.0687C70.8922 59.5109 70.6141 59.3531 70.0312 59.3547C64.3812 59.3781 58.7297 59.3891 53.0781 59.3469C52.2563 59.3406 51.7687 59.6 51.2781 60.2391C48.0891 64.3875 44.8562 68.5016 41.6391 72.6281C41.575 72.7109 41.5094 72.7906 41.4437 72.8719C40.4922 74.0484 39.4859 74.0578 38.5578 72.8766C36.6156 70.4 34.6813 67.9156 32.7938 65.4984ZM69.5844 56.2016C68.5531 53.5766 67.5719 51.0391 66.5563 48.5141C66.275 47.8125 65.6641 47.5281 64.9281 47.5234C63.9391 47.5156 62.95 47.5484 61.9641 47.5094C61.4453 47.4891 61.1062 47.65 60.7891 48.0688C59.4531 49.8281 58.0812 51.5625 56.7219 53.3047C55.9937 54.2391 55.2641 55.1719 54.4609 56.2016C59.5578 56.2016 64.5109 56.2016 69.5844 56.2016Z" fill="#009CD7"/>
<path d="M6.37187 60.6406C7.19375 60.6219 7.92188 61.3031 7.96094 62.1297C8.00313 62.9891 7.30156 63.7344 6.43594 63.7516C5.59687 63.7688 4.88906 63.1078 4.84844 62.2719C4.80937 61.4172 5.51562 60.6609 6.37187 60.6406Z" fill="#009CD7"/>
<path d="M39.9641 43.7375C35.3578 43.7375 30.75 43.7375 26.1437 43.7375C24.5844 43.7375 24.0625 43.2266 24.0625 41.6984C24.0609 33.5 24.0609 25.3016 24.0625 17.1031C24.0625 15.5641 24.5828 15.0422 26.1266 15.0406C29.1203 15.0375 32.1125 15.0437 35.1062 15.0391C36.7359 15.0359 38.2375 15.4297 39.6 16.3578C39.7859 16.4844 40.2047 16.4906 40.3875 16.3656C41.7719 15.4203 43.2984 15.0312 44.9563 15.0375C47.9234 15.0484 50.8906 15.0375 53.8578 15.0422C55.4047 15.0437 55.9375 15.5719 55.9375 17.0953C55.9391 25.2937 55.9391 33.4922 55.9375 41.6906C55.9375 43.2219 55.4109 43.7406 53.8641 43.7406C49.2297 43.7391 44.5969 43.7375 39.9641 43.7375ZM27.2281 34.825C28.6578 34.825 30.0328 34.7859 31.4062 34.8344C33.7313 34.9156 36.0969 34.4734 38.4359 35.4219C38.4359 35.0687 38.4359 34.7891 38.4359 34.5109C38.4359 29.9281 38.4359 25.3453 38.4359 20.7625C38.4359 19.2828 38.1094 18.8047 36.675 18.3859C36.1594 18.2359 35.6 18.1797 35.0594 18.175C32.7156 18.1531 30.3719 18.1641 28.0297 18.1672C27.775 18.1672 27.5219 18.1891 27.2281 18.2031C27.2281 23.7344 27.2281 29.2188 27.2281 34.825ZM52.7688 18.2266C49.8063 18.2266 46.8969 18.1906 43.9891 18.2562C43.4078 18.2687 42.8203 18.6375 42.2625 18.8984C41.7188 19.1516 41.5406 19.5953 41.5453 20.2281C41.575 25.0188 41.5609 29.8109 41.5609 34.6016C41.5609 34.85 41.5609 35.0984 41.5609 35.4688C43.4172 34.5812 45.2859 34.8563 47.1219 34.8297C48.9891 34.8031 50.8578 34.8234 52.7672 34.8234C52.7688 29.2609 52.7688 23.7766 52.7688 18.2266ZM38.3656 40.5688C38.5437 39.2047 38.4375 38.8984 37.2703 38.3922C36.6687 38.1313 35.975 37.9812 35.3203 37.9688C32.85 37.9203 30.3766 37.9484 27.9062 37.9516C27.6828 37.9516 27.4594 37.9828 27.2531 37.9969C27.2531 38.9 27.2531 39.7406 27.2531 40.5688C31.0016 40.5688 34.6859 40.5688 38.3656 40.5688ZM41.6016 40.5547C45.3609 40.5547 49.0641 40.5547 52.7719 40.5547C52.7719 39.6734 52.7719 38.8516 52.7719 37.9875C49.775 37.9875 46.8141 37.9 43.8609 38.0219C42.2078 38.0906 41.4906 39.0484 41.6016 40.5547Z" fill="#009CD7"/>
</g>
<defs>
<clipPath id="clip0_149_1911">
<rect width="80" height="80" fill="white"/>
</clipPath>
</defs>
</svg>
