<svg width="100" height="100" viewBox="0 0 100 100" fill="none" xmlns="http://www.w3.org/2000/svg">
<g clip-path="url(#clip0_38_438)">
<path d="M99.9994 55.474C99.3587 57.4297 97.9342 58.6016 96.1374 59.4583C94.9655 60.0156 93.8587 60.7083 92.7181 61.3307C89.7676 62.9453 87.1426 62.2161 85.4238 59.3125C85.3275 59.1484 85.2207 58.987 84.9707 58.5938C83.8926 59.4479 82.8509 60.2448 81.8561 61.0911C81.7077 61.2188 81.6426 61.6406 81.7363 61.8281C84.2962 67.0286 82.7624 70.7396 77.2936 72.3646C77.3119 74.0573 76.9603 75.6797 75.8483 77.0599C74.7363 78.4427 73.2728 79.2109 71.5619 79.5052C70.9603 85.1302 68.7103 86.9349 62.8014 86.526C61.9395 89.375 60.1322 91.1979 57.0827 91.6276C54.0436 92.0547 52.0384 90.1432 49.9994 88.4531C48.179 89.9062 46.4759 91.3724 44.6634 92.6875C40.8978 95.4219 35.6087 93.4922 34.4759 89.0104C34.2962 88.2969 34.2806 87.5417 34.1869 86.7943C29.7754 85.0599 28.6426 83.6458 28.4785 79.5651C24.7077 78.7109 22.7337 76.3385 22.6973 72.3646C22.4342 72.2839 22.1634 72.1927 21.89 72.1198C17.4863 70.9245 15.5775 65.9948 18.0723 62.1693C18.4264 61.625 18.4811 61.2578 17.9629 60.8646C16.9967 60.1302 16.0254 59.3984 15.0046 58.6276C14.6634 59.1849 14.4525 59.5469 14.2259 59.8958C12.8457 62.0156 10.2311 62.8151 7.97852 61.6823C6.0332 60.7057 4.153 59.6016 2.25716 58.5286C1.05924 57.8516 0.504557 56.6745 0.00195312 55.474C0.00195312 54.8229 0.00195312 54.1719 0.00195312 53.5208C1.24414 51.2057 2.44466 48.8698 3.73112 46.5807C7.60091 39.6927 11.502 32.8229 15.3926 25.9479C17.1582 22.8255 19.7233 22.0964 22.8613 23.8177C24.2285 24.5677 25.5931 25.3255 26.9577 26.0859C29.7806 27.6589 30.5775 29.6068 29.6113 32.8229C31.1842 33.276 32.7572 33.7344 34.3353 34.1667C34.4525 34.1979 34.6478 34.0885 34.7572 33.9922C36.8301 32.1536 39.416 31.7682 42.0098 31.4948C45.2441 31.1536 48.4915 30.9349 51.7285 30.6354C53.4837 30.474 55.1634 30.7656 56.8066 31.3438C59.2285 32.1953 61.6322 33.1016 64.0749 33.8802C64.7728 34.1042 65.6113 34.1172 66.3353 33.974C67.6921 33.7057 69.015 33.2526 70.2754 32.8984C70.1608 31.9557 69.9316 31.1198 69.9863 30.3047C70.0957 28.6068 70.9395 27.2839 72.4369 26.4349C74.1348 25.474 75.8405 24.5286 77.5566 23.6042C80.153 22.2109 82.8848 22.974 84.3613 25.5104C85.3275 27.1667 86.2624 28.8411 87.1921 30.5182C87.8535 31.7083 87.6191 32.8307 86.627 33.4141C85.6035 34.0156 84.4915 33.6328 83.7832 32.4063C82.89 30.8568 82.0202 29.2943 81.1348 27.7422C80.5384 26.6953 80.2155 26.5964 79.1895 27.1563C77.7077 27.9688 76.2285 28.7891 74.7546 29.6146C73.7467 30.1797 73.6374 30.5052 74.1842 31.474C79.0749 40.138 83.9707 48.7969 88.8691 57.4557C89.3822 58.362 89.7884 58.4792 90.6999 57.9844C92.2129 57.1615 93.7181 56.3229 95.2207 55.4792C96.1999 54.9271 96.3014 54.5781 95.7598 53.6068C94.7285 51.763 93.679 49.9297 92.6478 48.0833C92.2337 47.3438 92.2077 46.5859 92.7129 45.8776C93.1712 45.237 93.8483 44.9115 94.5853 45.138C95.1009 45.2969 95.7051 45.6458 95.9577 46.0885C97.3587 48.5365 98.666 51.0391 100.005 53.5208C99.9994 54.1719 99.9994 54.8229 99.9994 55.474ZM47.7858 78.1927C49.64 79.2083 51.0957 80.651 51.252 82.6927C51.39 84.4688 52.2728 85.4271 53.5514 86.3099C53.8978 86.5495 54.2103 86.8411 54.5462 87.0964C55.8483 88.0755 57.4551 87.9505 58.39 86.8073C59.3431 85.6406 59.1608 84.0651 57.9134 82.9948C57.0749 82.276 56.1556 81.6432 55.3483 80.8932C54.9681 80.5391 54.6374 80.0312 54.5124 79.5339C54.3119 78.7422 54.6634 78.0495 55.3691 77.6198C56.1869 77.1224 56.9915 77.2448 57.7233 77.8281C59.5046 79.2448 61.2728 80.6823 63.0619 82.0911C64.4108 83.1536 66.0098 83.0521 66.9785 81.875C67.9785 80.6615 67.7415 79.0417 66.377 77.9349C64.7858 76.6432 63.179 75.3698 61.5749 74.0937C60.1061 72.9245 59.804 71.8568 60.6608 70.8255C61.4837 69.8333 62.5723 69.8958 63.9889 71.0208C65.6686 72.3568 67.3431 73.7031 69.0306 75.0312C69.8691 75.6901 70.8092 75.8151 71.7832 75.388C72.7285 74.9766 73.2546 74.2161 73.3405 73.1953C73.4316 72.1276 72.9238 71.3333 72.1035 70.6875C70.4447 69.3776 68.7832 68.0677 67.1556 66.7188C66.3691 66.0677 66.2103 65.1745 66.6217 64.349C67.015 63.5573 67.8744 63.0911 68.7311 63.3151C69.153 63.4245 69.5619 63.6823 69.9134 63.9557C71.554 65.237 73.1608 66.5625 74.8066 67.8385C75.7441 68.5651 76.7858 68.6198 77.8249 68.0469C78.7624 67.5286 79.3665 66.4505 79.054 65.4115C78.8379 64.6875 78.3483 63.9271 77.765 63.4505C74.265 60.5885 70.7415 57.75 67.1478 55.0078C63.8379 52.4844 60.4551 50.0573 57.054 47.6563C54.4473 45.8151 51.5332 45.1198 48.3509 45.6771C47.1999 45.8776 46.041 46.0599 44.877 46.1745C39.416 46.7057 34.4108 44.1875 33.3587 38.401C33.3223 38.2005 33.0983 37.9375 32.9056 37.8802C31.1452 37.3385 29.3744 36.8333 27.5775 36.3099C23.9759 42.6823 20.4186 48.9818 16.9447 55.1302C18.5905 56.4167 20.1165 57.6094 21.6947 58.8411C23.3145 57.5469 25.0202 56.1406 26.7728 54.7995C30.416 52.013 35.4369 53.4792 37.0384 57.7656C37.1165 57.974 37.1921 58.1797 37.2676 58.388C43.4473 56.2031 48.7415 62.6068 45.3066 68.3594C49.4733 70.9896 49.6582 74.974 47.7858 78.1927ZM72.4421 36.3464C70.6452 36.8516 68.9577 37.3203 67.2754 37.8047C65.7546 38.2422 64.278 38.1615 62.7832 37.6068C60.4108 36.7214 58.0254 35.8594 55.6113 35.0911C54.5749 34.7604 53.4447 34.4792 52.377 34.5417C48.9369 34.737 45.4994 35.0469 42.0749 35.4297C40.7337 35.5807 39.4134 35.9922 38.1165 36.388C37.3301 36.6276 37.0619 37.2526 37.2832 38.1016C37.8066 40.1016 39.0488 41.3932 41.0124 41.9844C42.7051 42.4948 44.4342 42.4505 46.1296 42.0703C51.304 40.9089 55.9967 41.9062 60.2415 45.0755C64.3066 48.112 68.3874 51.125 72.4342 54.1875C74.4707 55.7292 76.4473 57.3542 78.304 58.8281C79.9342 57.5651 81.4603 56.3828 83.0645 55.1406C79.5671 48.9531 76.0228 42.6797 72.4421 36.3464ZM10.2494 58.3672C10.541 58.0677 10.9186 57.8099 11.1217 57.4531C16.0462 48.776 20.9447 40.0885 25.8639 31.4089C26.3223 30.6016 26.1348 30.0807 25.3535 29.6589C23.8118 28.8229 22.2858 27.9557 20.7441 27.1198C19.8066 26.612 19.4525 26.7109 18.9264 27.638C14.0098 36.3177 9.10612 45.0052 4.18425 53.6823C3.73112 54.4818 3.903 55.013 4.68685 55.4401C6.22852 56.276 7.75716 57.1406 9.29623 57.9818C9.54623 58.1172 9.82748 58.1979 10.2494 58.3672ZM42.4707 65.0365C42.4421 63.5 41.9681 62.6875 41.015 62.2083C40.0228 61.7083 39.0436 61.8125 38.1764 62.5C34.6608 65.2891 31.1452 68.0755 27.6608 70.901C26.4473 71.8854 26.3119 73.5104 27.2337 74.6432C28.1582 75.7812 29.7441 75.987 30.9811 75.013C34.4837 72.2604 37.9733 69.4922 41.4082 66.6589C41.9785 66.1901 42.2598 65.3698 42.4707 65.0365ZM45.0228 74.8151C44.9915 73.3125 44.5436 72.4922 43.5905 72C42.5619 71.4688 41.5645 71.6042 40.6712 72.3125C38.252 74.2266 35.8327 76.1406 33.4421 78.0938C32.2233 79.0911 32.0645 80.6641 32.9785 81.8255C33.8874 82.9792 35.4733 83.2083 36.7129 82.2474C39.1764 80.3359 41.6191 78.3984 44.0046 76.3906C44.5514 75.9297 44.8197 75.1406 45.0228 74.8151ZM33.6842 60.112C33.4629 58.9141 33.015 58.099 32.0645 57.6016C31.0749 57.0859 30.0905 57.1667 29.2285 57.8464C26.752 59.7917 24.2832 61.7474 21.8535 63.75C20.6816 64.7135 20.5566 66.2812 21.4395 67.4141C22.3249 68.5495 23.9707 68.7865 25.1816 67.8437C27.6426 65.9297 30.0853 63.9948 32.4707 61.987C33.0124 61.5286 33.2858 60.7448 33.6842 60.112ZM40.9889 90.0677C41.2598 89.9792 41.7624 89.9401 42.0983 89.6823C43.7259 88.4401 45.3613 87.2005 46.8848 85.8385C47.8353 84.9896 47.7806 83.4375 46.9811 82.4479C46.1478 81.4193 44.6504 81.0911 43.5645 81.8776C41.9603 83.0417 40.4186 84.2943 38.9186 85.5885C38.1035 86.2917 37.9681 87.4948 38.416 88.4714C38.8822 89.4896 39.7129 89.9714 40.9889 90.0677Z" fill="#009CD7"/>
<path d="M48.0462 12.9896C48.0462 11.4271 48.0384 9.86459 48.0488 8.30469C48.0592 6.95573 48.8171 6.08334 49.9681 6.06511C51.153 6.04688 51.9447 6.94271 51.9499 8.34375C51.9577 11.4349 51.9577 14.526 51.9499 17.6172C51.9447 19.026 51.1608 19.9219 49.9811 19.9115C48.8144 19.8984 48.0566 18.9948 48.0488 17.5807C48.041 16.0495 48.0462 14.5182 48.0462 12.9896Z" fill="#009CD7"/>
<path d="M38.903 21.8307C38.877 22.9688 38.4421 23.599 37.5879 23.9167C36.7415 24.2318 35.8665 23.9375 35.3066 23.0833C34.3249 21.5885 33.3874 20.0625 32.4342 18.5495C31.7051 17.3932 30.9655 16.2448 30.2546 15.0781C29.5566 13.9349 29.7598 12.7813 30.7415 12.1693C31.7155 11.5625 32.8431 11.8828 33.5671 13.0234C35.2077 15.6016 36.8353 18.1901 38.4499 20.7865C38.6816 21.1641 38.8066 21.6042 38.903 21.8307Z" fill="#009CD7"/>
<path d="M70.1712 14.0339C70.0749 14.263 69.9499 14.7396 69.6999 15.1406C68.1061 17.7109 66.4889 20.2682 64.8691 22.8203C64.0957 24.0391 63.0072 24.3646 61.9941 23.7188C60.9889 23.0781 60.8223 21.9401 61.5827 20.724C63.2207 18.1042 64.8717 15.4922 66.5254 12.8828C67.0566 12.0417 67.8353 11.6953 68.7884 11.974C69.653 12.224 70.1243 12.8594 70.1712 14.0339Z" fill="#009CD7"/>
<path d="M88.028 39.3932C88.0202 38.3073 88.8353 37.4688 89.916 37.4505C90.9967 37.4323 91.8587 38.2474 91.8926 39.3151C91.9264 40.4115 91.0358 41.3307 89.9447 41.3255C88.8822 41.3203 88.0358 40.4688 88.028 39.3932Z" fill="#009CD7"/>
</g>
<defs>
<clipPath id="clip0_38_438">
<rect width="100" height="100" fill="white"/>
</clipPath>
</defs>
</svg>
