<svg width="80" height="80" viewBox="0 0 80 80" fill="none" xmlns="http://www.w3.org/2000/svg">
<g clip-path="url(#clip0_30_301)">
<path d="M0 37.0271C0.410417 36.4458 0.970833 36.2646 1.67708 36.2729C4.28125 36.3021 6.88542 36.2813 9.48958 36.2854C10.6896 36.2875 11.0771 36.6813 11.0854 37.8771C11.0896 38.6313 11.0917 39.3875 11.0958 40.1417C11.0958 40.1917 11.1229 40.2417 11.1687 40.3958C12.0146 40.3958 12.8917 40.3917 13.7708 40.3958C15.6521 40.4083 16.6479 41.4042 16.6646 43.3C16.675 44.3917 16.6667 45.4813 16.6667 46.5625C19.1875 45.6542 21.6604 44.7625 24.2 43.8479C24.2 40.9542 24.2 37.9479 24.2 34.8604C23.2292 35.3896 22.2625 35.6417 21.2292 35.3896C19.8188 35.0479 18.8813 34.1604 18.4896 32.7771C18.0875 31.3542 18.4583 30.0833 19.5333 29.0708C21.4104 27.3021 23.3125 25.5646 25.2083 23.8167C31.6 17.9188 37.9958 12.025 44.3854 6.125C46.3042 4.35417 48.2 4.325 50.1208 6.07709C51.7562 7.56875 53.3771 9.075 54.9979 10.5833C55.6875 11.225 55.7792 11.875 55.2875 12.4229C54.8063 12.9583 54.1042 12.9375 53.4333 12.3229C51.7625 10.7917 50.1083 9.24584 48.4417 7.71042C47.6 6.93542 46.9562 6.92917 46.125 7.69792C37.8979 15.2917 29.6708 22.8896 21.4458 30.4854C21.3125 30.6083 21.1729 30.7292 21.0521 30.8646C20.5771 31.4021 20.5604 32.1042 21 32.6479C21.4167 33.1625 22.1729 33.2979 22.7625 32.9292C23.025 32.7646 23.2521 32.5438 23.4812 32.3333C30.4854 25.8708 37.4896 19.4083 44.4938 12.9438C46.2708 11.3042 48.2833 11.3 50.0604 12.9396C56.9125 19.2604 63.7625 25.5833 70.6146 31.9042C70.8833 32.1521 71.1479 32.4021 71.4229 32.6417C72.1542 33.2792 72.9458 33.3 73.5 32.7042C74.0812 32.0813 74.0187 31.3313 73.2937 30.65C72.0229 29.4563 70.7333 28.2792 69.4521 27.0958C65.55 23.4917 61.6479 19.8875 57.7458 16.2833C57.5937 16.1417 57.4312 16.0042 57.3042 15.8417C56.9167 15.3438 56.9042 14.8146 57.3208 14.3479C57.7583 13.8542 58.3042 13.7958 58.8646 14.1646C59.0375 14.2771 59.1854 14.4292 59.3396 14.5688C64.4646 19.3042 69.5896 24.0417 74.7146 28.7792C76.3688 30.3083 76.6854 32.2125 75.5896 33.8813C74.5104 35.5229 72.1729 35.9938 70.5354 34.9563C70.4979 34.9333 70.4396 34.9458 70.35 34.9375C70.35 40.9167 70.35 46.8917 70.35 52.9729C71.2708 52.6583 72.1646 52.3521 73.0583 52.0479C76.3812 50.9104 78.8625 52.1604 79.9167 55.5C79.9313 55.5458 79.975 55.5833 80.0062 55.625C80.0062 56.1458 80.0062 56.6667 80.0062 57.1875C79.5917 58.0146 79.2521 58.8896 78.7458 59.6563C78.1 60.6333 76.9771 60.9625 75.9625 61.4354C71.4854 63.5167 67.0271 65.6375 62.5458 67.7125C61.0396 68.4083 59.5417 69.2146 57.95 69.6104C54.0938 70.5708 50.1812 71.3021 46.2979 72.1583C44.1708 72.6271 42.0917 72.8854 39.9146 72.2521C33.2542 70.3146 26.5625 68.4792 19.8833 66.6083C18.85 66.3188 17.8125 66.0438 16.6917 65.7396C16.6917 66.6729 16.7 67.4771 16.6896 68.2792C16.6667 70.0604 15.6396 71.0896 13.8708 71.1063C12.9688 71.1146 12.0667 71.1083 11.0917 71.1083C11.0917 72 11.0938 72.8 11.0917 73.6021C11.0875 74.8125 10.7167 75.1938 9.51458 75.1979C6.86042 75.2042 4.20417 75.1833 1.55 75.2104C0.839583 75.2125 0.333333 74.9896 0 74.375C0 61.925 0 49.475 0 37.0271ZM38.7687 47.8167C38.7687 47.3688 38.7687 47.0875 38.7687 46.8042C38.7687 44.2792 38.7729 41.7521 38.7667 39.2271C38.7646 38.575 38.925 38.025 39.6083 37.8063C40.4229 37.5438 41.1063 38.1104 41.1083 39.075C41.1188 42.1479 41.1437 45.2208 41.0917 48.2938C41.0792 49.0417 41.325 49.3563 42.0042 49.5417C44.6125 50.25 47.2062 51.0063 49.8146 51.7167C51.2354 52.1042 52.3708 52.85 53.1146 54.1438C53.1562 54.2167 53.2292 54.2708 53.3875 54.4417C53.3875 54.1417 53.3875 53.9917 53.3875 53.8438C53.3875 47.5938 53.3896 41.3438 53.3833 35.0938C53.3833 34.6521 53.3417 34.2083 53.2854 33.7708C52.8563 30.5292 49.6333 27.9958 46.5083 28.4354C43.8958 28.8021 41.7896 30.9104 41.2375 33.7104C41.0625 34.5938 40.5146 35.0708 39.8271 34.9375C39.1333 34.8042 38.7833 34.2458 38.9146 33.3792C39.6917 28.2479 45.1875 24.6542 50.0438 26.5729C53.5708 27.9667 55.7229 31.1583 55.7313 35.1833C55.7438 42.1875 55.7354 49.1938 55.7354 56.1979C55.7354 56.5021 55.7354 56.8083 55.7354 57.3104C56.9583 57.1438 58.1229 57.1396 59.1875 56.8104C61.8917 55.9708 64.5437 54.9667 67.2312 54.0708C67.7979 53.8813 67.9729 53.6188 67.9708 53.025C67.9479 46.4896 67.95 39.9521 67.9688 33.4167C67.9708 32.8771 67.8208 32.5042 67.4187 32.1354C61.0958 26.3167 54.7875 20.4833 48.475 14.6542C47.5792 13.8271 46.9937 13.8208 46.1021 14.6438C39.75 20.5063 33.3958 26.3688 27.0625 32.2521C26.8 32.4958 26.6021 32.9479 26.5979 33.3063C26.5625 36.4833 26.5771 39.6604 26.5792 42.8375C26.5792 43.0646 26.6042 43.2938 26.6187 43.55C26.8521 43.5313 27.0312 43.5188 27.2083 43.5C30.0312 43.2292 32.7062 43.5542 35.075 45.3104C36.2146 46.1625 37.4292 46.9146 38.7687 47.8167ZM16.6854 56.3188C16.6854 58.4021 16.7042 60.4854 16.6729 62.5688C16.6646 63.1063 16.8208 63.3292 17.3521 63.475C25.2167 65.6604 33.0667 67.8958 40.9396 70.0438C41.9312 70.3146 43.075 70.3417 44.0896 70.1563C47.2333 69.5833 50.3562 68.8771 53.475 68.175C55.5458 67.7083 57.6521 67.4292 59.6208 66.4896C65.0625 63.8875 70.55 61.3854 76.0229 58.8479C77.3 58.2563 77.9688 56.7688 77.4938 55.5396C76.9958 54.25 75.6104 53.6396 74.2104 54.1188C71.4562 55.0625 68.7125 56.0354 65.9562 56.9729C62.2292 58.2396 58.5937 59.9146 54.5021 59.6271C54.0375 59.5938 53.5625 59.6333 53.1 59.6958C52.8396 59.7313 52.5333 59.8188 52.3521 59.9917C50.9146 61.3479 49.2479 61.725 47.3708 61.2042C43.2896 60.0688 39.2104 58.9208 35.1312 57.7729C34.2313 57.5188 33.8688 56.9917 34.05 56.2583C34.2271 55.5479 34.8417 55.2667 35.75 55.5104C36.7292 55.7729 37.7021 56.0625 38.6771 56.3354C41.8062 57.2104 44.9354 58.0896 48.0687 58.95C49.5937 59.3688 50.9271 58.6417 51.325 57.2208C51.7104 55.8438 50.875 54.5 49.3708 54.0813C49.1208 54.0125 48.8646 53.9583 48.6146 53.8896C38.9917 51.2521 41.1083 52.2229 33.8167 47.275C32.2375 46.2021 30.5521 45.7146 28.675 45.7833C24.5292 45.9375 20.7313 47.2979 17.1 49.1875C16.8813 49.3 16.7083 49.7125 16.7042 49.9896C16.6708 52.0979 16.6854 54.2083 16.6854 56.3188ZM11.0854 68.7604C11.9187 68.7604 12.6708 68.7083 13.4146 68.775C14.1917 68.8438 14.3583 68.5354 14.3563 67.8083C14.3333 59.7896 14.3417 51.7729 14.3417 43.7542C14.3417 43.5729 14.3917 43.3667 14.3229 43.2146C14.2437 43.0396 14.0625 42.7896 13.9187 42.7833C12.9958 42.7438 12.0687 42.7625 11.0854 42.7625C11.0854 43.75 11.0854 44.6313 11.0854 45.5125C11.0854 48.0042 10.8542 48.5979 9.89167 48.5854C8.95625 48.5729 8.74167 48.0063 8.74167 45.5583C8.74167 43.7104 8.74167 41.8625 8.74167 40.0125C8.74167 39.5792 8.74167 39.1438 8.74167 38.6896C6.56042 38.6896 4.47292 38.6896 2.3875 38.6896C2.3875 50.0938 2.3875 61.4333 2.3875 72.7833C4.51875 72.7833 6.60625 72.7833 8.74167 72.7833C8.74167 72.4104 8.74167 72.1 8.74167 71.7917C8.74167 65.5958 8.74167 59.4 8.74167 53.2042C8.74167 52.9708 8.73125 52.7354 8.74792 52.5021C8.79792 51.8167 9.25208 51.3708 9.88958 51.3625C10.5208 51.3542 11.0021 51.7917 11.0729 52.4688C11.1 52.7271 11.0854 52.9896 11.0854 53.25C11.0854 58.3792 11.0854 63.5063 11.0854 68.7604Z" fill="#009CD7"/>
<path d="M42.9167 40.0083C42.9188 39.0479 43.3521 38.4938 44.0896 38.5042C44.8229 38.5146 45.2625 39.0875 45.2583 40.0333C45.2563 40.9667 44.7938 41.5458 44.0604 41.5396C43.3292 41.5333 42.9146 40.9813 42.9167 40.0083Z" fill="#009CD7"/>
</g>
<defs>
<clipPath id="clip0_30_301">
<rect width="80" height="80" fill="white"/>
</clipPath>
</defs>
</svg>
