<svg width="80" height="80" viewBox="0 0 80 80" fill="none" xmlns="http://www.w3.org/2000/svg">
<path d="M3 64.8911V49.4246C3 46.869 5.0889 44.7926 7.65985 44.7926C10.2308 44.7926 12.3197 46.869 12.3197 49.4246V72.5179C12.3197 75.0735 10.2308 77.1499 7.65985 77.1499C5.0889 77.1499 3 75.0735 3 72.5179V71.3067M60.284 2H66.1758C67.2202 2 68.0638 2.83855 68.0638 3.87675C68.0638 4.91495 67.2202 5.7535 66.1758 5.7535H34.5611C33.5167 5.7535 32.6731 4.91495 32.6731 3.87675C32.6731 2.83855 33.5167 2 34.5611 2H53.3612M12.6143 71.9589C17.9169 74.1018 24.9334 76.857 30.236 79C39.4084 77.8154 48.5942 76.6308 57.7666 75.4328C63.9797 70.162 70.1929 64.8911 76.406 59.6069C77.3835 57.9431 77.1291 55.8667 75.8302 54.6156C74.7724 53.5907 73.1521 53.2579 71.6658 53.7637C66.3632 57.3309 61.0606 60.8847 55.7447 64.4519C46.7597 63.6932 37.7748 62.9345 28.7899 62.1758M12.6143 50.6358C14.4488 50.3696 18.4793 50.2764 21.4921 51.2481C24.987 52.3661 25.469 53.4443 29.2317 54.9217C32.258 56.1063 34.8691 56.2793 38.5514 56.4923C48.7013 57.0647 49.9466 58.8083 50.7099 60.2325C51.3258 61.3905 50.8706 63.0543 50.7099 63.6532M35.7528 6.16612V55.4142M66.0151 6.16612V57.2111M17.9035 49.8505V22.6975H35.0432M35.4315 28.3277H21.8536V32.0413H35.4315M35.4315 37.5252H21.8536V41.2254H35.4315M35.4315 46.8823H21.8536V50.5825H35.4315M39.636 11.0776H44.8717V16.9874H39.636V11.0776ZM48.38 11.0776H53.6156V16.9874H48.38V11.0776ZM57.298 11.0776H62.5336V16.9874H57.298V11.0776ZM39.636 24.2681H44.8717V30.1779H39.636V24.2681ZM48.38 24.2681H53.6156V30.1779H48.38V24.2681ZM57.298 24.2681H62.5336V30.1779H57.298V24.2681ZM39.636 37.3654H44.8717V43.2752H39.636V37.3654ZM48.38 37.3654H53.6156V43.2752H48.38V37.3654ZM57.298 37.3654H62.5336V43.2752H57.298V37.3654ZM39.636 50.5825H44.8717V56.4923H39.636V50.5825ZM48.38 50.5825H53.6156V56.4923H48.38V50.5825ZM57.298 50.5825H62.5336V56.4923H57.298V50.5825ZM21.4251 17.6396H31.5349V22.0586H21.4251V17.6396Z" stroke="#009CD7" stroke-width="2" stroke-miterlimit="10" stroke-linecap="round" stroke-linejoin="round"/>
</svg>
