<svg width="80" height="80" viewBox="0 0 80 80" fill="none" xmlns="http://www.w3.org/2000/svg">
<path d="M27.5555 66.8125C26.8492 67.5062 26.2242 68.1187 25.4867 68.8417C25.9013 69.2187 26.3159 69.5708 26.7013 69.95C29.4576 72.6583 29.4451 72.3583 26.6784 75.0917C26.1034 75.6583 25.5367 76.2354 24.9659 76.8042C24.0097 77.7542 23.4742 77.7604 22.5326 76.8208C20.6513 74.9437 18.7763 73.0625 16.8951 71.1854C16.6951 70.9854 16.4867 70.7958 16.2472 70.5667C16.0326 70.7646 15.8388 70.9292 15.6597 71.1062C13.7617 73.0021 11.8659 74.9021 9.96799 76.7979C8.99299 77.7729 8.47216 77.7646 7.48049 76.7729C6.04299 75.3375 4.60549 73.9021 3.17008 72.4625C2.23049 71.5187 2.23258 70.9896 3.19091 70.0312C13.7972 59.4187 24.4055 48.8083 35.018 38.2042C35.2347 37.9875 35.5242 37.8437 35.8367 37.6271C34.468 36.2979 33.8263 34.9062 34.0201 33.2C34.1555 32.0062 34.6722 31.0146 35.5534 30.2146C37.5201 28.4312 40.0763 28.5833 42.3513 30.5437C43.2117 29.6896 44.068 28.8375 44.8847 28.025C39.0201 25.4229 35.768 20.9187 36.368 14.2396C36.868 8.67708 40.6117 4.46666 45.8972 2.97083C46.1138 3.725 46.3326 4.48333 46.5659 5.29583C46.3576 5.38541 46.1805 5.47708 45.9972 5.54166C41.3722 7.14583 38.4263 11.5375 38.7617 16.3333C39.0992 21.1479 42.6013 25.1042 47.3909 26.0458C48.043 26.175 48.6159 26.3458 48.8222 27.0542C49.0222 27.7458 48.5867 28.1771 48.1534 28.6062C46.8805 29.8729 45.6117 31.1437 44.4076 32.3458C45.4763 33.4125 46.518 34.4521 47.7201 35.6542C48.1159 35.2167 48.6159 34.6292 49.1513 34.0729C49.8909 33.3042 50.6597 32.5625 51.4097 31.8021C51.843 31.3625 52.2805 30.9542 52.9722 31.1771C53.643 31.3917 53.8097 31.9354 53.9326 32.5604C54.7763 36.9083 58.1034 40.2458 62.3742 41.0625C66.9388 41.9354 71.5909 39.7021 73.7492 35.6021C75.9472 31.4312 75.1763 26.3646 71.8451 23.0708C70.6826 21.9208 70.7034 21.4396 71.9576 20.3625C75.818 17.05 76.0242 11.0896 72.4013 7.51041C68.7951 3.94791 62.8826 4.19166 59.6076 8.0375C58.5534 9.275 58.0763 9.28333 56.9034 8.12291C54.9326 6.17083 52.5534 5.13541 49.7847 4.9875C49.6097 4.97708 49.4326 4.96875 49.1972 4.95625C49.1972 4.13541 49.1972 3.36458 49.1972 2.4875C52.6055 2.45833 55.5701 3.61666 58.1847 5.8625C60.7326 3.40416 63.7576 2.22291 67.2742 2.53541C70.193 2.79375 72.6555 4.05208 74.6284 6.23541C78.2638 10.2625 78.7951 16.9312 74.1492 21.7917C77.2347 25.5542 78.3367 29.7917 76.8805 34.5271C75.8117 38.0042 73.5847 40.575 70.3763 42.2729C63.6909 45.8104 54.818 42.8479 51.9409 35C51.1222 35.8354 50.2888 36.6854 49.4076 37.5854C49.4701 37.6583 49.6117 37.8354 49.7597 38.0042C51.5305 40.0062 51.4597 42.8854 49.5909 44.7C47.7242 46.5146 44.8367 46.5208 42.8992 44.6604C41.2097 43.0354 39.5763 41.3542 37.9159 39.6979C37.7909 39.5729 37.6534 39.4604 37.5805 39.3937C26.9242 50.0396 16.3055 60.6625 5.74716 71.2208C6.71174 72.1833 7.75549 73.2229 8.82008 74.2854C18.7992 64.2979 28.8972 54.1937 39.0347 44.0479C39.6597 44.7417 40.1763 45.3187 40.6784 45.8771C36.9076 49.6396 33.0659 53.4729 29.1659 57.3646C29.4909 57.7062 29.6763 57.9104 29.8701 58.1062C31.7659 60.0042 33.6638 61.9 35.5597 63.8C36.4763 64.7187 36.4805 65.2729 35.5805 66.1792C34.4972 67.2687 33.4138 68.3604 32.3201 69.4375C31.5409 70.2042 30.9326 70.2062 30.1597 69.4396C29.2909 68.5812 28.4388 67.7062 27.5555 66.8125ZM25.6847 72.4542C24.7805 71.5562 23.9076 70.7021 23.0492 69.8333C22.2847 69.0604 22.2826 68.45 23.0409 67.6812C24.118 66.5875 25.2076 65.5062 26.2951 64.4229C27.2097 63.5104 27.7638 63.5042 28.668 64.4104C29.5076 65.2521 30.3326 66.1104 31.0701 66.8667C31.8013 66.1625 32.4451 65.5437 33.0055 65.0042C31.1659 63.1646 29.2972 61.2937 27.5284 59.5271C24.4492 62.6104 21.3201 65.7458 18.2826 68.7896C20.0722 70.5833 21.9409 72.4542 23.8222 74.3396C24.3826 73.7729 24.9972 73.15 25.6847 72.4542ZM48.5472 40.8854C48.3451 40.5562 48.0784 39.8917 47.618 39.4167C45.2951 37.0271 42.9242 34.6854 40.5638 32.3333C39.4555 31.2292 38.068 31.1583 37.1097 32.1417C36.1701 33.1042 36.2472 34.4625 37.3201 35.5417C38.9909 37.2208 40.668 38.8937 42.343 40.5687C43.1347 41.3604 43.9076 42.1708 44.7326 42.9271C45.4513 43.5854 46.3097 43.6917 47.2013 43.2917C48.0742 42.9021 48.4597 42.1729 48.5472 40.8854Z" fill="#009CD7"/>
<path d="M49.3534 8.72708C53.1659 8.72708 56.2513 11.8187 56.2409 15.6292C56.2305 19.3979 53.1409 22.4833 49.3826 22.4812C45.5742 22.4771 42.493 19.3896 42.493 15.575C42.493 11.8187 45.5867 8.72916 49.3534 8.72708ZM44.993 15.5708C44.9742 17.9729 46.9451 19.975 49.3326 19.9792C51.7576 19.9833 53.7138 18.0562 53.7409 15.6354C53.768 13.2396 51.7972 11.2396 49.4013 11.2292C46.9888 11.2167 45.0117 13.1646 44.993 15.5708Z" fill="#009CD7"/>
<path d="M71.2451 30.6021C71.2493 34.4104 68.1576 37.4917 64.3409 37.4854C60.5805 37.4792 57.4909 34.3792 57.4972 30.6187C57.5034 26.8083 60.593 23.7292 64.4055 23.7333C68.1638 23.7396 71.2409 26.8271 71.2451 30.6021ZM59.9972 30.5521C59.968 32.9562 61.9242 34.9687 64.3117 34.9875C66.7367 35.0062 68.7055 33.0875 68.7451 30.6687C68.7847 28.2729 66.8242 26.2583 64.4305 26.2354C62.0159 26.2104 60.0263 28.1479 59.9972 30.5521Z" fill="#009CD7"/>
<path d="M66.2701 8.72708C69.0326 8.74166 71.2701 11.0104 71.2451 13.7708C71.2201 16.5292 68.9451 18.7542 66.1784 18.7292C63.4617 18.7042 61.243 16.4521 61.2451 13.7208C61.2472 10.9583 63.5076 8.7125 66.2701 8.72708ZM66.2367 11.2312C64.8701 11.2375 63.7597 12.3479 63.7472 13.7167C63.7367 15.0667 64.8617 16.2146 66.2118 16.2271C67.6076 16.2396 68.7555 15.0937 68.7388 13.7021C68.7263 12.3375 67.5993 11.225 66.2367 11.2312Z" fill="#009CD7"/>
</svg>
