<svg width="160" height="58" viewBox="0 0 160 58" fill="none" xmlns="http://www.w3.org/2000/svg">
<g clip-path="url(#clip0_704_9145)">
<path d="M5.05354 42.9699H7.27673L8.69099 44.4156V51.6422L7.27673 53.0879H5.05354V54.5336H5.6607V55.9793H3.63928V53.0879H1.41426L0 51.6404V44.4138L1.41426 42.9681H3.63745V41.936H3.03029V40.4903H5.05354V42.9699ZM3.63928 51.6404V44.4138H2.00124L1.41426 45.0124V51.0618L2.00124 51.6404H3.63928ZM5.05354 51.6404H6.69158L7.27856 51.0618V44.9906L6.69158 44.4119H5.05354V51.6404Z" fill="white"/>
<path d="M15.1203 40.4921H16.5345V54.5318H17.1417V55.9775H15.1203V47.2235L13.1997 49.1844V55.9775H11.7855V41.9378H11.1783V40.4921H13.1997V47.1401L15.1203 45.1792V40.4921Z" fill="white"/>
<path d="M21.9531 40.4921H24.5817V55.9775H23.1674V41.9378H22.5199L21.2469 43.2383V55.9775H19.2236V54.5318H19.8308V42.6597L21.9531 40.4921Z" fill="white"/>
<path d="M27.0672 40.4921H32.4234V54.5318H33.0305V55.9775H27.6743V41.9378H27.0672V40.4921ZM29.0886 54.5318H31.0091V41.9378H29.0886V54.5318Z" fill="white"/>
<path d="M40.4687 40.4921V43.7136H39.0544V41.9378H37.1339V54.5318H39.0544V51.4753H40.4687V55.9757H35.7178V41.936H35.1106V40.4921H40.4687Z" fill="white"/>
<path d="M42.7542 40.4921H48.1104V54.5318H48.7176V55.9775H43.3614V41.9378H42.7542V40.4921ZM44.7756 54.5318H46.6962V41.9378H44.7756V54.5318Z" fill="white"/>
<path d="M56.0548 40.4921V42.9699H58.278L59.6923 44.4156V51.6422L58.278 53.0879H56.0548V54.5336H56.662V55.9793H54.6406V53.0879H52.4174L51.0031 51.6422V44.4156L52.4174 42.9699H54.6406V41.9378H54.0334V40.4921H56.0548ZM54.6406 51.6404V44.4138H53.0026L52.4156 45.0124V51.0618L53.0026 51.6404H54.6406ZM56.0548 51.6404H57.6929L58.2799 51.0618V44.9906L57.6929 44.4119H56.0548V51.6404Z" fill="white"/>
<path d="M66.1234 40.4921H67.5377V54.5318H68.1448V55.9775H66.1234V47.2235L64.2029 49.1844V55.9775H62.7886V41.9378H62.1815V40.4921H64.2029V47.1401L66.1234 45.1792V40.4921Z" fill="white"/>
<path d="M72.2482 55.9775H70.2268V54.5318H70.8339V48.5858L72.2078 47.1818L70.8339 45.7778V41.9378H70.2268V40.4921H75.583V54.5318H76.1901V55.9775H74.1687V49.1844L73.1984 48.194L72.2482 49.1644V55.9775ZM72.2482 41.936V45.1774L74.1687 47.1383V41.936H72.2482Z" fill="white"/>
<path d="M86.8218 40.4921H88.2361V54.5318H88.8432V55.9775H86.8218V47.2235L84.9013 49.1844V55.9775H83.487V41.9378H82.8799V40.4921H84.9013V47.1401L86.8218 45.1792V40.4921Z" fill="white"/>
<path d="M93.8564 40.4921H96.485V54.5318H97.0921V58H95.6779V55.9775H92.5449V58.0018H91.1306V54.5336H91.7378V42.6615L93.8564 40.4921ZM95.0689 54.5318V41.9378H94.4416L93.1484 43.2383V54.5318H95.0689Z" fill="white"/>
<path d="M102.892 46.458V47.9037H101.133V54.5318H103.054V51.4753H104.468V55.9757H99.7171V41.936H99.1099V40.4903H104.446V43.7118H103.032V41.936H101.131V46.458H102.892Z" fill="white"/>
<path d="M108.573 47.9037V55.9775H107.159V42.6597L109.281 40.4921H111.91V54.5318H112.517V55.9775H110.495V47.9037H108.573ZM110.494 41.936H109.846L108.573 43.2365V46.458H110.494V41.936Z" fill="white"/>
<path d="M117.326 40.4921H119.955V55.9775H118.541V41.9378H117.893L116.62 43.2383V55.9775H114.599V54.5318H115.206V42.6597L117.326 40.4921Z" fill="white"/>
<path d="M126.382 40.4921H127.797V54.5318H128.404V55.9775H126.382V47.2235L124.462 49.1844V55.9775H123.048V41.9378H122.441V40.4921H124.462V47.1401L126.382 45.1792V40.4921Z" fill="white"/>
<path d="M135.842 40.4921V43.7136H134.428V41.9378H132.507V54.5318H134.428V51.4753H135.842V55.9757H131.091V41.936H130.484V40.4921H135.842Z" fill="white"/>
<path d="M143.909 40.4921V43.7136H142.596V41.9378H141.827V54.5318H142.435V55.9775H140.413V41.9378H139.645V43.7136H138.331V40.4921H143.909Z" fill="white"/>
<path d="M145.991 40.4921H151.348V54.5318H151.955V55.9775H146.598V41.9378H145.991V40.4921ZM148.013 54.5318H149.933V41.9378H148.013V54.5318Z" fill="white"/>
<path d="M154.037 40.4921H159.393V45.7778L158.019 47.1818L159.393 48.5858V54.5318H160V55.9775H154.644V41.9378H154.037V40.4921ZM156.058 47.1401L157.979 45.1792V41.9378H156.058V47.1401ZM156.058 49.1844V54.5318H157.979V49.1844L157.008 48.2139L156.058 49.1844Z" fill="white"/>
<path d="M69.35 0L80 5.8136L90.65 0L102.008 6.19997V18.6525L90.65 24.8507L80 19.0371L69.35 24.8507L57.9919 18.6507V6.19997L69.35 0ZM78.5344 6.61173L69.35 1.59806L60.1637 6.61173L69.35 11.6254L78.5344 6.61173ZM100.594 7.0253L91.3581 1.98443V12.0118L100.594 17.0526V7.0253ZM90.65 23.2526L99.8363 18.2389L90.65 13.2253L81.4638 18.2389L90.65 23.2526ZM70.0562 22.8662L89.942 12.0118V1.98443L70.0562 12.8389V22.8662ZM59.4061 17.8254L68.6419 22.8662V12.8371L59.4061 7.79622V17.8254Z" fill="white"/>
</g>
<defs>
<clipPath id="clip0_704_9145">
<rect width="160" height="58" fill="white"/>
</clipPath>
</defs>
</svg>
