<svg width="844" height="480" viewBox="0 0 844 480" fill="none" xmlns="http://www.w3.org/2000/svg">
  <path
    d="M626.214 480L422 367.721L217.786 480L-7.64295e-05 360.266L-5.54016e-05 119.734L217.786 -1.92798e-06L422 112.279L626.214 3.37779e-05L844 119.734L844 360.266L626.214 480ZM450.076 352.288L626.214 449.134L802.351 352.288L626.214 255.442L450.076 352.288ZM27.1457 344.311L204.233 441.679L204.233 247.987L27.1457 150.619L27.1457 344.311ZM217.786 30.8655L41.6493 127.712L217.786 224.558L393.924 127.712L217.786 30.8655ZM612.641 38.3212L321.968 198.154L231.359 247.987L231.359 441.679L612.641 232.013L612.641 38.3212ZM816.874 135.708L639.786 38.3212L639.786 232.013L816.874 329.381L816.874 135.708Z"
    fill="rgba(220,238,244,0.2)" />
  <defs>
  </defs>
</svg>
