<svg width="80" height="80" viewBox="0 0 80 80" fill="none" xmlns="http://www.w3.org/2000/svg">
<g clip-path="url(#clip0_149_1891)">
<path d="M0 77.9708C0.458333 77.1208 1.16458 76.8541 2.125 76.8604C7.5125 76.8937 12.9021 76.8749 18.2917 76.8749C18.5729 76.8749 18.8542 76.8749 19.1792 76.8749C19.1792 73.5208 19.1792 70.2312 19.1792 66.8958C16.5125 66.6583 13.9854 66.0041 11.6146 64.8125C6.86042 62.4229 3.47708 58.7583 1.46042 53.8333C1.20208 53.202 1.2125 52.6145 1.65625 52.075C2.06042 51.5854 2.66042 51.3416 3.18958 51.6C3.675 51.8375 4.17083 52.3041 4.38542 52.7937C5.49167 55.3125 7.00417 57.5229 9.07292 59.3395C11.9542 61.8708 15.3063 63.3312 19.225 63.75C19.225 63.4604 19.225 63.2104 19.225 62.9604C19.225 59.2104 19.2396 55.4625 19.2042 51.7125C19.2 51.3291 18.9979 50.8583 18.7292 50.5791C17.1958 48.9833 15.6021 47.4458 14.0583 45.8625C13.1396 44.9208 13.4792 43.5229 14.6729 43.1875C15.3188 43.0062 15.8438 43.2458 16.2958 43.7C16.7542 44.1625 17.2208 44.6145 17.675 45.0812C18.1271 45.5479 18.5688 46.025 19.1396 46.6291C19.1813 46.2645 19.2208 46.0833 19.2208 45.902C19.2271 44.575 19.2125 43.2458 19.2271 41.9187C19.2396 40.8791 19.9188 40.1541 20.825 40.177C21.7083 40.2 22.3417 40.9 22.3458 41.9104C22.3542 45.3729 22.35 48.8354 22.35 52.2979C22.35 52.5791 22.35 52.8604 22.35 53.2812C22.6104 53.0604 22.7854 52.9312 22.9375 52.7791C24.3583 51.3645 25.7625 49.9354 27.1958 48.5333C27.9292 47.8166 28.85 47.8187 29.4896 48.4812C30.0958 49.1062 30.0667 50.002 29.4125 50.725C29.2729 50.8791 29.1208 51.0208 28.9729 51.1687C26.9292 53.2125 24.8729 55.2437 22.8583 57.3145C22.5875 57.5916 22.3854 58.0604 22.3729 58.4458C22.3208 60.1833 22.35 61.925 22.35 63.7333C24.2188 63.602 25.9521 63.1812 27.5896 62.4541C33.0812 60.0166 36.5917 55.8937 38.0313 50.0354C38.1396 49.5979 38.0979 49.3416 37.6917 49.0645C30.8 44.3687 26.6354 37.9041 25.2167 29.6875C25.125 29.152 24.9188 28.977 24.4083 28.8666C16.2938 27.1104 7.81458 31.525 4.53542 39.2395C4.45417 39.4312 4.38333 39.627 4.29167 39.8145C3.8875 40.65 3.0875 41.002 2.29792 40.7C1.47917 40.3854 1.08125 39.5312 1.4125 38.65C2.34167 36.1875 3.68958 33.9666 5.51458 32.0687C10.7083 26.6625 17.0333 24.5562 24.4417 25.6916C24.5438 25.7062 24.6458 25.7208 24.7437 25.7354C24.8708 24.2 24.9104 22.6687 25.1396 21.1645C26.5458 11.9125 31.3271 4.92495 39.3583 0.145787C39.4229 0.108287 39.475 0.0499537 39.5333 0.00203705C39.8458 0.00203705 40.1583 0.00203705 40.4708 0.00203705C40.575 0.0728704 40.6771 0.149954 40.7854 0.214537C49.1646 5.31037 53.9562 12.7041 55.0167 22.475C55.1542 23.7479 55.1542 25.0354 55.2208 26.3458C55.45 26.2958 55.6271 26.2625 55.8021 26.2166C64.9646 23.8312 73.6708 31.3458 72.6083 40.7458C72.5521 41.2458 72.6792 41.4791 73.0917 41.7291C75.9313 43.4458 77.9625 45.8562 79.0792 48.9812C79.4875 50.1187 79.7 51.327 80.0021 52.5041C80.0021 53.4937 80.0021 54.4833 80.0021 55.4729C79.9563 55.5895 79.8854 55.7041 79.8688 55.8249C78.5021 65.1479 69.2104 70.5999 60.4229 67.2374C60.2438 67.1687 60.0521 67.127 59.8583 67.0687C59.8583 70.3645 59.8583 73.5999 59.8583 76.8791C60.2083 76.8791 60.4917 76.8791 60.775 76.8791C66.4771 76.8791 72.1771 76.8958 77.8792 76.8624C78.8396 76.8562 79.5417 77.127 80.0021 77.9729C80.0021 78.6499 80.0021 79.325 80.0021 80.002C53.3354 80.002 26.6688 80.002 0.00208333 80.002C0 79.3229 0 78.6458 0 77.9708ZM59.7875 49.7854C60.1229 49.4708 60.3104 49.3041 60.4875 49.1291C61.5021 48.1187 62.5 47.0895 63.5354 46.102C63.8229 45.8291 64.2063 45.577 64.5833 45.4916C65.2917 45.3312 65.8667 45.6541 66.2021 46.2979C66.5792 47.0208 66.3688 47.6604 65.8187 48.2104C63.9604 50.0708 62.0875 51.9166 60.2542 53.802C60 54.0645 59.8146 54.5125 59.8104 54.8791C59.7729 57.5083 59.8063 60.1395 59.7771 62.7687C59.7708 63.2958 59.9646 63.5625 60.4104 63.7916C63.4813 65.3666 66.6604 65.6354 69.8354 64.302C74.1292 62.5 76.5979 59.1791 76.825 54.525C77.0583 49.7416 74.8667 46.1729 70.6167 43.9229C69.2438 43.1958 69.125 42.9062 69.3313 41.4062C69.4896 40.2562 69.6375 39.05 69.4667 37.9166C68.825 33.652 66.4333 30.6875 62.3104 29.3937C58.1521 28.0895 54.4292 29.1229 51.5229 32.3604C48.6583 35.552 48.1313 39.2854 49.6875 43.277C50.375 45.0395 50.1229 45.6666 48.3354 46.2229C43 47.8854 40.1688 53.777 42.2188 58.9541C44.3063 64.227 50.4375 66.6104 55.4938 64.15C56.3313 63.7416 56.8583 63.2854 56.6771 62.2708C56.6042 61.8666 56.6313 61.4354 56.6729 61.0229C56.7313 60.452 56.5187 60.0541 56.1104 59.6562C54.3771 57.9645 52.6688 56.25 50.9708 54.5229C50.2896 53.8312 50.275 52.9166 50.875 52.2875C51.4958 51.6375 52.4542 51.6333 53.1708 52.325C54.1625 53.2833 55.125 54.2729 56.1063 55.2437C56.2396 55.375 56.3979 55.4791 56.6667 55.6937C56.6667 55.2624 56.6667 54.9833 56.6667 54.7041C56.6667 52.0479 56.6625 49.3916 56.6708 46.7354C56.675 45.7062 57.0521 45.1583 57.8479 44.9541C58.8813 44.6875 59.7458 45.402 59.7833 46.6C59.8125 47.6041 59.7875 48.6041 59.7875 49.7854ZM41.5625 22.9791C41.6271 23.0104 41.6917 23.0416 41.7542 23.0729C42.5333 22.2708 43.3063 21.4645 44.0917 20.6687C44.5708 20.1833 45.1458 20.0062 45.8021 20.2562C46.8979 20.6708 47.1542 21.977 46.2833 22.8729C44.8854 24.3104 43.4354 25.6979 42.0521 27.1479C41.7854 27.427 41.5833 27.8979 41.5813 28.2812C41.5521 33.8541 41.5604 39.427 41.5625 44.9979C41.5625 45.2145 41.5917 45.4312 41.6083 45.6479C41.6729 45.6895 41.7396 45.7312 41.8042 45.7729C43.1042 44.5104 44.4167 43.2604 45.6917 41.9729C45.8521 41.8104 45.9021 41.452 45.8729 41.2C45.2708 36.0833 46.9292 31.8562 50.9583 28.6562C51.7479 28.0291 51.9833 27.3854 52.0063 26.5062C52.2479 17.0229 48.5125 9.51037 40.8521 3.92495C40.2292 3.47079 39.8021 3.47079 39.1583 3.91245C26.6 12.5666 24.2229 29.9854 34.0292 41.6604C35.2979 43.1708 36.7146 44.525 38.4333 45.7687C38.4333 45.3937 38.4333 45.1666 38.4333 44.9395C38.4333 41.8416 38.4229 38.7416 38.4438 35.6437C38.4479 35.1375 38.3042 34.777 37.9396 34.4187C36.1542 32.6687 34.3937 30.8937 32.6292 29.1229C31.7521 28.2437 31.6542 27.3729 32.3396 26.6604C33.0146 25.9604 33.9813 26.0666 34.8604 26.9416C35.8563 27.9333 36.8479 28.9312 37.8458 29.9229C38 30.075 38.1729 30.2083 38.4333 30.4333C38.4333 28.0875 38.4333 25.8791 38.4333 23.6708C38.4333 21.3541 38.4229 19.0354 38.4375 16.7187C38.4458 15.452 39.5125 14.675 40.5771 15.1291C41.2854 15.4312 41.5625 16.002 41.5604 16.75C41.5583 18.827 41.5625 20.9041 41.5625 22.9791ZM22.3896 76.8187C27.7625 76.8187 33.0812 76.8187 38.3937 76.8187C38.3937 70.3229 38.3937 63.8833 38.3937 57.2812C34.4771 63.0166 29.1854 66.2062 22.3896 66.9145C22.3896 70.2145 22.3896 73.4854 22.3896 76.8187ZM56.6646 67.1187C50.8917 69.325 45.9125 68.2583 41.6146 63.9583C41.6146 68.3124 41.6146 72.5708 41.6146 76.8145C46.6479 76.8145 51.6271 76.8145 56.6646 76.8145C56.6646 73.8145 56.6646 70.877 56.6646 67.9375C56.6646 67.7062 56.6646 67.475 56.6646 67.1187Z" fill="#009CD7"/>
<path d="M80 10.4687C79.5542 11.6812 79.2708 12.9833 78.6354 14.0875C76.4833 17.8291 72.05 19.4875 67.9229 18.2312C63.8 16.977 61.1542 13.077 61.3938 8.6062C61.6104 4.54787 64.8146 0.962454 68.9375 0.162454C69.1375 0.12287 69.3333 0.0562037 69.5312 0.00203705C70.3125 0.00203705 71.0938 0.00203705 71.875 0.00203705C72.0438 0.0541204 72.2104 0.120787 72.3833 0.158287C76.0083 0.96037 78.4167 3.12079 79.5938 6.64162C79.7562 7.12704 79.8667 7.6312 80.0021 8.12704C80 8.9062 80 9.68745 80 10.4687ZM70.7125 15.5041C74.1417 15.4854 76.8958 12.6958 76.8729 9.26662C76.85 5.85829 74.0313 3.09995 70.6021 3.12912C67.2208 3.15829 64.4896 5.93537 64.4979 9.33954C64.5042 12.7791 67.2688 15.5229 70.7125 15.5041Z" fill="#009CD7"/>
<path d="M0 45.625C0.09375 45.5104 0.191667 45.4 0.283333 45.2833C0.760417 44.6729 1.47292 44.4395 2.13542 44.7208C2.79583 45 3.14792 45.525 3.11042 46.2437C3.075 46.925 2.70208 47.4083 2.05208 47.6312C1.35833 47.8708 0.660417 47.6 0.233333 46.9625C0.147917 46.8354 0.0770833 46.6958 0 46.5625C0 46.25 0 45.9375 0 45.625Z" fill="#009CD7"/>
</g>
<defs>
<clipPath id="clip0_149_1891">
<rect width="80" height="80" fill="white"/>
</clipPath>
</defs>
</svg>
