<svg width="80" height="80" viewBox="0 0 80 80" fill="none" xmlns="http://www.w3.org/2000/svg">
<g clip-path="url(#clip0_149_1892)">
<path d="M0.000260417 72.1875C0.202344 71.85 0.402344 71.5125 0.658594 71.0854C0.516927 70.2583 0.152344 69.075 0.14401 67.8896C0.121094 65.0833 1.93151 62.5646 4.58151 61.5938C7.37109 60.5729 9.87318 61.1729 11.9773 63.2313C12.494 63.7375 12.9273 64.025 13.6482 63.8208C13.9357 63.7396 14.2669 63.8083 14.6898 63.8083C14.6898 62.7188 14.6898 61.6396 14.6898 60.5583C14.6898 59.4667 14.6898 58.375 14.6898 57.2188C9.02109 56.4917 4.72109 53.7188 2.08151 48.6354C0.121094 44.8583 -0.145573 40.8625 1.13776 36.8146C3.74818 28.5896 12.494 24.1125 20.8211 26.7125C28.6544 29.1583 34.3107 38.2729 30.3628 47.9813C30.6732 47.9813 30.944 47.9813 31.2128 47.9813C33.9982 47.9813 36.7836 47.9771 39.5711 47.9875C39.8773 47.9896 40.2044 48.0125 40.4836 48.1229C41.0003 48.3292 41.3148 48.8021 41.1253 49.3021C40.9753 49.6979 40.5544 50.0229 40.1878 50.2875C40.0128 50.4125 39.6815 50.3229 39.4211 50.3229C34.344 50.3229 29.2669 50.3146 24.1898 50.3417C23.8253 50.3438 23.1836 50.5417 23.1523 50.7292C23.0503 51.3417 23.1294 51.9979 23.2482 52.6167C23.2711 52.7354 23.794 52.8146 24.0878 52.8167C27.0044 52.8313 29.919 52.825 32.8357 52.825C40.4898 52.825 48.144 52.8292 55.7982 52.8104C56.1648 52.8104 56.8148 52.6313 56.8461 52.4521C56.9482 51.8396 56.8898 51.1792 56.7607 50.5646C56.7315 50.4271 56.169 50.3375 55.8523 50.3354C52.3107 50.3188 48.7711 50.325 45.2294 50.325C44.9961 50.325 44.7565 50.3458 44.5273 50.3063C43.9836 50.2125 43.6398 49.8896 43.5669 49.3292C43.4961 48.7771 43.7107 48.3625 44.2169 48.1188C44.3544 48.0521 44.5148 47.9958 44.6628 47.9979C48.7482 48.0125 52.8336 48.0417 56.919 48.0417C57.1544 48.0417 57.469 47.8646 57.6128 47.6688C58.1815 46.8958 58.6211 46.0188 59.244 45.2979C61.1961 43.0333 63.5857 43.0146 65.6148 45.2021C66.0378 45.6583 66.4023 46.1688 66.7898 46.65C67.2878 46.0625 67.7503 45.4313 68.3003 44.8917C70.0586 43.1646 72.1128 43.1417 73.9128 44.8292C75.4315 46.2542 76.3169 48.0875 77.0419 49.9917C78.9523 55.0021 79.9336 60.1917 79.819 65.5604C79.7753 67.6021 79.4253 69.5958 78.2961 71.1438C78.8898 71.5083 79.444 71.8479 79.9982 72.1896C79.9982 72.45 79.9982 72.7104 79.9982 72.9708C79.6294 73.6021 79.0794 73.7708 78.3607 73.7708C52.7857 73.7563 27.2107 73.7563 1.63359 73.7708C0.916927 73.7708 0.364844 73.6063 -0.00390625 72.9729C0.000260417 72.7083 0.000260417 72.4479 0.000260417 72.1875ZM20.9315 54.0271C20.8378 52.8563 20.6857 51.9083 20.7044 50.9646C20.7378 49.1792 21.9607 48.0167 23.7461 47.9854C24.8128 47.9667 25.8836 47.9438 26.9482 47.9958C27.5419 48.025 27.8107 47.7917 28.0544 47.2792C32.0878 38.7813 26.1169 28.7042 16.7065 28.3333C11.0982 28.1104 6.77526 30.575 4.22109 35.5813C1.66901 40.5875 2.25651 45.4896 5.70234 49.9313C7.93776 52.8083 10.9815 54.375 14.6857 54.8188C14.6857 53.1146 14.7003 51.4792 14.669 49.8417C14.6648 49.6271 14.4586 49.3833 14.2898 49.2104C13.1961 48.0958 12.0815 47 10.9815 45.8896C10.344 45.2458 10.2794 44.55 10.7857 44.0417C11.2898 43.5354 11.9919 43.6 12.6336 44.2375C13.2732 44.8708 13.894 45.525 14.6898 46.3417C14.6898 45.8396 14.6898 45.5917 14.6898 45.3458C14.6898 43.3938 14.6836 41.4396 14.6919 39.4875C14.6961 38.6083 15.1086 38.1146 15.8253 38.0958C16.5773 38.075 17.0211 38.5792 17.0315 39.4917C17.0398 40.3625 17.0336 41.2333 17.0336 42.1063C17.1003 42.1396 17.1669 42.1729 17.2315 42.2042C17.8898 41.5125 18.5357 40.8104 19.2065 40.1333C19.8794 39.4563 20.5128 39.3875 21.0523 39.8958C21.5961 40.4083 21.5336 41.1104 20.8523 41.8C19.7357 42.9292 18.5857 44.0292 17.4982 45.1833C17.2482 45.45 17.0586 45.8917 17.0544 46.2542C17.0169 48.8833 17.0336 51.5146 17.0357 54.1438C17.0357 54.3667 17.0607 54.5917 17.0836 54.9521C18.4732 54.6167 19.7773 54.3042 20.9315 54.0271ZM56.244 61.7313C57.2065 61.7313 58.0628 61.7125 58.9169 61.7354C60.4857 61.7771 61.5461 62.8479 61.5815 64.4021C61.5919 64.8708 61.5878 65.3396 61.5836 65.8063C61.5711 67.6625 60.5419 68.6896 58.6753 68.7063C58.0419 68.7125 57.4086 68.7063 56.7378 68.7063C57.2169 70.0583 57.9586 70.7917 59.3128 70.9208C61.0148 71.0813 62.7378 71.1208 64.4482 71.0854C67.0003 71.0333 68.1857 69.9542 68.6107 67.4417C69.0586 64.7917 68.8211 62.1479 68.4294 59.5188C67.8898 55.8813 67.0544 52.3146 65.3732 49.0146C64.919 48.125 64.3065 47.2854 63.6336 46.5458C62.8398 45.6729 62.0732 45.6708 61.2961 46.5667C60.5732 47.4 59.9982 48.3729 59.4273 49.3271C59.2503 49.6229 59.2398 50.0604 59.2586 50.4271C59.3169 51.5708 59.4607 52.7083 58.8794 53.7854C58.7982 53.9354 58.9003 54.2083 58.9669 54.4062C59.694 56.55 59.6607 59.5312 56.444 60.0958C56.3836 60.6021 56.319 61.1146 56.244 61.7313ZM69.6086 71.2208C71.3086 71.125 72.8148 71.1042 74.3023 70.9333C75.594 70.7854 76.4857 69.9958 76.9065 68.7542C77.0982 68.1917 77.2544 67.6063 77.3357 67.0208C77.7065 64.3625 77.4378 61.7208 77.0232 59.0958C76.4732 55.6167 75.6607 52.2021 74.0419 49.0479C73.5628 48.1146 72.9086 47.2396 72.1961 46.4667C71.4919 45.7042 70.7815 45.7 70.0898 46.4521C69.3773 47.2271 68.8211 48.1479 68.2378 49.0333C68.1419 49.1792 68.2003 49.4813 68.2773 49.6771C70.0815 54.3021 71.0398 59.1 71.1732 64.0563C71.2357 66.4604 71.069 68.8438 69.6086 71.2208ZM12.3669 71.4125C14.969 71.4125 17.5732 71.3708 20.1753 71.4354C21.0503 71.4563 21.2357 71.025 21.3169 70.3438C21.4315 69.3729 21.1315 68.8458 20.4586 68.6042C19.9836 68.4333 19.4836 68.1938 19.1398 67.8438C18.7857 67.4854 18.4482 67.3854 18.0378 67.5458C17.2711 67.8458 16.7232 67.6104 16.1607 67.0479C15.3315 66.2188 14.2857 65.975 13.1336 66.2521C11.669 66.6042 11.669 66.6042 10.7398 65.3458C9.23776 63.3104 6.38568 62.8646 4.35234 64.3479C2.27943 65.8583 1.83151 68.7417 3.32734 70.7979C3.64609 71.2354 3.99193 71.4333 4.55651 71.4271C7.16068 71.3938 9.76276 71.4125 12.3669 71.4125ZM40.0815 64.075C33.9398 64.075 27.8003 64.0729 21.6586 64.0813C21.3857 64.0813 20.8836 64.1417 20.8753 64.2208C20.7982 64.8563 20.7648 65.5104 20.8482 66.1437C20.8628 66.2583 21.4732 66.3583 21.8107 66.3583C33.8315 66.3688 45.8544 66.3688 57.8753 66.3667C59.4544 66.3667 59.1898 66.5188 59.2544 64.9896C59.2836 64.2854 59.0898 64.0563 58.3482 64.0583C52.2586 64.0875 46.169 64.075 40.0815 64.075ZM39.9503 57.6625C43.6711 57.6625 47.3919 57.6625 51.1128 57.6625C52.7773 57.6625 54.444 57.6479 56.1086 57.6688C56.7044 57.6771 56.9815 57.4313 56.9732 56.8438C56.9711 56.6354 56.9773 56.4271 56.9732 56.2188C56.9607 55.3146 56.8253 55.1708 55.9357 55.1688C54.3753 55.1646 52.8128 55.1667 51.2523 55.1667C42.2503 55.1667 33.2482 55.1646 24.2461 55.175C23.9023 55.175 23.294 55.2438 23.2586 55.3896C23.1107 55.9958 23.0544 56.6583 23.1503 57.2708C23.1773 57.45 23.8232 57.6417 24.1857 57.6417C29.4378 57.6688 34.694 57.6625 39.9503 57.6625ZM50.9065 68.7667C43.7753 68.7667 36.7107 68.7667 29.6211 68.7667C29.6211 69.6667 29.6211 70.5104 29.6211 71.3625C36.7419 71.3625 43.8086 71.3625 50.9065 71.3625C50.9065 70.4896 50.9065 69.6646 50.9065 68.7667ZM18.3669 65.0583C18.3878 64.9313 18.4086 64.8563 18.4128 64.7792C18.5044 62.6104 19.4128 61.7313 21.5669 61.7292C23.7794 61.7271 25.9919 61.7292 28.2044 61.7292C28.4794 61.7292 28.7523 61.7292 29.0273 61.7292C29.0273 61.1021 29.0273 60.5917 29.0273 60.0042C28.7378 60.0042 28.4836 60.0042 28.2315 60.0042C26.7211 60.0042 25.2128 60.0125 23.7023 60.0021C22.0586 59.9896 20.9065 58.9417 20.7128 57.3083C20.6857 57.0812 20.6669 56.8542 20.6419 56.6104C19.4336 56.8333 18.2732 57.0479 17.0357 57.275C17.0357 59.5396 17.0336 61.8229 17.0378 64.1083C17.0357 65.0063 17.3732 65.2521 18.3669 65.0583ZM49.0607 60.0708C43.1294 60.0708 37.2878 60.0708 31.4482 60.0708C31.4482 60.6417 31.4482 61.1521 31.4482 61.6875C37.3336 61.6875 43.1794 61.6875 49.0607 61.6875C49.0607 61.1333 49.0607 60.6229 49.0607 60.0708ZM27.1648 71.3771C27.1648 70.4479 27.1648 69.6063 27.1648 68.7812C25.9315 68.7812 24.7607 68.7812 23.6357 68.7812C23.6357 69.6896 23.6357 70.5271 23.6357 71.3771C24.8148 71.3771 25.9732 71.3771 27.1648 71.3771ZM53.8878 61.7063C53.9482 61.1167 54.0044 60.5958 54.0586 60.0646C53.1419 60.0646 52.3294 60.0646 51.5044 60.0646C51.5044 60.6417 51.5044 61.1646 51.5044 61.7063C52.3128 61.7063 53.0565 61.7063 53.8878 61.7063ZM53.3336 68.7833C53.3336 69.6417 53.3336 70.5063 53.3336 71.3438C54.0607 71.3438 54.7315 71.3438 55.3773 71.3438C55.0503 70.6729 54.669 70.0708 54.4648 69.4146C54.2669 68.7771 53.9669 68.5688 53.3336 68.7833Z" fill="#009CD7"/>
<path d="M49.2128 33.3208C47.4419 33.3208 45.6711 33.3292 43.9003 33.3188C40.9023 33.3021 39.1732 30.9458 40.0732 28.0792C40.6232 26.3229 41.8107 25.1708 43.5336 24.5188C43.8398 24.4021 44.1794 24.0938 44.294 23.7958C45.569 20.4708 48.5898 18.3188 52.0857 18.2958C55.5815 18.2729 58.6419 20.3729 59.9211 23.7083C60.0815 24.125 60.2669 24.3188 60.7253 24.3917C61.8357 24.5646 62.7544 25.1333 63.5773 25.9C63.8294 26.1333 64.2294 26.2875 64.5773 26.3208C65.3003 26.3896 66.0357 26.3188 66.7628 26.3688C68.6669 26.4979 70.0357 27.9958 70.0169 29.8854C69.9982 31.7563 68.5628 33.2604 66.6607 33.3021C64.5003 33.3479 62.3378 33.3271 60.1773 33.3146C59.344 33.3104 58.8794 32.8958 58.8565 32.2C58.8315 31.4813 59.3232 30.9938 60.1711 30.9833C62.019 30.9625 63.869 30.9771 65.7169 30.975C65.9503 30.975 66.1857 30.9833 66.419 30.9708C67.2003 30.9354 67.6482 30.5333 67.6648 29.8625C67.6836 29.1563 67.2336 28.7146 66.4044 28.6875C65.519 28.6604 64.6336 28.6625 63.7482 28.6833C63.0732 28.7 62.5628 28.5021 62.1628 27.9063C61.5336 26.975 60.6023 26.5771 59.4753 26.6229C58.5669 26.6604 58.2003 26.3646 57.9898 25.4813C57.2794 22.5104 54.9878 20.6208 52.1107 20.6333C49.2732 20.6458 46.9669 22.5313 46.2794 25.4542C46.1044 26.2042 45.7044 26.55 44.9523 26.6313C43.6065 26.7771 42.694 27.5021 42.3023 28.8188C41.9065 30.15 42.5044 30.9646 43.8961 30.9688C47.4898 30.9771 51.0836 30.9708 54.6773 30.975C54.9628 30.975 55.2565 30.9625 55.5315 31.025C56.1794 31.1708 56.5169 31.6042 56.4565 32.2708C56.4003 32.8979 56.019 33.2729 55.3836 33.2979C54.5773 33.3313 53.769 33.3146 52.9628 33.3167C51.7128 33.3208 50.4628 33.3208 49.2128 33.3208Z" fill="#009CD7"/>
<path d="M28.0419 18.6458C26.4273 18.6458 24.8148 18.65 23.2003 18.6438C22.1794 18.6396 21.6836 18.2563 21.6794 17.4917C21.6753 16.7292 22.1898 16.3083 23.1836 16.3042C26.1253 16.2958 29.0669 16.3021 32.0086 16.3021C32.2169 16.3021 32.4253 16.3 32.6336 16.3021C33.1044 16.3042 33.5773 16.2521 33.5878 15.6479C33.5982 15.0542 33.144 14.9521 32.6648 14.95C31.7544 14.9458 30.8419 14.9479 29.9315 14.9479C28.3607 14.9479 28.3607 14.9479 27.7857 13.5C27.269 12.2021 25.8232 11.5854 24.4961 12.1C23.2544 12.5813 23.1482 12.5521 22.3461 11.5125C21.4211 10.3146 19.9398 9.81667 18.5148 10.3583C17.6711 10.6792 17.1148 10.4979 16.519 9.8625C15.319 8.57709 13.5211 8.24167 11.9294 8.90834C10.3461 9.57292 9.33984 11.125 9.37109 12.8542C9.40443 14.6479 10.844 16.1875 12.6815 16.2688C14.319 16.3417 15.9607 16.2938 17.6003 16.3063C17.8836 16.3083 18.1773 16.3146 18.4503 16.3833C19.0336 16.5333 19.3169 16.9646 19.2878 17.5438C19.2586 18.1229 18.9336 18.5979 18.3357 18.6C16.1273 18.6083 13.8857 18.7708 11.7169 18.4625C9.30026 18.1208 7.71901 16.4875 7.19401 14.0729C6.61901 11.4354 7.50443 9.23125 9.61276 7.57917C11.9669 5.73542 15.1857 5.80417 17.5878 7.625C17.8378 7.81459 18.2482 7.94167 18.5523 7.89375C20.4544 7.59167 22.0919 8.09584 23.5503 9.33334C23.7982 9.54375 24.2378 9.68334 24.5544 9.6375C26.7211 9.31875 28.619 10.175 29.6898 12.0833C29.9169 12.4896 30.1648 12.6229 30.6065 12.6104C31.4128 12.5854 32.2211 12.5792 33.0273 12.6208C34.7253 12.7083 35.9648 14.0167 35.9523 15.6625C35.9398 17.3146 34.6878 18.5896 32.9648 18.6292C31.3253 18.6667 29.6857 18.6375 28.044 18.6375C28.0419 18.6417 28.0419 18.6438 28.0419 18.6458Z" fill="#009CD7"/>
</g>
<defs>
<clipPath id="clip0_149_1892">
<rect width="80" height="80" fill="white"/>
</clipPath>
</defs>
</svg>
