<svg width="80" height="80" viewBox="0 0 80 80" fill="none" xmlns="http://www.w3.org/2000/svg">
<g clip-path="url(#clip0_372_24828)">
<path d="M56.5625 1.52551e-06C57.3667 0.195835 58.1917 0.333335 58.9729 0.597918C63.0854 1.98958 65.7625 4.78333 67.0708 8.92083C67.1896 9.29583 67.4979 9.69167 67.8292 9.90208C69.9375 11.2396 72.075 12.5313 74.2104 13.8271C74.7042 14.1271 75.1125 14.4688 75.0687 15.1063C75.025 15.7438 74.5729 16.0271 74.0479 16.2646C70.9687 17.6562 67.8812 19.0333 64.825 20.4771C64.1896 20.7771 63.6333 21.2979 63.1292 21.8042C62.9437 21.9917 62.9646 22.4292 62.9646 22.7521C62.9896 28.9375 61.1271 34.4708 57.2375 39.2958C55.0375 42.0271 52.3896 44.2313 49.275 45.8458C48.7125 46.1375 48.5625 46.4625 48.5771 47.0479C48.6146 48.5312 48.5583 50.0167 48.5979 51.5C48.6396 52.9917 48.0687 54.0667 46.5875 54.6625C47.1042 56.0979 46.8583 57.4188 45.8937 58.6146C47.1688 60.2958 47.1875 61.975 45.9 63.6687C47.1542 65.3292 47.2 67.0062 45.8979 68.7167C46.7625 69.8417 47.1229 71.0979 46.6083 72.6188C47.0396 72.6188 47.3417 72.6188 47.6417 72.6188C52.5104 72.6188 57.3792 72.6188 62.2479 72.6188C62.5333 72.6188 62.825 72.6042 63.1063 72.6438C63.6958 72.7271 64.0396 73.0854 64.0833 73.6813C64.1271 74.2729 63.8646 74.7104 63.2875 74.8646C62.9437 74.9563 62.5687 74.9583 62.2062 74.9583C42.9896 74.9625 23.775 74.9625 4.55833 74.9625C4.24583 74.9625 3.93125 74.95 3.62083 74.9771C2.87083 75.0396 2.35 75.5875 2.34583 76.2958C2.34167 76.9958 2.86667 77.5792 3.60417 77.6438C4.01667 77.6813 4.4375 77.6562 4.85417 77.6562C7.82292 77.6562 10.7917 77.6625 13.7583 77.6521C14.4146 77.65 15.0271 77.6917 15.3146 78.4083C15.6063 79.1312 15.1604 79.575 14.6854 80C10.7792 80 6.87292 80 2.96667 80C1.46042 79.5292 0.472917 78.5375 0 77.0312C0 76.5104 0 75.9896 0 75.4688C0.0791667 75.3146 0.170833 75.1646 0.2375 75.0042C0.883333 73.4917 2.0125 72.6479 3.67083 72.6271C5.91042 72.5979 8.15 72.6167 10.3896 72.6167C17.7062 72.6167 25.0229 72.6167 32.3396 72.6167C32.6437 72.6167 32.95 72.6167 33.3563 72.6167C32.95 71.1521 33.1458 69.8896 34.1125 68.7562C32.8271 67.0708 32.7979 65.3667 34.0875 63.6938C32.8229 61.6792 32.8208 60.6562 34.0833 58.6C33.1875 57.4521 32.8729 56.1688 33.4229 54.6646C31.6167 54.0167 31.2958 52.5812 31.3958 50.8937C31.4521 49.9354 31.4062 48.9708 31.4062 48.2313C29.1812 47.225 26.9625 46.4708 25.0021 45.2896C17.0021 40.4688 12.8021 33.3146 12.3708 23.9729C12.3104 22.6688 12.7021 22.2938 14.0083 22.2938C17.7583 22.2896 21.5083 22.2917 25.2563 22.2917C25.3854 22.2917 25.5167 22.2875 25.6458 22.2958C26.4167 22.3438 26.8646 22.7563 26.8812 23.425C26.8979 24.1208 26.4333 24.5979 25.6292 24.6229C24.6417 24.6542 23.65 24.6333 22.6604 24.6333C22.3792 24.6333 22.0979 24.6333 21.8167 24.6333C21.9437 28.4833 25.5396 33.7958 31.8271 34.0583C38.1229 34.3208 42.4167 29.325 42.7875 24.6333C42.5021 24.6333 42.225 24.6333 41.9479 24.6333C38.5625 24.6333 35.1771 24.6354 31.7937 24.6292C31.4833 24.6292 31.1625 24.625 30.8667 24.5458C30.2896 24.3896 29.9958 23.9521 30.0396 23.3771C30.0812 22.8104 30.4125 22.4083 31.0146 22.3229C31.2958 22.2833 31.5854 22.2896 31.8708 22.2896C35.2292 22.2875 38.5896 22.2875 41.9479 22.2875C42.2292 22.2875 42.5125 22.2875 42.8771 22.2875C42.8937 21.9458 42.9208 21.6708 42.9208 21.3958C42.9229 18.5583 42.9833 15.7188 42.9104 12.8813C42.7354 5.9125 47.9854 0.750001 53.6167 0.108335C53.7146 0.0979182 53.8083 0.0333349 53.9021 -0.00624847C54.7917 1.52551e-06 55.6771 1.52551e-06 56.5625 1.52551e-06ZM14.725 24.6792C14.8375 25.6354 14.875 26.5021 15.05 27.3375C17.0083 36.7167 22.5104 43.0479 31.7583 45.5563C40.7854 48.0063 48.5938 45.3687 54.85 38.4625C59.0479 33.8271 60.7979 28.2292 60.6083 22.0104C60.5812 21.1542 60.7604 20.5083 61.5521 20.0438C61.9646 19.8021 62.2896 19.3854 62.6063 19.0104C65.4437 15.6521 66.0229 11.8875 64.1458 7.95417C62.3146 4.11667 59.0521 2.27917 54.8063 2.3625C49.8917 2.46042 45.5021 6.71667 45.3271 11.6333C45.1958 15.3521 45.2896 19.0792 45.2646 22.8042C45.2583 23.6354 45.2375 24.475 45.1229 25.2979C44.2896 31.3313 39.0438 36.1583 33.0896 36.4021C26.6188 36.6667 21.0917 32.5521 19.6729 26.4083C19.5396 25.8333 19.4396 25.2521 19.325 24.6792C17.7896 24.6792 16.3167 24.6792 14.725 24.6792ZM33.7521 48.4437C33.7521 49.5542 33.7708 50.6146 33.7437 51.675C33.7292 52.2292 33.975 52.4104 34.4896 52.4C35.3729 52.3833 36.2562 52.3958 37.1417 52.3958C39.8979 52.3958 42.6521 52.3958 45.4083 52.3958C45.8458 52.3958 46.2583 52.4021 46.2521 51.775C46.2396 50.2958 46.2479 48.8167 46.2479 47.2438C42.1583 48.6458 38.0458 49.1146 33.7521 48.4437ZM39.9208 57.4604C40.9354 57.4604 41.9521 57.475 42.9667 57.4563C43.8854 57.4396 44.4833 56.9104 44.5104 56.1375C44.5375 55.3354 43.9229 54.7542 42.9667 54.7458C40.9896 54.7292 39.0104 54.7292 37.0312 54.7458C36.1063 54.7542 35.5146 55.2854 35.4896 56.0604C35.4646 56.8583 36.0854 57.4375 37.0333 57.4563C37.9958 57.475 38.9583 57.4604 39.9208 57.4604ZM39.9937 72.6167C40.9562 72.6167 41.9208 72.6271 42.8833 72.6146C43.8958 72.6 44.5333 72.0417 44.5083 71.2167C44.4854 70.4187 43.8771 69.8958 42.8917 69.8875C40.9646 69.8729 39.0396 69.8729 37.1125 69.8875C36.1 69.8958 35.4625 70.4646 35.4875 71.2854C35.5104 72.0792 36.125 72.5979 37.1042 72.6146C38.0688 72.6271 39.0312 72.6167 39.9937 72.6167ZM40.0583 62.5C41.0479 62.5 42.0354 62.5125 43.025 62.4958C43.9083 62.4833 44.5229 61.9042 44.5125 61.1312C44.5021 60.3792 43.9271 59.8229 43.0667 59.8146C41.0375 59.7937 39.0063 59.7958 36.9771 59.8125C36.0729 59.8208 35.4771 60.3937 35.4896 61.1687C35.5042 61.9396 36.1167 62.4854 37.0146 62.4958C38.0271 62.5083 39.0417 62.5 40.0583 62.5ZM39.9333 67.5375C40.975 67.5375 42.0146 67.5521 43.0562 67.5333C43.9187 67.5188 44.4937 66.9812 44.5104 66.225C44.5271 65.4521 43.9167 64.8583 43.0312 64.85C41.0021 64.8333 38.9708 64.8333 36.9417 64.85C36.0979 64.8583 35.5062 65.4271 35.4875 66.1708C35.4688 66.95 36.0667 67.5167 36.9667 67.5312C37.9562 67.55 38.9458 67.5375 39.9333 67.5375ZM71.4229 14.875C70.0542 14.0375 68.85 13.3 67.6729 12.5792C67.3604 14.0938 67.0667 15.5229 66.7646 16.9958C68.2667 16.3104 69.7667 15.6292 71.4229 14.875Z" fill="#009CD7"/>
<path d="M19.375 80C18.7771 79.6625 18.3854 79.1917 18.6125 78.4729C18.8417 77.75 19.4458 77.65 20.1208 77.6521C38.6312 77.6583 57.1437 77.6583 75.6542 77.6583C76.9792 77.6583 77.6333 77.2229 77.65 76.3313C77.6688 75.4021 77.0208 74.9625 75.6292 74.9625C73.4167 74.9625 71.2042 74.9625 68.9896 74.9604C68.7562 74.9604 68.5167 74.9708 68.2896 74.9313C67.6396 74.8167 67.2729 74.4167 67.2542 73.7562C67.2375 73.1312 67.7167 72.6563 68.4083 72.6313C69.2667 72.6 70.1271 72.6188 70.9854 72.6167C72.4688 72.6146 73.9542 72.6167 75.4375 72.6167C78.1396 72.6167 78.9604 73.1562 80 75.625C80 76.0938 80 76.5625 80 77.0312C79.5271 78.5375 78.5375 79.5271 77.0312 80C57.8125 80 38.5938 80 19.375 80Z" fill="#009CD7"/>
</g>
<defs>
<clipPath id="clip0_372_24828">
<rect width="80" height="80" fill="white"/>
</clipPath>
</defs>
</svg>
