<svg width="32" height="32" viewBox="0 0 32 32" fill="none" xmlns="http://www.w3.org/2000/svg">
<path fill-rule="evenodd" clip-rule="evenodd" d="M16.0009 2C16.0009 2 18.0347 2 19.8937 2.78626C19.8937 2.78626 21.6884 3.54538 23.072 4.92893C23.072 4.92893 24.4555 6.31249 25.2146 8.10724C25.2146 8.10724 26.0009 9.96617 26.0009 12C26.0009 12 26.0009 14.0338 25.2146 15.8928C25.2146 15.8928 24.4555 17.6875 23.072 19.0711C23.072 19.0711 21.6884 20.4546 19.8937 21.2137C19.8937 21.2137 18.0347 22 16.0009 22C16.0009 22 13.9671 22 12.1081 21.2137C12.1081 21.2137 10.3134 20.4546 8.92983 19.0711C8.92983 19.0711 7.54628 17.6875 6.78716 15.8928C6.78716 15.8928 6.0009 14.0338 6.0009 12C6.0009 12 6.0009 9.96617 6.78716 8.10724C6.78716 8.10724 7.54628 6.31249 8.92983 4.92893C8.92983 4.92893 10.3134 3.54538 12.1081 2.78626C12.1081 2.78626 13.9671 2 16.0009 2ZM16.0009 4C16.0009 4 12.6872 4 10.344 6.34315C10.344 6.34315 8.0009 8.68629 8.0009 12C8.0009 12 8.0009 15.3137 10.344 17.6569C10.344 17.6569 12.6872 20 16.0009 20C16.0009 20 19.3146 20 21.6578 17.6569C21.6578 17.6569 24.0009 15.3137 24.0009 12C24.0009 12 24.0009 8.68629 21.6578 6.34315C21.6578 6.34315 19.3146 4 16.0009 4Z" fill="#009CD7"/>
<path d="M4.92073 7.41044C5.83365 5.20646 7.52051 3.51961 7.52051 3.51961C7.70804 3.33207 7.8134 3.07772 7.8134 2.8125C7.8134 2.54728 7.70804 2.29293 7.52051 2.10539C7.33297 1.91786 7.07862 1.8125 6.8134 1.8125C6.79614 1.8125 6.77889 1.81295 6.76166 1.81384C6.51467 1.82664 6.28118 1.93051 6.10629 2.10539C4.13813 4.07355 3.07297 6.64508 3.07297 6.64508C2.00781 9.2166 2.00781 12 2.00781 12C2.00781 14.7834 3.07297 17.3549 3.07297 17.3549C4.13813 19.9264 6.10629 21.8946 6.10629 21.8946C8.07445 23.8628 10.646 24.9279 10.646 24.9279C13.2175 25.9931 16.0009 25.9931 16.0009 25.9931C18.7843 25.9931 21.3558 24.9279 21.3558 24.9279C23.9273 23.8628 25.8955 21.8946 25.8955 21.8946C26.083 21.7071 26.1884 21.4527 26.1884 21.1875C26.1884 20.9223 26.083 20.6679 25.8955 20.4804C25.708 20.2929 25.4536 20.1875 25.1884 20.1875C24.9232 20.1875 24.6688 20.2929 24.4813 20.4804C22.7944 22.1673 20.5905 23.0802 20.5905 23.0802C18.3865 23.9931 16.0009 23.9931 16.0009 23.9931C13.6153 23.9931 11.4113 23.0802 11.4113 23.0802C9.20736 22.1673 7.52051 20.4804 7.52051 20.4804C5.83365 18.7935 4.92073 16.5896 4.92073 16.5896C4.00781 14.3856 4.00781 12 4.00781 12C4.00781 9.61443 4.92073 7.41044 4.92073 7.41044Z" fill="#009CD7"/>
<path d="M12.0009 30H20.0009C20.5532 30 21.0009 29.5523 21.0009 29C21.0009 28.4477 20.5532 28 20.0009 28H12.0009C11.4486 28 11.0009 28.4477 11.0009 29C11.0009 29.5523 11.4486 30 12.0009 30Z" fill="#009CD7"/>
<path d="M15.0009 25V29C15.0009 29.5523 15.4486 30 16.0009 30C16.5532 30 17.0009 29.5523 17.0009 29V25C17.0009 24.4477 16.5532 24 16.0009 24C15.4486 24 15.0009 24.4477 15.0009 25Z" fill="#009CD7"/>
<path fill-rule="evenodd" clip-rule="evenodd" d="M16.0009 2.25C16.0009 2.25 17.984 2.25 19.7963 3.01651C19.7963 3.01651 21.5461 3.75663 22.8952 5.10571C22.8952 5.10571 24.2443 6.45478 24.9844 8.20463C24.9844 8.20463 25.7509 10.0169 25.7509 12C25.7509 12 25.7509 13.9831 24.9844 15.7954C24.9844 15.7954 24.2443 17.5452 22.8952 18.8943C22.8952 18.8943 21.5461 20.2434 19.7963 20.9835C19.7963 20.9835 17.984 21.75 16.0009 21.75C16.0009 21.75 14.0178 21.75 12.2055 20.9835C12.2055 20.9835 10.4557 20.2434 9.10661 18.8943C9.10661 18.8943 7.75753 17.5452 7.01741 15.7954C7.01741 15.7954 6.2509 13.9831 6.2509 12C6.2509 12 6.2509 10.0169 7.01741 8.20463C7.01741 8.20463 7.75753 6.45478 9.10661 5.10571C9.10661 5.10571 10.4557 3.75663 12.2055 3.01651C12.2055 3.01651 14.0178 2.25 16.0009 2.25ZM16.0009 3.75C16.0009 3.75 14.3219 3.75 12.7899 4.39802C12.7899 4.39802 11.3095 5.02417 10.1673 6.16637C10.1673 6.16637 9.02507 7.30857 8.39892 8.78896C8.39892 8.78896 7.7509 10.321 7.7509 12C7.7509 12 7.7509 13.679 8.39892 15.211C8.39892 15.211 9.02507 16.6914 10.1673 17.8336C10.1673 17.8336 11.3095 18.9758 12.7899 19.602C12.7899 19.602 14.3219 20.25 16.0009 20.25C16.0009 20.25 17.6799 20.25 19.2119 19.602C19.2119 19.602 20.6923 18.9758 21.8345 17.8336C21.8345 17.8336 22.9767 16.6914 23.6029 15.211C23.6029 15.211 24.2509 13.6789 24.2509 12C24.2509 12 24.2509 10.3211 23.6029 8.78896C23.6029 8.78896 22.9767 7.30857 21.8345 6.16637C21.8345 6.16637 20.6923 5.02417 19.2119 4.39802C19.2119 4.39802 17.6799 3.75 16.0009 3.75Z" fill="#009CD7"/>
<path fill-rule="evenodd" clip-rule="evenodd" d="M15.4713 20.855L15.8369 18.9988L15.8358 19.0016L15.8347 18.9997C15.8347 18.9997 15.8335 18.9955 15.8305 18.9922L14.0725 17.094C14.0725 17.094 13.7658 16.76 13.6943 16.3154C13.6943 16.3154 13.6227 15.8708 13.8078 15.4604L15.091 12.585C15.091 12.585 15.2802 12.134 15.7202 11.8849C15.7202 11.8849 16.1602 11.6357 16.6606 11.7076L18.7941 11.9964C18.7941 11.9964 19.1204 12.0349 19.3972 12.2129L24.4747 15.3359C24.6904 15.4686 24.8249 15.7012 24.8319 15.9543L24.8321 15.975C24.8321 16.1137 24.7937 16.2497 24.721 16.3679C24.6168 16.5374 24.4495 16.6584 24.256 16.7045C24.2027 16.7173 24.1481 16.7241 24.0933 16.7249L24.0821 16.725C23.9434 16.725 23.8074 16.6865 23.6892 16.6138L18.6011 13.4839L16.4616 13.1943L16.4608 13.1962L15.1752 16.0771L16.94 17.9827C16.94 17.9827 17.1793 18.2457 17.277 18.5876C17.277 18.5876 17.3747 18.9295 17.3086 19.2887L16.943 21.1449C16.9046 21.3401 16.7902 21.512 16.625 21.6228C16.5119 21.6987 16.3802 21.7424 16.2441 21.7491C16.2318 21.7497 16.2195 21.75 16.2071 21.75C16.1585 21.75 16.1099 21.7452 16.0622 21.7358C15.7338 21.6712 15.488 21.3967 15.4598 21.0631C15.458 21.0421 15.4571 21.0211 15.4571 21C15.4571 20.9513 15.4619 20.9028 15.4713 20.855Z" fill="#009CD7"/>
<path d="M10.785 5.50554L10.792 5.48853C10.8268 5.40065 10.8447 5.30698 10.8447 5.21246C10.8447 4.91151 10.6648 4.6397 10.3877 4.5221L10.3707 4.51512C10.2828 4.48033 10.1892 4.46246 10.0947 4.46246C9.99837 4.46246 9.903 4.481 9.81373 4.51706C9.80378 4.52108 9.79392 4.52532 9.78415 4.52976C9.61322 4.6075 9.47767 4.74653 9.40429 4.91938L8.55856 6.91159C8.32972 7.46099 8.53947 8.01693 8.53947 8.01693L9.61229 10.8711C9.74162 11.2381 10.0339 11.4951 10.0339 11.4951C10.3261 11.7521 10.7058 11.8332 10.7058 11.8332L12.7118 12.2643L13.0722 13.0133C13.2633 13.3915 13.6227 13.6161 13.6227 13.6161C13.982 13.8407 14.4165 13.8468 14.4165 13.8468H15.6822C16.0964 13.8468 16.4322 13.5111 16.4322 13.0968C16.4322 12.6826 16.0964 12.3468 15.6822 12.3468H14.4165C14.4194 12.3468 14.4196 12.3461 14.4196 12.3461L14.4177 12.3441C14.4132 12.3413 14.4109 12.3366 14.4109 12.3366L14.0612 11.6092C13.9127 11.2966 13.637 11.081 13.637 11.081C13.3613 10.8655 13.0183 10.7961 13.0183 10.7961L11.0252 10.3676L9.94325 7.48834L10.785 5.50554Z" fill="#009CD7"/>
<path d="M11.4566 9.06501L10.6785 10.9119C10.6397 11.0041 10.6196 11.1031 10.6196 11.2031C10.6196 11.2227 10.6204 11.2423 10.622 11.2619C10.6439 11.5414 10.82 11.7854 11.0784 11.8942C11.1706 11.9331 11.2696 11.9531 11.3696 11.9531L11.3838 11.953C11.476 11.9512 11.5671 11.9325 11.6525 11.8977C11.8367 11.8227 11.9836 11.6776 12.0608 11.4943L12.8389 9.64741L12.8387 9.64891L12.8402 9.64839C12.8425 9.64684 12.8453 9.64683 12.8453 9.64683L14.8478 9.64684L14.8679 9.64657C15.233 9.63677 15.5555 9.46561 15.5555 9.46561L16.72 8.82196C16.8761 8.73602 17.0068 8.6133 17.0068 8.6133L19.5224 6.34088C19.9089 5.98156 19.9921 5.47149 19.9921 5.47149C20.0754 4.96143 19.8286 4.50737 19.8286 4.50737L18.9539 2.92735C18.8218 2.6887 18.5706 2.54059 18.2978 2.54059L18.2765 2.54089C18.1567 2.54429 18.0394 2.57636 17.9345 2.63442C17.6959 2.76653 17.5478 3.01781 17.5478 3.29059L17.5481 3.31187C17.5515 3.43169 17.5835 3.54895 17.6416 3.65383L18.5107 5.22381C18.5123 5.22663 18.5117 5.2298 18.5117 5.2298L18.5119 5.23091L18.5165 5.22813L15.995 7.50592L15.9871 7.51319L14.8525 8.14057C14.8427 8.14575 14.8319 8.14684 14.8319 8.14684L12.8377 8.14685C12.3875 8.14914 12.0121 8.39772 12.0121 8.39772C11.6367 8.6463 11.4566 9.06501 11.4566 9.06501Z" fill="#009CD7"/>
</svg>
