<svg width="165" height="165" viewBox="0 0 165 165" fill="none" xmlns="http://www.w3.org/2000/svg">
<path d="M84.3897 2.08776C87.6813 4.20077 90.9981 6.2801 94.2602 8.43941C96.1796 9.71059 98.0148 11.1038 100.241 12.6907C100.241 11.55 100.22 10.704 100.246 9.85791C100.309 7.87959 101.088 7.07985 103.041 7.0588C105.928 7.02934 108.816 7.04197 111.703 7.05459C114.056 7.06722 114.759 7.77857 114.772 10.1989C114.788 14.0334 114.809 17.8638 114.755 21.6983C114.742 22.7001 115.028 23.3441 115.879 23.904C117.63 25.0573 119.322 26.3074 121.014 27.5491C124.423 30.0409 125.408 33.3283 123.847 36.9019C122.378 40.2693 119.326 41.7341 115.285 41.0185C115.193 41.0017 115.087 41.0353 114.776 41.069C114.776 42.7569 114.78 44.4658 114.776 46.179C114.776 46.8608 114.788 47.5469 114.751 48.2246C114.666 49.6347 113.921 50.4765 112.503 50.5818C111.177 50.6786 110.142 49.7357 110.099 48.233C110.019 45.4508 109.956 42.6643 110.095 39.8862C110.179 38.2194 109.611 37.2597 108.243 36.3042C100.208 30.6723 92.2356 24.9436 84.2761 19.2023C83.3837 18.5583 82.786 18.4867 81.8432 19.1686C73.6731 25.0699 65.4736 30.9207 57.2489 36.742C56.3313 37.3902 55.9946 38.0637 55.9988 39.1875C56.0451 49.1128 56.024 59.038 56.024 68.9591C56.024 69.4684 56.024 69.9819 56.024 70.5796C61.8327 70.5796 67.4814 70.5796 73.2985 70.5796C73.3238 70.0029 73.3743 69.4515 73.3743 68.9001C73.3827 64.5436 73.3153 60.1829 73.3953 55.8264C73.5258 48.7171 79.8901 44.2091 86.4564 46.5031C90.3878 47.8795 92.787 51.4152 92.8375 56.0453C92.8838 60.2966 92.846 64.552 92.8502 68.8033C92.8502 69.3674 92.8502 69.9314 92.8502 70.5754C98.621 70.5754 104.215 70.5754 110.049 70.5754C110.049 69.683 110.049 68.8665 110.049 68.0457C110.049 65.0529 110.028 62.0602 110.057 59.0675C110.078 57.1776 110.954 56.201 112.478 56.2347C113.942 56.2684 114.746 57.1986 114.763 59.0338C114.797 62.2875 114.772 65.5454 114.776 68.7991C114.776 69.3589 114.776 69.9188 114.776 70.5333C115.277 70.5922 115.58 70.6469 115.883 70.6554C118.703 70.7606 119.296 71.3541 119.301 74.1195C119.305 76.6408 119.305 79.1621 119.301 81.6792C119.296 84.4825 118.589 85.177 115.723 85.177C108.74 85.1813 101.757 85.177 94.7696 85.177C94.2013 85.177 93.6331 85.177 92.9554 85.177C92.9554 87.4163 92.9554 89.5378 92.9554 91.6634C99.6059 89.7987 102.527 90.6027 106.37 95.4559C108.837 93.7133 111.589 92.9472 114.62 93.6291C117.613 94.3026 119.785 96.083 121.313 98.8148C123.67 97.2195 126.191 96.5124 128.948 97.0343C133.532 97.9014 136.861 101.77 136.95 106.463C137.038 111.135 136.992 115.807 136.967 120.484C136.958 122.222 136.036 123.22 134.584 123.211C133.124 123.207 132.265 122.23 132.257 120.463C132.24 116.001 132.294 111.535 132.236 107.073C132.181 103.108 128.86 100.621 125.467 101.934C123.295 102.776 122.378 104.527 122.256 106.728C122.171 108.248 122.239 109.771 122.226 111.295C122.209 113.324 121.418 114.317 119.844 114.292C118.29 114.267 117.516 113.261 117.508 111.215C117.495 108.483 117.554 105.752 117.474 103.024C117.402 100.587 116.022 98.9158 113.791 98.3013C111.779 97.7457 109.586 98.4065 108.546 100.187C107.97 101.176 107.645 102.43 107.587 103.584C107.448 106.307 107.582 109.043 107.515 111.771C107.469 113.64 106.134 114.675 104.505 114.212C103.154 113.829 102.822 112.76 102.818 111.514C102.813 108.26 102.822 105.002 102.809 101.749C102.805 101.067 102.792 100.381 102.7 99.7072C102.312 96.9417 100.212 95.2033 97.4592 95.3254C94.959 95.4348 92.9091 97.5731 92.8754 100.229C92.8249 103.853 92.8712 107.477 92.846 111.097C92.8418 111.716 92.787 112.373 92.5724 112.941C92.1641 114.014 91.1918 114.561 90.1773 114.204C89.4113 113.934 88.7083 113.181 88.2453 112.469C87.9507 112.019 88.1359 111.245 88.1359 110.613C88.1317 92.4463 88.1401 74.2753 88.1275 56.1084C88.1233 52.3412 85.5809 50.1945 82.0031 50.868C79.6544 51.31 78.1938 53.0273 78.1264 55.5233C78.0801 57.308 78.1138 59.0927 78.1138 60.8774C78.1138 78.0467 78.1012 95.2202 78.1222 112.389C78.1264 114.671 77.3688 116.493 75.4031 117.718C72.4314 119.566 69.0093 118.459 67.3636 115.193C65.7599 112.011 64.2951 108.732 62.4009 105.735C60.8477 103.277 58.8821 101.041 56.8532 98.9411C55.1233 97.148 52.8419 96.2809 50.2574 96.6092C47.7867 96.9249 47.1679 98.0824 48.0855 100.364C52.6398 111.695 57.2405 123.009 61.6517 134.399C62.9102 137.653 64.8002 140.237 67.393 142.494C69.5229 144.346 71.577 146.332 73.3827 148.496C76.2534 151.935 77.634 156.047 77.996 160.496C78.1222 162.054 77.2804 163.194 75.9293 163.363C74.5907 163.531 73.4627 162.613 73.328 161.043C72.8523 155.357 70.0701 150.958 65.8356 147.334C64.4803 146.172 62.9902 145.103 61.8916 143.727C60.4058 141.866 58.8821 139.896 57.9855 137.72C53.1323 125.943 48.6369 114.018 43.6743 102.292C40.7657 95.4138 45.9725 91.3982 51.516 91.7265C55.3379 91.9538 58.398 93.7722 61.075 96.3524C65.3095 100.431 68.0833 105.478 70.5289 110.735C70.9245 111.59 71.2739 112.474 71.7453 113.286C71.9137 113.576 72.4356 113.892 72.7092 113.829C72.987 113.766 73.1891 113.261 73.3616 112.916C73.4458 112.747 73.3869 112.503 73.3869 112.293C73.3869 103.575 73.3869 94.8582 73.3869 86.141C73.3869 85.8884 73.3532 85.6316 73.3238 85.1686C72.7134 85.1686 72.1578 85.1686 71.6022 85.1686C64.1983 85.1686 56.7943 85.1728 49.3904 85.1644C46.7428 85.1644 45.9977 84.4236 45.9935 81.8139C45.9893 79.1874 45.9893 76.5609 45.9935 73.9385C45.9977 71.3878 46.7133 70.6722 49.2599 70.6512C49.8786 70.6469 50.4974 70.6512 51.2171 70.6512C51.2171 60.6543 51.2171 50.8091 51.2171 40.8543C50.9141 40.8796 50.6194 40.8838 50.3332 40.9343C47.1342 41.5446 43.9437 40.1472 42.5252 37.508C40.8247 34.3385 41.1151 31.1227 43.7669 28.7403C46.0188 26.7157 48.6074 25.0657 51.053 23.26C52.1095 22.4813 53.166 21.7026 54.2646 20.9828C55.5231 20.1578 56.828 20.3514 57.6193 21.4037C58.4317 22.4855 58.196 23.925 56.9458 24.8426C53.9784 27.0103 50.9772 29.1233 47.9929 31.27C47.5678 31.5731 47.1258 31.8761 46.7764 32.2592C45.8462 33.282 45.7115 34.4185 46.5618 35.5466C47.3742 36.6241 48.498 36.7504 49.6682 36.2579C50.2364 36.018 50.7415 35.6055 51.2508 35.2393C61.1213 28.1973 70.9835 21.1511 80.8498 14.105C82.8407 12.6823 83.2869 12.6865 85.3242 14.1386C95.2326 21.2143 105.124 28.3152 115.066 35.3445C115.845 35.8959 117.04 36.3758 117.878 36.1821C118.623 36.0096 119.364 34.9489 119.701 34.1112C120.147 33 119.393 32.1497 118.463 31.4889C113.117 27.6838 107.789 23.8619 102.451 20.0483C96.7268 15.9612 91.0066 11.8741 85.2779 7.79541C83.3332 6.41059 82.7481 6.41901 80.774 7.82908C75.8619 11.3353 70.9835 14.8921 66.0124 18.3142C65.2632 18.8319 63.9752 19.1181 63.146 18.8529C61.3234 18.2805 61.3023 15.9739 63.0365 14.7153C66.6859 12.0635 70.3395 9.41174 74.0604 6.85255C76.5017 5.17309 79.0609 3.65778 81.5696 2.06671C82.4998 2.08776 83.4469 2.08776 84.3897 2.08776ZM50.8004 80.3449C58.3601 80.3449 65.823 80.3449 73.2985 80.3449C73.2985 78.6697 73.2985 77.1165 73.2985 75.5212C65.7514 75.5212 58.2928 75.5212 50.8004 75.5212C50.8004 77.1964 50.8004 78.7412 50.8004 80.3449ZM92.9386 80.3659C100.199 80.3659 107.3 80.3659 114.46 80.3659C114.46 78.6823 114.46 77.0996 114.46 75.4917C107.229 75.4917 100.128 75.4917 92.9386 75.4917C92.9386 77.1333 92.9386 78.6823 92.9386 80.3659ZM109.998 11.9036C108.268 11.9036 106.69 11.9036 104.884 11.9036C104.994 13.4189 104.606 15.1783 105.309 16.0959C106.408 17.527 108.252 18.3899 109.998 19.6527C109.998 16.8494 109.998 14.4543 109.998 11.9036Z" fill="#009CD7"/>
<path d="M33.3997 53.2798C33.3997 56.4283 33.4881 59.5768 33.3407 62.7168C33.3028 63.5671 32.7599 64.7625 32.0864 65.1119C31.4003 65.4696 30.087 65.276 29.3673 64.8172C24.6361 61.8077 19.9808 58.6844 15.3296 55.5528C13.3597 54.2227 13.3471 52.6232 15.3002 51.3015C20.0313 48.1026 24.7835 44.9288 29.5609 41.8014C31.7791 40.3534 33.3576 41.2163 33.3828 43.8386C33.4249 46.9871 33.3997 50.1356 33.3997 53.2798ZM28.5549 58.6634C28.5549 55.0267 28.5549 51.7098 28.5549 48.1573C25.861 49.9504 23.3565 51.6172 20.6627 53.4145C23.3565 55.2077 25.861 56.8703 28.5549 58.6634Z" fill="#009CD7"/>
<path d="M131.562 53.2083C131.562 50.1103 131.528 47.0166 131.575 43.9186C131.613 41.1827 133.183 40.3324 135.489 41.8435C140.271 44.9751 145.015 48.1615 149.75 51.3605C151.623 52.6274 151.619 54.2059 149.72 55.4855C145.023 58.6508 140.321 61.8077 135.544 64.8467C134.833 65.2971 133.502 65.4528 132.825 65.0824C132.16 64.712 131.659 63.5124 131.617 62.6495C131.478 59.5094 131.562 56.3568 131.562 53.2083ZM136.377 58.7139C139.172 56.8492 141.672 55.1824 144.324 53.4145C141.58 51.5878 139.071 49.9167 136.377 48.1194C136.377 51.7351 136.377 55.0603 136.377 58.7139Z" fill="#009CD7"/>
<path d="M136.979 137.219C136.979 138.899 137.005 140.578 136.971 142.254C136.908 145.221 135.897 147.822 133.671 149.813C131.975 151.329 131.234 153.13 131.326 155.382C131.406 157.268 131.381 159.158 131.322 161.048C131.276 162.416 130.291 163.358 129.049 163.392C127.803 163.426 126.688 162.508 126.658 161.17C126.599 158.497 126.553 155.811 126.743 153.151C126.924 150.664 128.085 148.525 129.971 146.867C131.629 145.406 132.315 143.622 132.273 141.429C132.206 138.179 132.244 134.925 132.261 131.672C132.269 129.933 133.136 128.889 134.538 128.847C135.982 128.805 136.95 129.921 136.975 131.71C137 133.549 136.979 135.384 136.979 137.219Z" fill="#009CD7"/>
<path d="M89.7733 33.7787C89.7522 37.8658 86.7048 40.8838 82.5882 40.888C78.6147 40.8922 75.4494 37.6764 75.4747 33.6651C75.4999 29.721 78.6358 26.5642 82.5419 26.5515C86.7258 26.5347 89.7943 29.6032 89.7733 33.7787ZM82.6261 31.2869C81.1739 31.2995 80.1847 32.3434 80.231 33.8166C80.2731 35.1972 81.2749 36.1611 82.6597 36.1569C84.0614 36.1527 85.1179 35.0457 85.0716 33.6272C85.0253 32.2802 83.9772 31.2742 82.6261 31.2869Z" fill="#009CD7"/>
<path d="M65.8062 58.3561C65.8062 59.9304 65.844 61.5046 65.7935 63.0746C65.7472 64.6068 64.8633 65.4949 63.4869 65.5117C62.1105 65.5286 61.134 64.6446 61.1087 63.142C61.054 59.943 61.0582 56.744 61.1045 53.545C61.1256 52.0297 62.0684 51.1121 63.4196 51.0953C64.8381 51.0784 65.7599 52.0213 65.7978 53.6334C65.8398 55.2119 65.8062 56.7861 65.8062 58.3561Z" fill="#009CD7"/>
<path d="M104.964 58.3225C104.964 59.8967 105.002 61.4667 104.952 63.0367C104.901 64.6278 104.08 65.4739 102.695 65.5075C101.315 65.5412 100.326 64.7078 100.288 63.1714C100.212 59.9262 100.212 56.6725 100.292 53.4272C100.33 51.9077 101.344 51.0574 102.712 51.1037C104.072 51.15 104.901 52.0255 104.947 53.604C105.002 55.1782 104.964 56.7524 104.964 58.3225Z" fill="#009CD7"/>
</svg>
